{
.appVersion = "1230";
DisplayStrings = (
"Ø",
"/_corner.leftSerif",
"/_corner.leftSerif"
);
classes = (
{
automatic = 1;
code = "A Aacute Acircumflex Adieresis Agrave Aring Atilde AE B C Ccedilla D Eth E Eacute Ecircumflex Edieresis Egrave F G H I Iacute Icircumflex Idieresis Igrave J K L M N Ntilde O Oacute Ocircumflex Odieresis Ograve Oslash Otilde OE P Thorn Q R S Germandbls T U Uacute Ucircumflex Udieresis Ugrave V W X Y Yacute Z";
name = Uppercase;
}
);
copyright = "Copyright 2018 The Solway Project Authors (https://github.com/mashavp/Solway)";
customParameters = (
{
name = fsType;
value = (
);
},
{
name = "Family Alignment Zones";
value = (
"{740, 10}",
"{700, 10}",
"{500, 10}",
"{0, -10}",
"{-230, -10}"
);
},
{
name = license;
value = "This Font Software is licensed under the SIL Open Font License, Version 1.1. This license is available with a FAQ at: http://scripts.sil.org/OFL";
},
{
name = licenseURL;
value = "http://scripts.sil.org/OFL";
},
{
name = glyphOrder;
value = (
.notdef,
.null,
CR,
space,
exclam,
quotedbl,
numbersign,
dollar,
percent,
ampersand,
quotesingle,
parenleft,
parenright,
asterisk,
plus,
comma,
hyphen,
period,
slash,
zero,
one,
two,
three,
four,
five,
six,
seven,
eight,
nine,
colon,
semicolon,
less,
equal,
greater,
question,
at,
A,
B,
C,
D,
E,
F,
G,
H,
I,
J,
K,
L,
M,
N,
O,
P,
Q,
R,
S,
T,
U,
V,
W,
X,
Y,
Z,
bracketleft,
backslash,
bracketright,
asciicircum,
underscore,
grave,
a,
b,
c,
d,
e,
f,
g,
h,
i,
j,
k,
l,
m,
n,
o,
p,
q,
r,
s,
t,
u,
v,
w,
x,
y,
z,
braceleft,
bar,
braceright,
asciitilde,
uni00A0,
exclamdown,
cent,
sterling,
currency,
yen,
brokenbar,
section,
dieresis,
copyright,
ordfeminine,
guillemotleft,
logicalnot,
uni00AD,
registered,
macron,
degree,
plusminus,
twosuperior,
threesuperior,
acute,
mu,
paragraph,
periodcentered,
cedilla,
onesuperior,
ordmasculine,
guillemotright,
onequarter,
onehalf,
threequarters,
questiondown,
Agrave,
Aacute,
Acircumflex,
Atilde,
Adieresis,
Aring,
AE,
Ccedilla,
Egrave,
Eacute,
Ecircumflex,

glyphs = (
{
color = 1;
glyphname = exclam;
layers = (
{
layerId = "C836F59C-81CC-4411-94AE-B4087123016A";
paths = (
{
closed = 1;
nodes = (
"157 197 LINE SMOOTH",
"174 197 OFFCURVE",
"186 211 OFFCURVE",
"186 228 CURVE SMOOTH",
"186 669 LINE SMOOTH",
"186 686 OFFCURVE",
"174 700 OFFCURVE",
"157 700 CURVE SMOOTH",
"156 700 LINE SMOOTH",
"139 700 OFFCURVE",
"127 686 OFFCURVE",
"127 669 CURVE SMOOTH",
"127 228 LINE SMOOTH",
"127 211 OFFCURVE",
"139 197 OFFCURVE",
"156 197 CURVE SMOOTH"
);
},
{
closed = 1;
nodes = (
"191 -10 OFFCURVE",
"215 14 OFFCURVE",
"215 46 CURVE SMOOTH",
"215 78 OFFCURVE",
"191 102 OFFCURVE",
"159 102 CURVE SMOOTH",
"127 102 OFFCURVE",
"103 78 OFFCURVE",
"103 46 CURVE SMOOTH",
"103 14 OFFCURVE",
"127 -10 OFFCURVE",
"159 -10 CURVE SMOOTH"
);
}
);
width = 314;
},
{
background = {
paths = (
{
closed = 1;
nodes = (
"211 -10 OFFCURVE",
"259 38 OFFCURVE",
"259 102 CURVE SMOOTH",
"259 166 OFFCURVE",
"211 214 OFFCURVE",
"147 214 CURVE SMOOTH",
"83 214 OFFCURVE",
"35 166 OFFCURVE",
"35 102 CURVE SMOOTH",
"35 38 OFFCURVE",
"83 -10 OFFCURVE",
"147 -10 CURVE SMOOTH"
);
},
{
closed = 1;
nodes = (
"118 700 LINE SMOOTH",
"89 700 OFFCURVE",
"67 678 OFFCURVE",
"67 649 CURVE SMOOTH",
"67 312 LINE SMOOTH",
"67 283 OFFCURVE",
"89 261 OFFCURVE",
"118 261 CURVE SMOOTH",
"183 261 LINE SMOOTH",
"212 261 OFFCURVE",
"234 283 OFFCURVE",
"234 312 CURVE SMOOTH",
"234 649 LINE SMOOTH",
"234 678 OFFCURVE",
"212 700 OFFCURVE",
"183 700 CURVE SMOOTH"
);
}
);
};
layerId = "120615CE-BBBA-4703-9D0A-81094A4EB7C9";
paths = (
{
closed = 1;
nodes = (
"214 261 LINE SMOOTH",
"243 261 OFFCURVE",
"265 283 OFFCURVE",
"265 312 CURVE SMOOTH",
"265 649 LINE SMOOTH",
"265 678 OFFCURVE",
"243 700 OFFCURVE",
"214 700 CURVE SMOOTH",
"149 700 LINE SMOOTH",
"120 700 OFFCURVE",
"98 678 OFFCURVE",
"98 649 CURVE SMOOTH",
"98 312 LINE SMOOTH",
"98 283 OFFCURVE",
"120 261 OFFCURVE",
"149 261 CURVE SMOOTH"
);
},
{
closed = 1;
nodes = (
"245 -10 OFFCURVE",
"293 33 OFFCURVE",
"293 97 CURVE SMOOTH",
"293 161 OFFCURVE",
"245 204 OFFCURVE",
"181 204 CURVE SMOOTH",
"117 204 OFFCURVE",
"69 161 OFFCURVE",
"69 97 CURVE SMOOTH",
"69 33 OFFCURVE",
"117 -10 OFFCURVE",
"181 -10 CURVE SMOOTH"
);
}
);
width = 362;
}
);
leftKerningGroup = exclam;
rightKerningGroup = exclam;
unicode = 0021;
},
{
color = 1;
glyphname = numbersign;
layers = (
{
layerId = "C836F59C-81CC-4411-94AE-B4087123016A";
paths = (
{
closed = 1;
nodes = (
"533 507 LINE",
"562 672 LINE SMOOTH",
"563 678 OFFCURVE",
"564 684 OFFCURVE",
"564 687 CURVE SMOOTH",
"564 693 OFFCURVE",
"561 700 OFFCURVE",
"548 700 CURVE SMOOTH",
"526 700 LINE SMOOTH",
"515 700 OFFCURVE",
"508 691 OFFCURVE",
"506 680 CURVE SMOOTH",
"475 507 LINE",
"298 507 LINE",
"327 672 LINE SMOOTH",
"328 678 OFFCURVE",
"329 684 OFFCURVE",
"329 687 CURVE SMOOTH",
"329 693 OFFCURVE",
"326 700 OFFCURVE",
"313 700 CURVE SMOOTH",
"291 700 LINE SMOOTH",
"280 700 OFFCURVE",
"273 691 OFFCURVE",
"271 680 CURVE SMOOTH",
"240 507 LINE",
"123 507 LINE SMOOTH",
"112 507 OFFCURVE",
"103 498 OFFCURVE",
"103 487 CURVE SMOOTH",
"103 472 LINE SMOOTH",
"103 461 OFFCURVE",
"112 452 OFFCURVE",
"123 452 CURVE SMOOTH",
"230 452 LINE",
"199 274 LINE",
"87 274 LINE SMOOTH",
"76 274 OFFCURVE",
"67 265 OFFCURVE",
"67 254 CURVE SMOOTH",
"67 239 LINE SMOOTH",
"67 228 OFFCURVE",
"76 219 OFFCURVE",
"87 219 CURVE SMOOTH",
"189 219 LINE",
"155 28 LINE SMOOTH",
"154 22 OFFCURVE",
"153 16 OFFCURVE",
"153 13 CURVE SMOOTH",
"153 7 OFFCURVE",
"156 0 OFFCURVE",
"169 0 CURVE SMOOTH",
"191 0 LINE SMOOTH",
"202 0 OFFCURVE",
"209 9 OFFCURVE",
"211 20 CURVE SMOOTH",
"246 219 LINE",
"424 219 LINE",
"390 28 LINE SMOOTH",
"389 22 OFFCURVE",
"388 16 OFFCURVE",
"388 13 CURVE SMOOTH",
"388 7 OFFCURVE",
"391 0 OFFCURVE",
"404 0 CURVE SMOOTH",
"426 0 LINE SMOOTH",
"437 0 OFFCURVE",
"444 9 OFFCURVE",
"446 20 CURVE SMOOTH",
"481 219 LINE",
"594 219 LINE SMOOTH",
"605 219 OFFCURVE",
"614 228 OFFCURVE",
"614 239 CURVE SMOOTH",
"614 254 LINE SMOOTH",
"614 265 OFFCURVE",
"605 274 OFFCURVE",
"594 274 CURVE SMOOTH",
"491 274 LINE",
"523 452 LINE",
"630 452 LINE SMOOTH",
"641 452 OFFCURVE",
"650 461 OFFCURVE",
"650 472 CURVE SMOOTH",
"650 487 LINE SMOOTH",
"650 498 OFFCURVE",
"641 507 OFFCURVE",
"630 507 CURVE SMOOTH"
);
},
{
closed = 1;
nodes = (
"256 274 LINE",
"288 452 LINE",
"465 452 LINE",
"434 274 LINE"
);
}
);
width = 717;
},
{
layerId = "120615CE-BBBA-4703-9D0A-81094A4EB7C9";
paths = (
{
closed = 1;
nodes = (
"602 548 LINE",
"619 643 LINE SMOOTH",
"620 649 OFFCURVE",
"621 658 OFFCURVE",
"621 662 CURVE SMOOTH",
"621 688 OFFCURVE",
"605 700 OFFCURVE",
"577 700 CURVE SMOOTH",
"523 700 LINE SMOOTH",
"494 700 OFFCURVE",
"478 681 OFFCURVE",
"472 649 CURVE SMOOTH",
"454 548 LINE",
"360 548 LINE",
"377 643 LINE SMOOTH",
"378 649 OFFCURVE",
"379 658 OFFCURVE",
"379 662 CURVE SMOOTH",
"379 688 OFFCURVE",
"363 700 OFFCURVE",
"335 700 CURVE SMOOTH",
"281 700 LINE SMOOTH",
"252 700 OFFCURVE",
"236 681 OFFCURVE",
"230 649 CURVE SMOOTH",
"212 548 LINE",
"130 548 LINE SMOOTH",
"101 548 OFFCURVE",
"79 526 OFFCURVE",
"79 497 CURVE SMOOTH",
"79 461 LINE SMOOTH",
"79 432 OFFCURVE",
"101 410 OFFCURVE",
"130 410 CURVE SMOOTH",
"188 410 LINE",
"170 309 LINE",
"98 309 LINE SMOOTH",
"69 309 OFFCURVE",
"47 287 OFFCURVE",
"47 258 CURVE SMOOTH",
"47 222 LINE SMOOTH",
"47 193 OFFCURVE",
"69 171 OFFCURVE",
"98 171 CURVE SMOOTH",
"145 171 LINE",
"125 57 LINE SMOOTH",
"124 51 OFFCURVE",
"123 42 OFFCURVE",
"123 38 CURVE SMOOTH",
"123 12 OFFCURVE",
"139 0 OFFCURVE",
"167 0 CURVE SMOOTH",
"221 0 LINE SMOOTH",
"250 0 OFFCURVE",
"266 19 OFFCURVE",
"272 51 CURVE SMOOTH",
"293 171 LINE",
"387 171 LINE",
"367 57 LINE SMOOTH",
"366 51 OFFCURVE",
"365 42 OFFCURVE",
"365 38 CURVE SMOOTH",
"365 12 OFFCURVE",
"381 0 OFFCURVE",
"409 0 CURVE SMOOTH",
"463 0 LINE SMOOTH",
"492 0 OFFCURVE",
"508 19 OFFCURVE",
"514 51 CURVE SMOOTH",
"535 171 LINE",
"614 171 LINE SMOOTH",
"643 171 OFFCURVE",
"665 193 OFFCURVE",
"665 222 CURVE SMOOTH",
"665 258 LINE SMOOTH",
"665 287 OFFCURVE",
"643 309 OFFCURVE",
"614 309 CURVE SMOOTH",
"560 309 LINE",
"578 410 LINE",
"646 410 LINE SMOOTH",
"675 410 OFFCURVE",
"697 432 OFFCURVE",
"697 461 CURVE SMOOTH",
"697 497 LINE SMOOTH",
"697 526 OFFCURVE",
"675 548 OFFCURVE",
"646 548 CURVE SMOOTH"
);
},
{
closed = 1;
nodes = (
"306 298 LINE",
"328 421 LINE",
"442 421 LINE",
"420 298 LINE"
);
}
);
width = 744;
},
{
associatedMasterId = "120615CE-BBBA-4703-9D0A-81094A4EB7C9";
guideLines = (
{
angle = 79.9423;
position = "{509, 51}";
},
{
angle = 90;
position = "{660, 243}";
}
);
layerId = "1381E8CB-40CD-4A17-A2BB-C700A65C2DB6";
name = "Jan 24 18, 22:13";
paths = (
{
closed = 1;
nodes = (
"458 0 LINE SMOOTH",
"487 0 OFFCURVE",
"503 19 OFFCURVE",
"509 51 CURVE SMOOTH",
"614 643 LINE SMOOTH",
"615 649 OFFCURVE",
"616 658 OFFCURVE",
"616 662 CURVE SMOOTH",
"616 688 OFFCURVE",
"600 700 OFFCURVE",
"572 700 CURVE SMOOTH",
"518 700 LINE SMOOTH",
"489 700 OFFCURVE",
"473 681 OFFCURVE",
"467 649 CURVE SMOOTH",
"362 57 LINE SMOOTH",
"361 51 OFFCURVE",
"360 42 OFFCURVE",
"360 38 CURVE SMOOTH",
"360 12 OFFCURVE",
"376 0 OFFCURVE",
"404 0 CURVE SMOOTH"
);
},
{
closed = 1;
nodes = (
"609 171 LINE SMOOTH",
"638 171 OFFCURVE",
"660 193 OFFCURVE",
"660 222 CURVE SMOOTH",
"660 258 LINE SMOOTH",
"660 287 OFFCURVE",
"638 309 OFFCURVE",
"609 309 CURVE SMOOTH",
"93 309 LINE SMOOTH",
"64 309 OFFCURVE",
"42 287 OFFCURVE",
"42 258 CURVE SMOOTH",
"42 222 LINE SMOOTH",
"42 193 OFFCURVE",
"64 171 OFFCURVE",
"93 171 CURVE SMOOTH"
);
},
{
closed = 1;
nodes = (
"216 0 LINE SMOOTH",
"245 0 OFFCURVE",
"261 19 OFFCURVE",
"267 51 CURVE SMOOTH",
"372 643 LINE SMOOTH",
"373 649 OFFCURVE",
"374 658 OFFCURVE",
"374 662 CURVE SMOOTH",
"374 688 OFFCURVE",
"358 700 OFFCURVE",
"330 700 CURVE SMOOTH",
"276 700 LINE SMOOTH",
"247 700 OFFCURVE",
"231 681 OFFCURVE",
"225 649 CURVE SMOOTH",
"120 57 LINE SMOOTH",
"119 51 OFFCURVE",
"118 42 OFFCURVE",
"118 38 CURVE SMOOTH",
"118 12 OFFCURVE",
"134 0 OFFCURVE",
"162 0 CURVE SMOOTH"
);
},
{
closed = 1;
nodes = (
"641 410 LINE SMOOTH",
"670 410 OFFCURVE",
"692 432 OFFCURVE",
"692 461 CURVE SMOOTH",
"692 497 LINE SMOOTH",
"692 526 OFFCURVE",
"670 548 OFFCURVE",
"641 548 CURVE SMOOTH",
"125 548 LINE SMOOTH",
"96 548 OFFCURVE",
"74 526 OFFCURVE",
"74 497 CURVE SMOOTH",
"74 461 LINE SMOOTH",
"74 432 OFFCURVE",
"96 410 OFFCURVE",
"125 410 CURVE SMOOTH"
);
}
);
width = 747;
},
{
associatedMasterId = "C836F59C-81CC-4411-94AE-B4087123016A";
guideLines = (
{
angle = 90;
position = "{587, 213}";
},
{
angle = 90;
position = "{419, 20}";
}
);
layerId = "3625BED5-4E91-4CFE-A56C-50ECDCDD7956";
name = "Jan 24 18, 22:14";
paths = (
{
closed = 1;
nodes = (
"399 0 LINE SMOOTH",
"410 0 OFFCURVE",
"417 9 OFFCURVE",
"419 20 CURVE SMOOTH",
"535 672 LINE SMOOTH",
"536 678 OFFCURVE",
"537 684 OFFCURVE",
"537 687 CURVE SMOOTH",
"537 693 OFFCURVE",
"534 700 OFFCURVE",
"521 700 CURVE SMOOTH",
"499 700 LINE SMOOTH",
"488 700 OFFCURVE",
"481 691 OFFCURVE",
"479 680 CURVE SMOOTH",
"363 28 LINE SMOOTH",
"362 22 OFFCURVE",
"361 16 OFFCURVE",
"361 13 CURVE SMOOTH",
"361 7 OFFCURVE",
"364 0 OFFCURVE",
"377 0 CURVE SMOOTH"
);
},
{
closed = 1;
nodes = (
"567 219 LINE SMOOTH",
"578 219 OFFCURVE",
"587 228 OFFCURVE",
"587 239 CURVE SMOOTH",
"587 254 LINE SMOOTH",
"587 265 OFFCURVE",
"578 274 OFFCURVE",
"567 274 CURVE SMOOTH",
"60 274 LINE SMOOTH",
"49 274 OFFCURVE",
"40 265 OFFCURVE",
"40 254 CURVE SMOOTH",
"40 239 LINE SMOOTH",
"40 228 OFFCURVE",
"49 219 OFFCURVE",
"60 219 CURVE SMOOTH"
);
},
{
closed = 1;
nodes = (
"164 0 LINE SMOOTH",
"175 0 OFFCURVE",
"182 9 OFFCURVE",
"184 20 CURVE SMOOTH",
"300 672 LINE SMOOTH",
"301 678 OFFCURVE",
"302 684 OFFCURVE",
"302 687 CURVE SMOOTH",
"302 693 OFFCURVE",
"299 700 OFFCURVE",
"286 700 CURVE SMOOTH",
"264 700 LINE SMOOTH",
"253 700 OFFCURVE",
"246 691 OFFCURVE",
"244 680 CURVE SMOOTH",
"128 28 LINE SMOOTH",
"127 22 OFFCURVE",
"126 16 OFFCURVE",
"126 13 CURVE SMOOTH",
"126 7 OFFCURVE",
"129 0 OFFCURVE",
"142 0 CURVE SMOOTH"
);
},
{
closed = 1;
nodes = (
"603 452 LINE SMOOTH",
"614 452 OFFCURVE",
"623 461 OFFCURVE",
"623 472 CURVE SMOOTH",
"623 487 LINE SMOOTH",
"623 498 OFFCURVE",
"614 507 OFFCURVE",
"603 507 CURVE SMOOTH",
"96 507 LINE SMOOTH",
"85 507 OFFCURVE",
"76 498 OFFCURVE",
"76 487 CURVE SMOOTH",
"76 472 LINE SMOOTH",
"76 461 OFFCURVE",
"85 452 OFFCURVE",
"96 452 CURVE SMOOTH"
);
}
);
width = 600;
}
);
leftKerningGroup = numbersign;
rightKerningGroup = numbersign;
unicode = 0023;
},
{
color = 1;
glyphname = dollar;
layers = (
{
components = (
{
name = S;
}
);
layerId = "C836F59C-81CC-4411-94AE-B4087123016A";
paths = (
{
closed = 1;
nodes = (
"312 853 LINE SMOOTH",
"301 853 OFFCURVE",
"292 844 OFFCURVE",
"292 833 CURVE SMOOTH",
"292 672 LINE",
"351 672 LINE",
"351 833 LINE SMOOTH",
"351 844 OFFCURVE",
"342 853 OFFCURVE",
"331 853 CURVE SMOOTH"
);
},
{
closed = 1;
nodes = (
"332 -153 OFFCURVE",
"341 -144 OFFCURVE",
"341 -133 CURVE SMOOTH",
"341 28 LINE",
"282 28 LINE",
"282 -133 LINE SMOOTH",
"282 -144 OFFCURVE",
"291 -153 OFFCURVE",
"302 -153 CURVE SMOOTH",
"321 -153 LINE SMOOTH"
);
}
);
width = 616;
},
{
components = (
{
name = S;
}
);
layerId = "120615CE-BBBA-4703-9D0A-81094A4EB7C9";
paths = (
{
closed = 1;
nodes = (
"296 853 LINE SMOOTH",
"267 853 OFFCURVE",
"245 831 OFFCURVE",
"245 802 CURVE SMOOTH",
"245 624 LINE",
"402 624 LINE",
"402 802 LINE SMOOTH",
"402 831 OFFCURVE",
"380 853 OFFCURVE",
"351 853 CURVE SMOOTH"
);
},
{
closed = 1;
nodes = (
"382 -153 OFFCURVE",
"404 -131 OFFCURVE",
"404 -102 CURVE SMOOTH",
"404 76 LINE",
"247 76 LINE",
"247 -102 LINE SMOOTH",
"247 -131 OFFCURVE",
"269 -153 OFFCURVE",
"298 -153 CURVE SMOOTH",
"353 -153 LINE SMOOTH"
);
}
);
width = 617;
}
);
leftKerningGroup = dollar;
leftMetricsKey = S;
rightKerningGroup = dollar;
rightMetricsKey = S;
unicode = 0024;
},
{
color = 1;
glyphname = percent;
layers = (
{
layerId = "C836F59C-81CC-4411-94AE-B4087123016A";
paths = (
{
closed = 1;
nodes = (
"272 0 LINE SMOOTH",
"284 0 OFFCURVE",
"290 7 OFFCURVE",
"297 17 CURVE SMOOTH",
"757 670 LINE SMOOTH",
"764 680 OFFCURVE",
"765 686 OFFCURVE",
"765 690 CURVE SMOOTH",
"765 695 OFFCURVE",
"763 700 OFFCURVE",
"753 700 CURVE SMOOTH",
"721 700 LINE SMOOTH",
"709 700 OFFCURVE",
"703 693 OFFCURVE",
"696 683 CURVE SMOOTH",
"236 30 LINE SMOOTH",
"229 20 OFFCURVE",
"228 14 OFFCURVE",
"228 10 CURVE SMOOTH",
"228 5 OFFCURVE",
"230 0 OFFCURVE",
"240 0 CURVE SMOOTH"
);
},
{
closed = 1;
nodes = (
"380 338 OFFCURVE",
"462 419 OFFCURVE",
"462 524 CURVE SMOOTH",
"462 629 OFFCURVE",
"380 710 OFFCURVE",
"272 710 CURVE SMOOTH",
"164 710 OFFCURVE",
"82 629 OFFCURVE",
"82 524 CURVE SMOOTH",
"82 419 OFFCURVE",
"164 338 OFFCURVE",
"272 338 CURVE SMOOTH"
);
},
{
closed = 1;
nodes = (
"192 393 OFFCURVE",
"142 443 OFFCURVE",
"142 524 CURVE SMOOTH",
"142 605 OFFCURVE",
"192 655 OFFCURVE",
"272 655 CURVE SMOOTH",
"352 655 OFFCURVE",
"402 605 OFFCURVE",
"402 524 CURVE SMOOTH",
"402 443 OFFCURVE",
"352 393 OFFCURVE",
"272 393 CURVE SMOOTH"
);
},
{
closed = 1;
nodes = (
"829 -10 OFFCURVE",
"911 71 OFFCURVE",
"911 176 CURVE SMOOTH",
"911 281 OFFCURVE",
"829 362 OFFCURVE",
"721 362 CURVE SMOOTH",
"613 362 OFFCURVE",
"531 281 OFFCURVE",
"531 176 CURVE SMOOTH",
"531 71 OFFCURVE",
"613 -10 OFFCURVE",
"721 -10 CURVE SMOOTH"
);
},
{
closed = 1;
nodes = (
"641 45 OFFCURVE",
"591 95 OFFCURVE",
"591 176 CURVE SMOOTH",
"591 257 OFFCURVE",
"641 307 OFFCURVE",
"721 307 CURVE SMOOTH",
"801 307 OFFCURVE",
"851 257 OFFCURVE",
"851 176 CURVE SMOOTH",
"851 95 OFFCURVE",
"801 45 OFFCURVE",
"721 45 CURVE SMOOTH"
);
}
);
width = 993;
},
{
layerId = "120615CE-BBBA-4703-9D0A-81094A4EB7C9";
paths = (
{
closed = 1;
nodes = (
"280 0 LINE SMOOTH",
"309 0 OFFCURVE",
"319 7 OFFCURVE",
"338 34 CURVE SMOOTH",
"769 646 LINE SMOOTH",
"776 656 OFFCURVE",
"779 664 OFFCURVE",
"779 672 CURVE SMOOTH",
"779 690 OFFCURVE",
"766 700 OFFCURVE",
"745 700 CURVE SMOOTH",
"712 700 LINE SMOOTH",
"683 700 OFFCURVE",
"673 693 OFFCURVE",
"654 666 CURVE SMOOTH",
"223 54 LINE SMOOTH",
"216 44 OFFCURVE",
"213 36 OFFCURVE",
"213 28 CURVE SMOOTH",
"213 10 OFFCURVE",
"226 0 OFFCURVE",
"247 0 CURVE SMOOTH"
);
},
{
closed = 1;
nodes = (
"350 338 OFFCURVE",
"432 419 OFFCURVE",
"432 524 CURVE SMOOTH",
"432 629 OFFCURVE",
"350 710 OFFCURVE",
"242 710 CURVE SMOOTH",
"134 710 OFFCURVE",
"52 629 OFFCURVE",
"52 524 CURVE SMOOTH",
"52 419 OFFCURVE",
"134 338 OFFCURVE",
"242 338 CURVE SMOOTH"
);
},
{
closed = 1;
nodes = (
"208 469 OFFCURVE",
"187 490 OFFCURVE",
"187 524 CURVE SMOOTH",
"187 558 OFFCURVE",
"208 579 OFFCURVE",
"242 579 CURVE SMOOTH",
"276 579 OFFCURVE",
"297 558 OFFCURVE",
"297 524 CURVE SMOOTH",
"297 490 OFFCURVE",
"276 469 OFFCURVE",
"242 469 CURVE SMOOTH"
);
},
{
closed = 1;
nodes = (
"858 -10 OFFCURVE",
"940 71 OFFCURVE",
"940 176 CURVE SMOOTH",
"940 281 OFFCURVE",
"858 362 OFFCURVE",
"750 362 CURVE SMOOTH",
"642 362 OFFCURVE",
"560 281 OFFCURVE",
"560 176 CURVE SMOOTH",
"560 71 OFFCURVE",
"642 -10 OFFCURVE",
"750 -10 CURVE SMOOTH"
);
},
{
closed = 1;
nodes = (
"716 121 OFFCURVE",
"695 142 OFFCURVE",
"695 176 CURVE SMOOTH",
"695 210 OFFCURVE",
"716 231 OFFCURVE",
"750 231 CURVE SMOOTH",
"784 231 OFFCURVE",
"805 210 OFFCURVE",
"805 176 CURVE SMOOTH",
"805 142 OFFCURVE",
"784 121 OFFCURVE",
"750 121 CURVE SMOOTH"
);
}
);
width = 992;
}
);
leftKerningGroup = percent;
rightKerningGroup = percent;
unicode = 0025;
},
{
color = 1;
glyphname = ampersand;
layers = (
{
layerId = "C836F59C-81CC-4411-94AE-B4087123016A";
paths = (
{
closed = 1;
nodes = (
"433 -10 OFFCURVE",
"490 93 OFFCURVE",
"542 218 CURVE SMOOTH",
"578 305 OFFCURVE",
"584 317 OFFCURVE",
"598 317 CURVE SMOOTH",
"609 317 OFFCURVE",
"613 307 OFFCURVE",
"613 299 CURVE",
"665 316 LINE",
"665 341 OFFCURVE",
"648 372 OFFCURVE",
"606 372 CURVE SMOOTH",
"554 372 OFFCURVE",
"527 331 OFFCURVE",
"491 244 CURVE SMOOTH",
"440 121 OFFCURVE",
"397 45 OFFCURVE",
"281 45 CURVE SMOOTH",
"201 45 OFFCURVE",
"145 91 OFFCURVE",
"145 157 CURVE SMOOTH",
"145 231 OFFCURVE",
"182 264 OFFCURVE",
"349 377 CURVE SMOOTH",
"485 469 OFFCURVE",
"494 514 OFFCURVE",
"494 569 CURVE SMOOTH",
"494 651 OFFCURVE",
"424 710 OFFCURVE",
"324 710 CURVE SMOOTH",
"210 710 OFFCURVE",
"137 643 OFFCURVE",
"137 549 CURVE SMOOTH",
"137 474 OFFCURVE",
"202 412 OFFCURVE",
"315 285 CURVE SMOOTH",
"559 11 LINE SMOOTH",
"567 2 OFFCURVE",
"574 0 OFFCURVE",
"586 0 CURVE SMOOTH",
"617 0 LINE SMOOTH",
"625 0 OFFCURVE",
"629 5 OFFCURVE",
"629 12 CURVE SMOOTH",
"629 17 OFFCURVE",
"628 20 OFFCURVE",
"620 29 CURVE SMOOTH",
"358 323 LINE SMOOTH",
"236 460 OFFCURVE",
"197 493 OFFCURVE",
"197 549 CURVE SMOOTH",
"197 611 OFFCURVE",
"240 655 OFFCURVE",
"324 655 CURVE SMOOTH",
"389 655 OFFCURVE",
"434 620 OFFCURVE",
"434 569 CURVE SMOOTH",
"434 524 OFFCURVE",
"420 494 OFFCURVE",
"309 419 CURVE SMOOTH",
"161 319 OFFCURVE",
"85 260 OFFCURVE",
"85 160 CURVE SMOOTH",
"85 62 OFFCURVE",
"168 -10 OFFCURVE",
"281 -10 CURVE SMOOTH"
);
},
{
closed = 1;
nodes = (
"647 259 OFFCURVE",
"665 280 OFFCURVE",
"665 316 CURVE",
"620 347 LINE",
"594 347 OFFCURVE",
"575 328 OFFCURVE",
"575 302 CURVE SMOOTH",
"575 278 OFFCURVE",
"593 259 OFFCURVE",
"617 259 CURVE SMOOTH"
);
}
);
width = 741;
},
{
layerId = "120615CE-BBBA-4703-9D0A-81094A4EB7C9";
paths = (
{
closed = 1;
nodes = (
"402 -10 OFFCURVE",
"471 69 OFFCURVE",
"546 220 CURVE SMOOTH",
"576 281 OFFCURVE",
"588 293 OFFCURVE",
"603 293 CURVE SMOOTH",
"615 293 OFFCURVE",
"626 287 OFFCURVE",
"626 271 CURVE",
"730 332 LINE",
"730 392 OFFCURVE",
"692 430 OFFCURVE",
"626 430 CURVE SMOOTH",
"574 430 OFFCURVE",
"543 407 OFFCURVE",
"464 301 CURVE SMOOTH",
"347 144 OFFCURVE",
"323 118 OFFCURVE",
"276 118 CURVE SMOOTH",
"238 118 OFFCURVE",
"218 139 OFFCURVE",
"218 173 CURVE SMOOTH",
"218 207 OFFCURVE",
"235 224 OFFCURVE",
"354 315 CURVE SMOOTH",
"481 412 OFFCURVE",
"527 478 OFFCURVE",
"527 544 CURVE SMOOTH",
"527 644 OFFCURVE",
"447 710 OFFCURVE",
"327 710 CURVE SMOOTH",
"191 710 OFFCURVE",
"99 638 OFFCURVE",
"99 530 CURVE SMOOTH",
"99 441 OFFCURVE",
"133 387 OFFCURVE",
"255 265 CURVE SMOOTH",
"483 37 LINE SMOOTH",
"512 8 OFFCURVE",
"531 0 OFFCURVE",
"572 0 CURVE SMOOTH",
"637 0 LINE SMOOTH",
"667 0 OFFCURVE",
"690 19 OFFCURVE",
"690 44 CURVE SMOOTH",
"690 57 OFFCURVE",
"686 66 OFFCURVE",
"675 77 CURVE SMOOTH",
"359 393 LINE SMOOTH",
"283 469 OFFCURVE",
"266 494 OFFCURVE",
"266 530 CURVE SMOOTH",
"266 562 OFFCURVE",
"287 582 OFFCURVE",
"322 582 CURVE SMOOTH",
"351 582 OFFCURVE",
"369 566 OFFCURVE",
"369 541 CURVE SMOOTH",
"369 511 OFFCURVE",
"351 489 OFFCURVE",
"288 441 CURVE SMOOTH",
"105 301 OFFCURVE",
"60 247 OFFCURVE",
"60 160 CURVE SMOOTH",
"60 54 OFFCURVE",
"140 -10 OFFCURVE",
"271 -10 CURVE SMOOTH"
);
},
{
closed = 1;
nodes = (
"690 229 OFFCURVE",
"730 271 OFFCURVE",
"730 332 CURVE",
"632 415 LINE",
"576 415 OFFCURVE",
"534 373 OFFCURVE",
"534 317 CURVE SMOOTH",
"534 264 OFFCURVE",
"573 229 OFFCURVE",
"632 229 CURVE SMOOTH"
);
}
);
width = 781;
},
{
associatedMasterId = "C836F59C-81CC-4411-94AE-B4087123016A";
layerId = "F63215CF-0A61-49F7-9C15-FFE22A52181C";
name = "Jan 29 18, 11:47";
paths = (
{
closed = 1;
nodes = (
"376 -10 OFFCURVE",
"457 101 OFFCURVE",
"515 187 CURVE SMOOTH",
"569 267 OFFCURVE",
"584 288 OFFCURVE",
"598 288 CURVE SMOOTH",
"609 288 OFFCURVE",
"613 278 OFFCURVE",
"613 270 CURVE",
"673 287 LINE",
"673 306 OFFCURVE",
"658 343 OFFCURVE",
"611 343 CURVE SMOOTH",
"558 343 OFFCURVE",
"531 308 OFFCURVE",
"467 213 CURVE SMOOTH",
"413 133 OFFCURVE",
"351 45 OFFCURVE",
"258 45 CURVE SMOOTH",
"181 45 OFFCURVE",
"135 88 OFFCURVE",
"135 154 CURVE SMOOTH",
"135 227 OFFCURVE",
"169 264 OFFCURVE",
"338 376 CURVE SMOOTH",
"477 468 OFFCURVE",
"503 511 OFFCURVE",
"503 571 CURVE SMOOTH",
"503 651 OFFCURVE",
"436 710 OFFCURVE",
"330 710 CURVE SMOOTH",
"226 710 OFFCURVE",
"150 643 OFFCURVE",
"150 549 CURVE SMOOTH",
"150 473 OFFCURVE",
"182 412 OFFCURVE",
"295 285 CURVE SMOOTH",
"548 0 LINE",
"626 0 LINE",
"339 323 LINE SMOOTH",
"257 416 OFFCURVE",
"210 480 OFFCURVE",
"210 549 CURVE SMOOTH",
"210 611 OFFCURVE",
"256 655 OFFCURVE",
"330 655 CURVE SMOOTH",
"401 655 OFFCURVE",
"443 620 OFFCURVE",
"443 569 CURVE SMOOTH",
"443 524 OFFCURVE",
"414 497 OFFCURVE",
"298 420 CURVE SMOOTH",
"149 321 OFFCURVE",
"75 257 OFFCURVE",
"75 157 CURVE SMOOTH",
"75 59 OFFCURVE",
"148 -10 OFFCURVE",
"258 -10 CURVE SMOOTH"
);
},
{
closed = 1;
nodes = (
"655 230 OFFCURVE",
"673 251 OFFCURVE",
"673 287 CURVE",
"628 318 LINE",
"602 318 OFFCURVE",
"583 299 OFFCURVE",
"583 273 CURVE SMOOTH",
"583 249 OFFCURVE",
"601 230 OFFCURVE",
"625 230 CURVE SMOOTH"
);
}
);
width = 748;
}
);
leftKerningGroup = ampersand;
rightKerningGroup = ampersand;
unicode = 0026;
},
{
color = 1;
glyphname = quotesingle;
layers = (
{
layerId = "C836F59C-81CC-4411-94AE-B4087123016A";
paths = (
{
closed = 1;
nodes = (
"144 439 LINE SMOOTH",
"153 439 OFFCURVE",
"161 441 OFFCURVE",
"163 456 CURVE SMOOTH",
"180 587 OFFCURVE",
"187 645 OFFCURVE",
"187 663 CURVE SMOOTH",
"187 696 OFFCURVE",
"170 710 OFFCURVE",
"142 710 CURVE SMOOTH",
"114 710 OFFCURVE",
"97 696 OFFCURVE",
"97 663 CURVE SMOOTH",
"97 645 OFFCURVE",
"104 587 OFFCURVE",
"121 456 CURVE SMOOTH",
"123 441 OFFCURVE",
"131 439 OFFCURVE",
"140 439 CURVE SMOOTH"
);
}
);
width = 284;
},
{
layerId = "120615CE-BBBA-4703-9D0A-81094A4EB7C9";
paths = (
{
closed = 1;
nodes = (
"189 294 LINE SMOOTH",
"212 294 OFFCURVE",
"231 305 OFFCURVE",
"237 334 CURVE SMOOTH",
"275 519 OFFCURVE",
"285 575 OFFCURVE",
"285 609 CURVE SMOOTH",
"285 672 OFFCURVE",
"241 710 OFFCURVE",
"173 710 CURVE SMOOTH",
"105 710 OFFCURVE",
"61 672 OFFCURVE",
"61 609 CURVE SMOOTH",
"61 575 OFFCURVE",
"71 519 OFFCURVE",
"109 334 CURVE SMOOTH",
"115 305 OFFCURVE",
"134 294 OFFCURVE",
"157 294 CURVE SMOOTH"
);
}
);
width = 346;
}
);
leftKerningGroup = quotesingle;
rightKerningGroup = quotesingle;
unicode = 0027;
},
{
color = 1;
glyphname = parenleft;
layers = (
{
background = {
paths = (
{
closed = 1;
nodes = (
"355 727 OFFCURVE",
"358 731 OFFCURVE",
"358 736 CURVE SMOOTH",
"358 742 OFFCURVE",
"357 747 OFFCURVE",
"348 758 CURVE SMOOTH",
"340 767 OFFCURVE",
"335 770 OFFCURVE",
"328 770 CURVE SMOOTH",
"325 770 OFFCURVE",
"321 769 OFFCURVE",
"317 766 CURVE SMOOTH",
"212 687 OFFCURVE",
"63 532 OFFCURVE",
"63 255 CURVE",
"122 255 LINE",
"122 496 OFFCURVE",
"249 631 OFFCURVE",
"347 720 CURVE SMOOTH"
);
},
{
closed = 1;
nodes = (
"249 -121 OFFCURVE",
"122 14 OFFCURVE",
"122 255 CURVE",
"63 255 LINE",
"63 -22 OFFCURVE",
"212 -177 OFFCURVE",
"317 -256 CURVE SMOOTH",
"321 -259 OFFCURVE",
"325 -260 OFFCURVE",
"328 -260 CURVE SMOOTH",
"335 -260 OFFCURVE",
"339 -255 OFFCURVE",
"344 -249 CURVE SMOOTH",
"354 -237 LINE SMOOTH",
"361 -228 OFFCURVE",
"358 -220 OFFCURVE",
"347 -210 CURVE SMOOTH"
);
}
);
};
layerId = "C836F59C-81CC-4411-94AE-B4087123016A";
paths = (
{
closed = 1;
nodes = (
"345 -260 OFFCURVE",
"358 -245 OFFCURVE",
"358 -230 CURVE SMOOTH",
"358 -224 OFFCURVE",
"356 -220 OFFCURVE",
"347 -212 CURVE SMOOTH",
"195 -77 OFFCURVE",
"122 75 OFFCURVE",
"122 255 CURVE SMOOTH",
"122 435 OFFCURVE",
"195 587 OFFCURVE",
"347 722 CURVE SMOOTH",
"356 730 OFFCURVE",
"358 734 OFFCURVE",
"358 740 CURVE SMOOTH",
"358 755 OFFCURVE",
"345 770 OFFCURVE",
"329 770 CURVE SMOOTH",
"325 770 OFFCURVE",
"321 769 OFFCURVE",
"317 766 CURVE SMOOTH",
"155 644 OFFCURVE",
"63 459 OFFCURVE",
"63 255 CURVE SMOOTH",
"63 51 OFFCURVE",
"155 -134 OFFCURVE",
"317 -256 CURVE SMOOTH",
"321 -259 OFFCURVE",
"325 -260 OFFCURVE",
"329 -260 CURVE SMOOTH"
);
}
);
width = 402;
},
{
background = {
paths = (
{
closed = 1;
nodes = (
"421 648 OFFCURVE",
"433 665 OFFCURVE",
"433 685 CURVE SMOOTH",
"433 691 OFFCURVE",
"432 698 OFFCURVE",
"429 704 CURVE SMOOTH",
"415 738 LINE SMOOTH",
"407 757 OFFCURVE",
"389 770 OFFCURVE",
"369 770 CURVE SMOOTH",
"362 770 OFFCURVE",
"356 769 OFFCURVE",
"349 766 CURVE SMOOTH",
"211 697 OFFCURVE",
"55 535 OFFCURVE",
"55 249 CURVE",
"206 249 LINE",
"206 444 OFFCURVE",
"283 577 OFFCURVE",
"401 638 CURVE SMOOTH"
);
}
);
};
layerId = "120615CE-BBBA-4703-9D0A-81094A4EB7C9";
paths = (
{
closed = 1;
nodes = (
"360 -260 OFFCURVE",
"400 -217 OFFCURVE",
"400 -186 CURVE SMOOTH",
"400 -167 OFFCURVE",
"378 -142 OFFCURVE",
"347 -108 CURVE SMOOTH",
"283 -38 OFFCURVE",
"206 74 OFFCURVE",
"206 255 CURVE SMOOTH",
"206 436 OFFCURVE",
"283 548 OFFCURVE",
"347 618 CURVE SMOOTH",
"378 652 OFFCURVE",
"400 677 OFFCURVE",
"400 696 CURVE SMOOTH",
"400 727 OFFCURVE",
"360 770 OFFCURVE",
"323 770 CURVE SMOOTH",
"316 770 OFFCURVE",
"306 767 OFFCURVE",
"295 762 CURVE SMOOTH",
"211 722 OFFCURVE",
"39 532 OFFCURVE",
"39 255 CURVE SMOOTH",
"39 -22 OFFCURVE",
"211 -212 OFFCURVE",
"295 -252 CURVE SMOOTH",
"306 -257 OFFCURVE",
"316 -260 OFFCURVE",
"323 -260 CURVE SMOOTH"
);
}
);
width = 426;
}
);
leftKerningGroup = parenleft;
rightKerningGroup = parenleft;
unicode = 0028;
},
{
color = 1;
glyphname = asterisk;
layers = (
{
background = {
paths = (
{
closed = 1;
nodes = (
"271 516 LINE",
"263 596 OFFCURVE",
"257 679 OFFCURVE",
"257 709 CURVE SMOOTH",
"257 726 OFFCURVE",
"269 740 OFFCURVE",
"286 740 CURVE SMOOTH",
"304 740 OFFCURVE",
"316 726 OFFCURVE",
"316 709 CURVE SMOOTH",
"316 679 OFFCURVE",
"310 596 OFFCURVE",
"302 516 CURVE"
);
},
{
closed = 1;
nodes = (
"281 501 LINE",
"201 517 OFFCURVE",
"122 537 OFFCURVE",
"93 546 CURVE SMOOTH",
"80 550 OFFCURVE",
"71 561 OFFCURVE",
"71 574 CURVE SMOOTH",
"71 577 OFFCURVE",
"72 581 OFFCURVE",
"73 584 CURVE SMOOTH",
"74 587 LINE SMOOTH",
"78 599 OFFCURVE",
"89 604 OFFCURVE",
"101 604 CURVE SMOOTH",
"104 604 OFFCURVE",
"108 604 OFFCURVE",
"111 603 CURVE SMOOTH",
"141 595 OFFCURVE",
"218 562 OFFCURVE",
"291 529 CURVE"
);
},
{
closed = 1;
nodes = (
"294 497 LINE",
"248 432 OFFCURVE",
"200 363 OFFCURVE",
"181 341 CURVE",
"171 329 OFFCURVE",
"151 324 OFFCURVE",
"139 336 CURVE",
"138 336 LINE",
"125 347 OFFCURVE",
"126 365 OFFCURVE",
"136 379 CURVE",
"155 403 OFFCURVE",
"213 462 OFFCURVE",
"272 518 CURVE"
);
},
{
closed = 1;
nodes = (
"360 462 OFFCURVE",
"418 403 OFFCURVE",
"437 379 CURVE",
"447 365 OFFCURVE",
"448 347 OFFCURVE",
"435 336 CURVE",
"434 336 LINE",
"422 324 OFFCURVE",
"402 329 OFFCURVE",
"392 341 CURVE",
"373 363 OFFCURVE",
"325 432 OFFCURVE",
"279 497 CURVE",
"301 518 LINE"
);
},
{
closed = 1;
nodes = (
"355 562 OFFCURVE",
"433 593 OFFCURVE",
"462 603 CURVE SMOOTH",
"465 604 OFFCURVE",
"469 604 OFFCURVE",
"472 604 CURVE SMOOTH",
"484 604 OFFCURVE",
"495 599 OFFCURVE",
"499 587 CURVE SMOOTH",
"500 584 LINE SMOOTH",
"501 581 OFFCURVE",
"502 577 OFFCURVE",
"502 574 CURVE SMOOTH",
"502 561 OFFCURVE",
"493 550 OFFCURVE",
"480 546 CURVE SMOOTH",
"451 537 OFFCURVE",
"372 517 OFFCURVE",
"292 501 CURVE",
"282 529 LINE"
);
}
);
};
layerId = "C836F59C-81CC-4411-94AE-B4087123016A";
paths = (
{
closed = 1;
nodes = (
"453 614 OFFCURVE",
"339 565 OFFCURVE",
"287 541 CURVE",
"302 527 LINE",
"310 606 OFFCURVE",
"316 689 OFFCURVE",
"316 719 CURVE SMOOTH",
"316 736 OFFCURVE",
"304 750 OFFCURVE",
"286 750 CURVE SMOOTH",
"269 750 OFFCURVE",
"257 736 OFFCURVE",
"257 719 CURVE SMOOTH",
"257 689 OFFCURVE",
"263 606 OFFCURVE",
"271 527 CURVE",
"286 541 LINE",
"224 569 OFFCURVE",
"124 614 OFFCURVE",
"101 614 CURVE SMOOTH",
"80 614 OFFCURVE",
"71 597 OFFCURVE",
"71 584 CURVE SMOOTH",
"71 571 OFFCURVE",
"80 560 OFFCURVE",
"93 556 CURVE SMOOTH",
"122 547 OFFCURVE",
"202 527 OFFCURVE",
"281 511 CURVE",
"275 531 LINE",
"211 470 OFFCURVE",
"128 394 OFFCURVE",
"128 367 CURVE SMOOTH",
"128 352 OFFCURVE",
"143 339 OFFCURVE",
"156 339 CURVE SMOOTH",
"186 339 OFFCURVE",
"230 419 OFFCURVE",
"303 519 CURVE",
"270 519 LINE",
"341 419 OFFCURVE",
"387 339 OFFCURVE",
"417 339 CURVE SMOOTH",
"430 339 OFFCURVE",
"445 352 OFFCURVE",
"445 367 CURVE SMOOTH",
"445 394 OFFCURVE",
"362 470 OFFCURVE",
"298 531 CURVE",
"292 511 LINE",
"371 527 OFFCURVE",
"451 547 OFFCURVE",
"480 556 CURVE SMOOTH",
"493 560 OFFCURVE",
"502 571 OFFCURVE",
"502 584 CURVE SMOOTH",
"502 600 OFFCURVE",
"491 614 OFFCURVE",
"472 614 CURVE SMOOTH"
);
}
);
width = 574;
},
{
background = {
paths = (
{
closed = 1;
nodes = (
"324 475 LINE",
"362 571 OFFCURVE",
"384 651 OFFCURVE",
"384 689 CURVE SMOOTH",
"384 718 OFFCURVE",
"362 740 OFFCURVE",
"333 740 CURVE SMOOTH",
"268 740 LINE SMOOTH",
"239 740 OFFCURVE",
"217 718 OFFCURVE",
"217 689 CURVE SMOOTH",
"217 651 OFFCURVE",
"239 571 OFFCURVE",
"277 475 CURVE"
);
},
{
closed = 1;
nodes = (
"321 510 LINE",
"240 572 OFFCURVE",
"170 619 OFFCURVE",
"133 626 CURVE SMOOTH",
"128 627 OFFCURVE",
"123 628 OFFCURVE",
"118 628 CURVE SMOOTH",
"71 628 OFFCURVE",
"49 559 OFFCURVE",
"49 515 CURVE SMOOTH",
"49 493 OFFCURVE",
"64 472 OFFCURVE",
"87 465 CURVE SMOOTH",
"123 454 OFFCURVE",
"205 454 OFFCURVE",
"308 465 CURVE"
);
},
{
closed = 1;
nodes = (
"280 504 LINE",
"196 447 OFFCURVE",
"133 394 OFFCURVE",
"112 362 CURVE SMOOTH",
"106 353 OFFCURVE",
"103 343 OFFCURVE",
"103 333 CURVE SMOOTH",
"103 317 OFFCURVE",
"110 301 OFFCURVE",
"125 291 CURVE SMOOTH",
"178 254 LINE SMOOTH",
"187 248 OFFCURVE",
"196 245 OFFCURVE",
"206 245 CURVE SMOOTH",
"223 245 OFFCURVE",
"239 254 OFFCURVE",
"250 269 CURVE SMOOTH",
"272 300 OFFCURVE",
"296 378 OFFCURVE",
"319 478 CURVE"
);
},
{
closed = 1;
nodes = (
"396 454 OFFCURVE",
"478 453 OFFCURVE",
"514 465 CURVE SMOOTH",
"537 473 OFFCURVE",
"552 493 OFFCURVE",
"552 515 CURVE SMOOTH",
"552 564 OFFCURVE",
"528 628 OFFCURVE",
"483 628 CURVE SMOOTH",
"478 628 OFFCURVE",
"473 627 OFFCURVE",
"468 626 CURVE SMOOTH",
"431 619 OFFCURVE",
"361 572 OFFCURVE",
"280 510 CURVE",
"293 465 LINE"
);
},
{
closed = 1;
nodes = (
"305 378 OFFCURVE",
"329 300 OFFCURVE",
"351 269 CURVE SMOOTH",
"362 254 OFFCURVE",
"378 245 OFFCURVE",
"395 245 CURVE SMOOTH",
"405 245 OFFCURVE",
"414 248 OFFCURVE",
"423 254 CURVE SMOOTH",
"476 291 LINE SMOOTH",
"491 301 OFFCURVE",
"498 317 OFFCURVE",
"498 333 CURVE SMOOTH",
"498 343 OFFCURVE",
"495 353 OFFCURVE",
"489 362 CURVE SMOOTH",
"468 394 OFFCURVE",
"405 447 OFFCURVE",
"321 504 CURVE",
"282 478 LINE"
);
}
);
};
layerId = "120615CE-BBBA-4703-9D0A-81094A4EB7C9";
paths = (
{
closed = 1;
nodes = (
"439 635 OFFCURVE",
"356 574 OFFCURVE",
"298 529 CURVE",
"334 502 LINE",
"364 591 OFFCURVE",
"384 661 OFFCURVE",
"384 696 CURVE SMOOTH",
"384 735 OFFCURVE",
"359 750 OFFCURVE",
"301 750 CURVE SMOOTH",
"245 750 OFFCURVE",
"217 737 OFFCURVE",
"217 696 CURVE SMOOTH",
"217 661 OFFCURVE",
"237 591 OFFCURVE",
"267 502 CURVE SMOOTH",
"303 529 LINE",
"249 571 OFFCURVE",
"163 635 OFFCURVE",
"118 635 CURVE SMOOTH",
"71 635 OFFCURVE",
"49 566 OFFCURVE",
"49 522 CURVE SMOOTH",
"49 500 OFFCURVE",
"64 479 OFFCURVE",
"87 472 CURVE SMOOTH",
"120 462 OFFCURVE",
"196 460 OFFCURVE",
"288 471 CURVE",
"274 508 LINE",
"198 455 OFFCURVE",
"103 386 OFFCURVE",
"103 340 CURVE SMOOTH",
"103 305 OFFCURVE",
"172 252 OFFCURVE",
"206 252 CURVE SMOOTH",
"266 252 OFFCURVE",
"291 365 OFFCURVE",
"320 481 CURVE",
"283 481 LINE",
"309 372 OFFCURVE",
"334 252 OFFCURVE",
"395 252 CURVE SMOOTH",
"426 252 OFFCURVE",
"498 302 OFFCURVE",
"498 340 CURVE SMOOTH",
"498 385 OFFCURVE",
"406 452 OFFCURVE",
"327 508 CURVE",
"313 471 LINE",
"405 461 OFFCURVE",
"481 461 OFFCURVE",
"514 472 CURVE SMOOTH",
"537 480 OFFCURVE",
"552 500 OFFCURVE",
"552 522 CURVE SMOOTH",
"552 571 OFFCURVE",
"528 635 OFFCURVE",
"483 635 CURVE SMOOTH"
);
}
);
width = 601;
},
{
associatedMasterId = "C836F59C-81CC-4411-94AE-B4087123016A";
layerId = "84BC37AD-864C-4CA4-A490-464136B2707A";
name = "Jan 22 18, 14:04";
paths = (
{
closed = 1;
nodes = (
"215 516 LINE",
"207 596 OFFCURVE",
"201 679 OFFCURVE",
"201 709 CURVE",
"201 726 OFFCURVE",
"213 740 OFFCURVE",
"230 740 CURVE",
"231 740 LINE",
"248 740 OFFCURVE",
"260 726 OFFCURVE",
"260 709 CURVE",
"260 679 OFFCURVE",
"254 596 OFFCURVE",
"246 516 CURVE"
);
},
{
closed = 1;
nodes = (
"225 501 LINE",
"146 518 OFFCURVE",
"65 537 OFFCURVE",
"37 546 CURVE",
"22 552 OFFCURVE",
"10 567 OFFCURVE",
"17 584 CURVE",
"17 585 LINE",
"22 601 OFFCURVE",
"39 607 OFFCURVE",
"55 603 CURVE",
"84 594 OFFCURVE",
"162 562 OFFCURVE",
"235 529 CURVE"
);
},
{
closed = 1;
nodes = (
"299 561 OFFCURVE",
"376 594 OFFCURVE",
"406 603 CURVE",
"422 607 OFFCURVE",
"439 600 OFFCURVE",
"444 584 CURVE",
"444 583 LINE",
"451 567 OFFCURVE",
"439 551 OFFCURVE",
"424 546 CURVE",
"396 537 OFFCURVE",
"315 518 OFFCURVE",
"236 500 CURVE",
"226 529 LINE"
);
},
{
closed = 1;
nodes = (
"238 497 LINE",
"192 432 OFFCURVE",
"144 363 OFFCURVE",
"125 341 CURVE",
"115 329 OFFCURVE",
"95 324 OFFCURVE",
"83 336 CURVE",
"82 336 LINE",
"69 347 OFFCURVE",
"70 365 OFFCURVE",
"80 379 CURVE",
"99 403 OFFCURVE",
"157 462 OFFCURVE",
"216 518 CURVE"
);
},
{
closed = 1;
nodes = (
"304 462 OFFCURVE",
"362 403 OFFCURVE",
"381 379 CURVE",
"391 365 OFFCURVE",
"392 347 OFFCURVE",
"379 336 CURVE",
"378 336 LINE",
"366 324 OFFCURVE",
"346 329 OFFCURVE",
"336 341 CURVE",
"317 363 OFFCURVE",
"269 432 OFFCURVE",
"223 497 CURVE",
"245 518 LINE"
);
}
);
width = 600;
},
{
associatedMasterId = "120615CE-BBBA-4703-9D0A-81094A4EB7C9";
background = {
paths = (
{
closed = 1;
nodes = (
"334 475 LINE",
"372 571 OFFCURVE",
"394 651 OFFCURVE",
"394 689 CURVE SMOOTH",
"394 718 OFFCURVE",
"372 740 OFFCURVE",
"343 740 CURVE SMOOTH",
"278 740 LINE SMOOTH",
"249 740 OFFCURVE",
"227 718 OFFCURVE",
"227 689 CURVE SMOOTH",
"227 651 OFFCURVE",
"249 571 OFFCURVE",
"287 475 CURVE"
);
},
{
closed = 1;
nodes = (
"331 510 LINE",
"250 572 OFFCURVE",
"180 619 OFFCURVE",
"143 626 CURVE SMOOTH",
"138 627 OFFCURVE",
"133 628 OFFCURVE",
"128 628 CURVE SMOOTH",
"81 628 OFFCURVE",
"59 559 OFFCURVE",
"59 515 CURVE SMOOTH",
"59 493 OFFCURVE",
"74 472 OFFCURVE",
"97 465 CURVE SMOOTH",
"133 454 OFFCURVE",
"215 454 OFFCURVE",
"318 465 CURVE"
);
},
{
closed = 1;
nodes = (
"290 504 LINE",
"206 447 OFFCURVE",
"143 394 OFFCURVE",
"122 362 CURVE SMOOTH",
"116 353 OFFCURVE",
"113 343 OFFCURVE",
"113 333 CURVE SMOOTH",
"113 317 OFFCURVE",
"120 301 OFFCURVE",
"135 291 CURVE SMOOTH",
"188 254 LINE SMOOTH",
"197 248 OFFCURVE",
"206 245 OFFCURVE",
"216 245 CURVE SMOOTH",
"233 245 OFFCURVE",
"249 254 OFFCURVE",
"260 269 CURVE SMOOTH",
"282 300 OFFCURVE",
"306 378 OFFCURVE",
"329 478 CURVE"
);
},
{
closed = 1;
nodes = (
"406 454 OFFCURVE",
"488 453 OFFCURVE",
"524 465 CURVE SMOOTH",
"547 473 OFFCURVE",
"562 493 OFFCURVE",
"562 515 CURVE SMOOTH",
"562 564 OFFCURVE",
"538 628 OFFCURVE",
"493 628 CURVE SMOOTH",
"488 628 OFFCURVE",
"483 627 OFFCURVE",
"478 626 CURVE SMOOTH",
"441 619 OFFCURVE",
"371 572 OFFCURVE",
"290 510 CURVE",
"303 465 LINE"
);
},
{
closed = 1;
nodes = (
"315 378 OFFCURVE",
"339 300 OFFCURVE",
"361 269 CURVE SMOOTH",
"372 254 OFFCURVE",
"388 245 OFFCURVE",
"405 245 CURVE SMOOTH",
"415 245 OFFCURVE",
"424 248 OFFCURVE",
"433 254 CURVE SMOOTH",
"486 291 LINE SMOOTH",
"501 301 OFFCURVE",
"508 317 OFFCURVE",
"508 333 CURVE SMOOTH",
"508 343 OFFCURVE",
"505 353 OFFCURVE",
"499 362 CURVE SMOOTH",
"478 394 OFFCURVE",
"415 447 OFFCURVE",
"331 504 CURVE",
"292 478 LINE"
);
}
);
};
guideLines = (
{
angle = 90;
position = "{505, 1038}";
},
{
angle = 90;
position = "{560, 804}";
},
{
angle = 90;
position = "{394, 689}";
}
);
layerId = "4529F660-60D8-4AD3-9BEB-7B550A7E3DCC";
name = "Jan 22 18, 14:11";
paths = (
{
closed = 1;
nodes = (
"334 482 LINE",
"372 578 OFFCURVE",
"394 658 OFFCURVE",
"394 696 CURVE SMOOTH",
"394 735 OFFCURVE",
"369 750 OFFCURVE",
"311 750 CURVE SMOOTH",
"255 750 OFFCURVE",
"227 737 OFFCURVE",
"227 696 CURVE SMOOTH",
"227 658 OFFCURVE",
"249 578 OFFCURVE",
"287 482 CURVE"
);
},
{
closed = 1;
nodes = (
"331 517 LINE",
"250 579 OFFCURVE",
"180 626 OFFCURVE",
"143 633 CURVE SMOOTH",
"138 634 OFFCURVE",
"133 635 OFFCURVE",
"128 635 CURVE SMOOTH",
"81 635 OFFCURVE",
"59 566 OFFCURVE",
"59 522 CURVE SMOOTH",
"59 500 OFFCURVE",
"74 479 OFFCURVE",
"97 472 CURVE SMOOTH",
"133 461 OFFCURVE",
"215 461 OFFCURVE",
"318 472 CURVE"
);
},
{
closed = 1;
nodes = (
"290 511 LINE",
"206 454 OFFCURVE",
"143 401 OFFCURVE",
"122 369 CURVE SMOOTH",
"116 360 OFFCURVE",
"113 350 OFFCURVE",
"113 340 CURVE SMOOTH",
"113 305 OFFCURVE",
"182 252 OFFCURVE",
"216 252 CURVE SMOOTH",
"233 252 OFFCURVE",
"249 261 OFFCURVE",
"260 276 CURVE SMOOTH",
"282 307 OFFCURVE",
"306 385 OFFCURVE",
"329 485 CURVE"
);
},
{
closed = 1;
nodes = (
"406 461 OFFCURVE",
"488 460 OFFCURVE",
"524 472 CURVE SMOOTH",
"547 480 OFFCURVE",
"562 500 OFFCURVE",
"562 522 CURVE SMOOTH",
"562 571 OFFCURVE",
"538 635 OFFCURVE",
"493 635 CURVE SMOOTH",
"488 635 OFFCURVE",
"483 634 OFFCURVE",
"478 633 CURVE SMOOTH",
"441 626 OFFCURVE",
"371 579 OFFCURVE",
"290 517 CURVE",
"303 472 LINE"
);
},
{
closed = 1;
nodes = (
"315 385 OFFCURVE",
"339 307 OFFCURVE",
"361 276 CURVE SMOOTH",
"372 261 OFFCURVE",
"388 252 OFFCURVE",
"405 252 CURVE SMOOTH",
"436 252 OFFCURVE",
"508 302 OFFCURVE",
"508 340 CURVE SMOOTH",
"508 350 OFFCURVE",
"505 360 OFFCURVE",
"499 369 CURVE SMOOTH",
"478 401 OFFCURVE",
"415 454 OFFCURVE",
"331 511 CURVE",
"292 485 LINE"
);
}
);
width = 600;
},
{
associatedMasterId = "120615CE-BBBA-4703-9D0A-81094A4EB7C9";
background = {
paths = (
{
closed = 1;
nodes = (
"334 475 LINE",
"372 571 OFFCURVE",
"394 651 OFFCURVE",
"394 689 CURVE SMOOTH",
"394 718 OFFCURVE",
"372 740 OFFCURVE",
"343 740 CURVE SMOOTH",
"278 740 LINE SMOOTH",
"249 740 OFFCURVE",
"227 718 OFFCURVE",
"227 689 CURVE SMOOTH",
"227 651 OFFCURVE",
"249 571 OFFCURVE",
"287 475 CURVE"
);
},
{
closed = 1;
nodes = (
"331 510 LINE",
"250 572 OFFCURVE",
"180 619 OFFCURVE",
"143 626 CURVE SMOOTH",
"138 627 OFFCURVE",
"133 628 OFFCURVE",
"128 628 CURVE SMOOTH",
"81 628 OFFCURVE",
"59 559 OFFCURVE",
"59 515 CURVE SMOOTH",
"59 493 OFFCURVE",
"74 472 OFFCURVE",
"97 465 CURVE SMOOTH",
"133 454 OFFCURVE",
"215 454 OFFCURVE",
"318 465 CURVE"
);
},
{
closed = 1;
nodes = (
"290 504 LINE",
"206 447 OFFCURVE",
"143 394 OFFCURVE",
"122 362 CURVE SMOOTH",
"116 353 OFFCURVE",
"113 343 OFFCURVE",
"113 333 CURVE SMOOTH",
"113 317 OFFCURVE",
"120 301 OFFCURVE",
"135 291 CURVE SMOOTH",
"188 254 LINE SMOOTH",
"197 248 OFFCURVE",
"206 245 OFFCURVE",
"216 245 CURVE SMOOTH",
"233 245 OFFCURVE",
"249 254 OFFCURVE",
"260 269 CURVE SMOOTH",
"282 300 OFFCURVE",
"306 378 OFFCURVE",
"329 478 CURVE"
);
},
{
closed = 1;
nodes = (
"406 454 OFFCURVE",
"488 453 OFFCURVE",
"524 465 CURVE SMOOTH",
"547 473 OFFCURVE",
"562 493 OFFCURVE",
"562 515 CURVE SMOOTH",
"562 564 OFFCURVE",
"538 628 OFFCURVE",
"493 628 CURVE SMOOTH",
"488 628 OFFCURVE",
"483 627 OFFCURVE",
"478 626 CURVE SMOOTH",
"441 619 OFFCURVE",
"371 572 OFFCURVE",
"290 510 CURVE",
"303 465 LINE"
);
},
{
closed = 1;
nodes = (
"315 378 OFFCURVE",
"339 300 OFFCURVE",
"361 269 CURVE SMOOTH",
"372 254 OFFCURVE",
"388 245 OFFCURVE",
"405 245 CURVE SMOOTH",
"415 245 OFFCURVE",
"424 248 OFFCURVE",
"433 254 CURVE SMOOTH",
"486 291 LINE SMOOTH",
"501 301 OFFCURVE",
"508 317 OFFCURVE",
"508 333 CURVE SMOOTH",
"508 343 OFFCURVE",
"505 353 OFFCURVE",
"499 362 CURVE SMOOTH",
"478 394 OFFCURVE",
"415 447 OFFCURVE",
"331 504 CURVE",
"292 478 LINE"
);
}
);
};
guideLines = (
{
angle = 90;
position = "{505, 1038}";
},
{
angle = 90;
position = "{560, 804}";
},
{
angle = 90;
position = "{394, 689}";
}
);
layerId = "A7C3FAA2-30CE-4A02-9FA2-87707AB172AE";
name = "Jan 22 18, 14:11";
paths = (
{
closed = 1;
nodes = (
"334 482 LINE",
"372 578 OFFCURVE",
"394 658 OFFCURVE",
"394 696 CURVE SMOOTH",
"394 735 OFFCURVE",
"369 750 OFFCURVE",
"311 750 CURVE SMOOTH",
"255 750 OFFCURVE",
"227 737 OFFCURVE",
"227 696 CURVE SMOOTH",
"227 658 OFFCURVE",
"249 578 OFFCURVE",
"287 482 CURVE"
);
},
{
closed = 1;
nodes = (
"331 517 LINE",
"250 579 OFFCURVE",
"180 626 OFFCURVE",
"143 633 CURVE SMOOTH",
"138 634 OFFCURVE",
"133 635 OFFCURVE",
"128 635 CURVE SMOOTH",
"81 635 OFFCURVE",
"59 566 OFFCURVE",
"59 522 CURVE SMOOTH",
"59 500 OFFCURVE",
"74 479 OFFCURVE",
"97 472 CURVE SMOOTH",
"133 461 OFFCURVE",
"215 461 OFFCURVE",
"318 472 CURVE"
);
},
{
closed = 1;
nodes = (
"290 511 LINE",
"206 454 OFFCURVE",
"143 401 OFFCURVE",
"122 369 CURVE SMOOTH",
"116 360 OFFCURVE",
"113 350 OFFCURVE",
"113 340 CURVE SMOOTH",
"113 305 OFFCURVE",
"182 252 OFFCURVE",
"216 252 CURVE SMOOTH",
"233 252 OFFCURVE",
"249 261 OFFCURVE",
"260 276 CURVE SMOOTH",
"282 307 OFFCURVE",
"306 385 OFFCURVE",
"329 485 CURVE"
);
},
{
closed = 1;
nodes = (
"406 461 OFFCURVE",
"488 460 OFFCURVE",
"524 472 CURVE SMOOTH",
"547 480 OFFCURVE",
"562 500 OFFCURVE",
"562 522 CURVE SMOOTH",
"562 571 OFFCURVE",
"538 635 OFFCURVE",
"493 635 CURVE SMOOTH",
"488 635 OFFCURVE",
"483 634 OFFCURVE",
"478 633 CURVE SMOOTH",
"441 626 OFFCURVE",
"371 579 OFFCURVE",
"290 517 CURVE",
"303 472 LINE"
);
},
{
closed = 1;
nodes = (
"315 385 OFFCURVE",
"339 307 OFFCURVE",
"361 276 CURVE SMOOTH",
"372 261 OFFCURVE",
"388 252 OFFCURVE",
"405 252 CURVE SMOOTH",
"436 252 OFFCURVE",
"508 302 OFFCURVE",
"508 340 CURVE SMOOTH",
"508 350 OFFCURVE",
"505 360 OFFCURVE",
"499 369 CURVE SMOOTH",
"478 401 OFFCURVE",
"415 454 OFFCURVE",
"331 511 CURVE",
"292 485 LINE"
);
}
);
width = 600;
},
{
associatedMasterId = "C836F59C-81CC-4411-94AE-B4087123016A";
background = {
paths = (
{
closed = 1;
nodes = (
"215 516 LINE",
"207 596 OFFCURVE",
"201 679 OFFCURVE",
"201 709 CURVE",
"201 726 OFFCURVE",
"213 740 OFFCURVE",
"230 740 CURVE",
"231 740 LINE",
"248 740 OFFCURVE",
"260 726 OFFCURVE",
"260 709 CURVE",
"260 679 OFFCURVE",
"254 596 OFFCURVE",
"246 516 CURVE"
);
},
{
closed = 1;
nodes = (
"225 501 LINE",
"146 518 OFFCURVE",
"65 537 OFFCURVE",
"37 546 CURVE",
"22 552 OFFCURVE",
"10 567 OFFCURVE",
"17 584 CURVE",
"17 586 OFFCURVE",
"17 586 OFFCURVE",
"18 587 CURVE SMOOTH",
"24 602 OFFCURVE",
"40 607 OFFCURVE",
"55 603 CURVE",
"84 594 OFFCURVE",
"162 562 OFFCURVE",
"235 529 CURVE"
);
},
{
closed = 1;
nodes = (
"299 561 OFFCURVE",
"376 594 OFFCURVE",
"406 603 CURVE",
"422 607 OFFCURVE",
"439 600 OFFCURVE",
"444 584 CURVE",
"444 583 LINE",
"451 567 OFFCURVE",
"439 551 OFFCURVE",
"424 546 CURVE",
"396 537 OFFCURVE",
"315 518 OFFCURVE",
"236 500 CURVE",
"226 529 LINE"
);
},
{
closed = 1;
nodes = (
"238 497 LINE",
"192 432 OFFCURVE",
"144 363 OFFCURVE",
"125 341 CURVE",
"115 329 OFFCURVE",
"95 324 OFFCURVE",
"83 336 CURVE",
"82 336 LINE",
"69 347 OFFCURVE",
"70 365 OFFCURVE",
"80 379 CURVE",
"99 403 OFFCURVE",
"157 462 OFFCURVE",
"216 518 CURVE"
);
},
{
closed = 1;
nodes = (
"304 462 OFFCURVE",
"362 403 OFFCURVE",
"381 379 CURVE",
"391 365 OFFCURVE",
"392 347 OFFCURVE",
"379 336 CURVE",
"378 336 LINE",
"366 324 OFFCURVE",
"346 329 OFFCURVE",
"336 341 CURVE",
"317 363 OFFCURVE",
"269 432 OFFCURVE",
"223 497 CURVE",
"245 518 LINE"
);
}
);
};
guideLines = (
{
angle = 162.646;
position = "{37, 546}";
}
);
layerId = "FA6FAA1B-F5B8-4D25-847F-0CEAF8B34BB7";
name = "Jan 22 18, 14:12";
paths = (
{
closed = 1;
nodes = (
"215 516 LINE",
"207 596 OFFCURVE",
"201 679 OFFCURVE",
"201 709 CURVE SMOOTH",
"201 726 OFFCURVE",
"213 740 OFFCURVE",
"230 740 CURVE SMOOTH",
"248 740 OFFCURVE",
"260 726 OFFCURVE",
"260 709 CURVE SMOOTH",
"260 679 OFFCURVE",
"254 596 OFFCURVE",
"246 516 CURVE"
);
},
{
closed = 1;
nodes = (
"225 501 LINE",
"145 517 OFFCURVE",
"66 537 OFFCURVE",
"37 546 CURVE SMOOTH",
"24 550 OFFCURVE",
"15 561 OFFCURVE",
"15 574 CURVE SMOOTH",
"15 577 OFFCURVE",
"16 581 OFFCURVE",
"17 584 CURVE SMOOTH",
"18 587 LINE SMOOTH",
"22 599 OFFCURVE",
"33 604 OFFCURVE",
"45 604 CURVE SMOOTH",
"48 604 OFFCURVE",
"52 604 OFFCURVE",
"55 603 CURVE SMOOTH",
"85 595 OFFCURVE",
"162 562 OFFCURVE",
"235 529 CURVE"
);
},
{
closed = 1;
nodes = (
"299 561 OFFCURVE",
"376 594 OFFCURVE",
"406 603 CURVE",
"422 607 OFFCURVE",
"439 600 OFFCURVE",
"444 584 CURVE",
"444 583 LINE",
"451 567 OFFCURVE",
"439 551 OFFCURVE",
"424 546 CURVE",
"396 537 OFFCURVE",
"315 518 OFFCURVE",
"236 500 CURVE",
"226 529 LINE"
);
},
{
closed = 1;
nodes = (
"238 497 LINE",
"192 432 OFFCURVE",
"144 363 OFFCURVE",
"125 341 CURVE",
"115 329 OFFCURVE",
"95 324 OFFCURVE",
"83 336 CURVE",
"82 336 LINE",
"69 347 OFFCURVE",
"70 365 OFFCURVE",
"80 379 CURVE",
"99 403 OFFCURVE",
"157 462 OFFCURVE",
"216 518 CURVE"
);
},
{
closed = 1;
nodes = (
"304 462 OFFCURVE",
"362 403 OFFCURVE",
"381 379 CURVE",
"391 365 OFFCURVE",
"392 347 OFFCURVE",
"379 336 CURVE",
"378 336 LINE",
"366 324 OFFCURVE",
"346 329 OFFCURVE",
"336 341 CURVE",
"317 363 OFFCURVE",
"269 432 OFFCURVE",
"223 497 CURVE",
"245 518 LINE"
);
}
);
width = 600;
}
);
leftKerningGroup = asterisk;
rightKerningGroup = asterisk;
unicode = 002A;
},
{
color = 1;
glyphname = plus;
layers = (
{
layerId = "C836F59C-81CC-4411-94AE-B4087123016A";
paths = (
{
closed = 1;
nodes = (
"501 305 LINE SMOOTH",
"525 305 OFFCURVE",
"532 315 OFFCURVE",
"532 331 CURVE SMOOTH",
"532 333 LINE SMOOTH",
"532 349 OFFCURVE",
"525 360 OFFCURVE",
"501 360 CURVE SMOOTH",
"108 360 LINE SMOOTH",
"84 360 OFFCURVE",
"77 349 OFFCURVE",
"77 333 CURVE SMOOTH",
"77 331 LINE SMOOTH",
"77 315 OFFCURVE",
"84 305 OFFCURVE",
"108 305 CURVE SMOOTH"
);
},
{
closed = 1;
nodes = (
"332 529 LINE SMOOTH",
"332 553 OFFCURVE",
"322 560 OFFCURVE",
"306 560 CURVE SMOOTH",
"304 560 LINE SMOOTH",
"288 560 OFFCURVE",
"277 553 OFFCURVE",
"277 529 CURVE SMOOTH",
"277 136 LINE SMOOTH",
"277 112 OFFCURVE",
"288 105 OFFCURVE",
"304 105 CURVE SMOOTH",
"306 105 LINE SMOOTH",
"322 105 OFFCURVE",
"332 112 OFFCURVE",
"332 136 CURVE SMOOTH"
);
}
);
width = 609;
},
{
layerId = "120615CE-BBBA-4703-9D0A-81094A4EB7C9";
paths = (
{
closed = 1;
nodes = (
"487 250 LINE SMOOTH",
"516 250 OFFCURVE",
"538 272 OFFCURVE",
"538 301 CURVE SMOOTH",
"538 337 LINE SMOOTH",
"538 366 OFFCURVE",
"516 388 OFFCURVE",
"487 388 CURVE SMOOTH",
"105 388 LINE SMOOTH",
"76 388 OFFCURVE",
"54 366 OFFCURVE",
"54 337 CURVE SMOOTH",
"54 301 LINE SMOOTH",
"54 272 OFFCURVE",
"76 250 OFFCURVE",
"105 250 CURVE SMOOTH"
);
},
{
closed = 1;
nodes = (
"365 510 LINE SMOOTH",
"365 538 OFFCURVE",
"343 560 OFFCURVE",
"314 561 CURVE SMOOTH",
"278 561 LINE SMOOTH",
"249 561 OFFCURVE",
"227 538 OFFCURVE",
"227 509 CURVE SMOOTH",
"227 128 LINE SMOOTH",
"227 99 OFFCURVE",
"249 78 OFFCURVE",
"278 77 CURVE SMOOTH",
"314 77 LINE SMOOTH",
"343 77 OFFCURVE",
"365 100 OFFCURVE",
"365 128 CURVE SMOOTH"
);
}
);
width = 592;
}
);
leftKerningGroup = minus;
rightKerningGroup = minus;
unicode = 002B;
},
{
color = 1;
glyphname = comma;
layers = (
{
background = {
paths = (
{
closed = 1;
nodes = (
"144 -212 OFFCURVE",
"154 -204 OFFCURVE",
"180 -176 CURVE SMOOTH",
"269 -81 OFFCURVE",
"304 -9 OFFCURVE",
"304 78 CURVE SMOOTH",
"304 160 OFFCURVE",
"254 214 OFFCURVE",
"178 214 CURVE SMOOTH",
"115 214 OFFCURVE",
"66 164 OFFCURVE",
"66 99 CURVE SMOOTH",
"66 48 OFFCURVE",
"93 10 OFFCURVE",
"142 -6 CURVE SMOOTH",
"156 -11 OFFCURVE",
"160 -16 OFFCURVE",
"160 -28 CURVE SMOOTH",
"160 -50 OFFCURVE",
"135 -90 OFFCURVE",
"90 -144 CURVE SMOOTH",
"84 -151 OFFCURVE",
"80 -160 OFFCURVE",
"80 -167 CURVE SMOOTH",
"80 -189 OFFCURVE",
"105 -212 OFFCURVE",
"127 -212 CURVE SMOOTH"
);
}
);
};
layerId = "120615CE-BBBA-4703-9D0A-81094A4EB7C9";
paths = (
{
closed = 1;
nodes = (
"144 -212 OFFCURVE",
"158 -207 OFFCURVE",
"180 -176 CURVE SMOOTH",
"251 -76 OFFCURVE",
"290 -2 OFFCURVE",
"290 85 CURVE SMOOTH",
"290 153 OFFCURVE",
"251 204 OFFCURVE",
"175 204 CURVE SMOOTH",
"112 204 OFFCURVE",
"66 164 OFFCURVE",
"66 99 CURVE SMOOTH",
"66 52 OFFCURVE",
"88 28 OFFCURVE",
"132 1 CURVE SMOOTH",
"146 -7 OFFCURVE",
"148 -12 OFFCURVE",
"148 -24 CURVE SMOOTH",
"148 -46 OFFCURVE",
"125 -88 OFFCURVE",
"90 -138 CURVE SMOOTH",
"83 -148 OFFCURVE",
"80 -156 OFFCURVE",
"80 -167 CURVE SMOOTH",
"80 -189 OFFCURVE",
"105 -212 OFFCURVE",
"127 -212 CURVE SMOOTH"
);
}
);
width = 354;
},
{
layerId = "C836F59C-81CC-4411-94AE-B4087123016A";
paths = (
{
closed = 1;
nodes = (
"123 -169 OFFCURVE",
"128 -167 OFFCURVE",
"134 -161 CURVE SMOOTH",
"194 -101 OFFCURVE",
"220 -32 OFFCURVE",
"220 23 CURVE SMOOTH",
"220 72 OFFCURVE",
"196 102 OFFCURVE",
"159 102 CURVE SMOOTH",
"127 102 OFFCURVE",
"103 78 OFFCURVE",
"103 46 CURVE SMOOTH",
"103 12 OFFCURVE",
"122 -10 OFFCURVE",
"152 -10 CURVE SMOOTH",
"161 -10 OFFCURVE",
"164 -14 OFFCURVE",
"164 -25 CURVE SMOOTH",
"164 -54 OFFCURVE",
"145 -95 OFFCURVE",
"109 -140 CURVE SMOOTH",
"105 -145 OFFCURVE",
"103 -150 OFFCURVE",
"103 -153 CURVE SMOOTH",
"103 -162 OFFCURVE",
"110 -169 OFFCURVE",
"119 -169 CURVE SMOOTH"
);
}
);
width = 322;
}
);
leftKerningGroup = period;
rightKerningGroup = period;
unicode = 002C;
},
{
color = 1;
glyphname = hyphen;
layers = (
{
layerId = "120615CE-BBBA-4703-9D0A-81094A4EB7C9";
paths = (
{
closed = 1;
nodes = (
"446 250 LINE SMOOTH",
"475 250 OFFCURVE",
"497 272 OFFCURVE",
"497 301 CURVE SMOOTH",
"497 337 LINE SMOOTH",
"497 366 OFFCURVE",
"475 388 OFFCURVE",
"446 388 CURVE SMOOTH",
"115 388 LINE SMOOTH",
"86 388 OFFCURVE",
"64 366 OFFCURVE",
"64 337 CURVE SMOOTH",
"64 301 LINE SMOOTH",
"64 272 OFFCURVE",
"86 250 OFFCURVE",
"115 250 CURVE SMOOTH"
);
}
);
width = 561;
},
{
layerId = "C836F59C-81CC-4411-94AE-B4087123016A";
paths = (
{
closed = 1;
nodes = (
"465 305 LINE SMOOTH",
"489 305 OFFCURVE",
"496 315 OFFCURVE",
"496 331 CURVE SMOOTH",
"496 333 LINE SMOOTH",
"496 349 OFFCURVE",
"489 360 OFFCURVE",
"465 360 CURVE SMOOTH",
"117 360 LINE SMOOTH",
"93 360 OFFCURVE",
"86 349 OFFCURVE",
"86 333 CURVE SMOOTH",
"86 331 LINE SMOOTH",
"86 315 OFFCURVE",
"93 305 OFFCURVE",
"117 305 CURVE SMOOTH"
);
}
);
width = 582;
}
);
leftKerningGroup = hyphen;
rightKerningGroup = hyphen;
unicode = 002D;
},
{
color = 1;
glyphname = period;
layers = (
{
layerId = "120615CE-BBBA-4703-9D0A-81094A4EB7C9";
paths = (
{
closed = 1;
nodes = (
"303 33 OFFCURVE",
"255 -10 OFFCURVE",
"191 -10 CURVE SMOOTH",
"127 -10 OFFCURVE",
"79 33 OFFCURVE",
"79 97 CURVE SMOOTH",
"79 161 OFFCURVE",
"127 204 OFFCURVE",
"191 204 CURVE SMOOTH",
"255 204 OFFCURVE",
"303 161 OFFCURVE",
"303 97 CURVE SMOOTH"
);
}
);
width = 382;
},
{
layerId = "C836F59C-81CC-4411-94AE-B4087123016A";
paths = (
{
closed = 1;
nodes = (
"228 14 OFFCURVE",
"204 -10 OFFCURVE",
"172 -10 CURVE SMOOTH",
"140 -10 OFFCURVE",
"116 14 OFFCURVE",
"116 46 CURVE SMOOTH",
"116 78 OFFCURVE",
"140 102 OFFCURVE",
"172 102 CURVE SMOOTH",
"204 102 OFFCURVE",
"228 78 OFFCURVE",
"228 46 CURVE SMOOTH"
);
}
);
width = 344;
}
);
leftKerningGroup = period;
rightKerningGroup = period;
unicode = 002E;
},
{
color = 1;
glyphname = slash;
layers = (
{
layerId = "C836F59C-81CC-4411-94AE-B4087123016A";
paths = (
{
closed = 1;
nodes = (
"67 -230 LINE SMOOTH",
"78 -230 OFFCURVE",
"84 -221 OFFCURVE",
"87 -210 CURVE SMOOTH",
"376 717 LINE SMOOTH",
"377 720 OFFCURVE",
"378 724 OFFCURVE",
"378 728 CURVE SMOOTH",
"378 735 OFFCURVE",
"376 740 OFFCURVE",
"366 740 CURVE SMOOTH",
"337 740 LINE SMOOTH",
"326 740 OFFCURVE",
"320 731 OFFCURVE",
"317 720 CURVE SMOOTH",
"28 -207 LINE SMOOTH",
"27 -210 OFFCURVE",
"26 -214 OFFCURVE",
"26 -218 CURVE SMOOTH",
"26 -225 OFFCURVE",
"28 -230 OFFCURVE",
"38 -230 CURVE SMOOTH"
);
}
);
width = 404;
},
{
layerId = "120615CE-BBBA-4703-9D0A-81094A4EB7C9";
paths = (
{
closed = 1;
nodes = (
"122 -230 LINE SMOOTH",
"151 -230 OFFCURVE",
"163 -211 OFFCURVE",
"173 -179 CURVE SMOOTH",
"443 686 LINE SMOOTH",
"445 693 OFFCURVE",
"447 702 OFFCURVE",
"447 709 CURVE SMOOTH",
"447 727 OFFCURVE",
"437 740 OFFCURVE",
"411 740 CURVE SMOOTH",
"333 740 LINE SMOOTH",
"304 740 OFFCURVE",
"292 721 OFFCURVE",
"282 689 CURVE SMOOTH",
"12 -176 LINE SMOOTH",
"10 -183 OFFCURVE",
"8 -192 OFFCURVE",
"8 -199 CURVE SMOOTH",
"8 -217 OFFCURVE",
"18 -230 OFFCURVE",
"44 -230 CURVE SMOOTH"
);
}
);
width = 455;
}
);
leftKerningGroup = slash;
rightKerningGroup = slash;
unicode = 002F;
},
{
color = 1;
glyphname = zero;
layers = (
{
layerId = "120615CE-BBBA-4703-9D0A-81094A4EB7C9";
paths = (
{
closed = 1;
nodes = (
"523 -10 OFFCURVE",
"629 129 OFFCURVE",
"629 359 CURVE SMOOTH",
"629 575 OFFCURVE",
"521 710 OFFCURVE",
"339 710 CURVE SMOOTH",
"155 710 OFFCURVE",
"49 571 OFFCURVE",
"49 341 CURVE SMOOTH",
"49 125 OFFCURVE",
"157 -10 OFFCURVE",
"339 -10 CURVE SMOOTH"
);
},
{
closed = 1;
nodes = (
"256 128 OFFCURVE",
"220 199 OFFCURVE",
"220 343 CURVE SMOOTH",
"220 500 OFFCURVE",
"254 572 OFFCURVE",
"339 572 CURVE SMOOTH",
"422 572 OFFCURVE",
"458 501 OFFCURVE",
"458 357 CURVE SMOOTH",
"458 200 OFFCURVE",
"424 128 OFFCURVE",
"339 128 CURVE SMOOTH"
);
}
);
width = 678;
},
{
layerId = "C836F59C-81CC-4411-94AE-B4087123016A";
paths = (
{
closed = 1;
nodes = (
"503 -10 OFFCURVE",
"600 135 OFFCURVE",
"600 359 CURVE SMOOTH",
"600 571 OFFCURVE",
"502 710 OFFCURVE",
"337 710 CURVE SMOOTH",
"171 710 OFFCURVE",
"74 565 OFFCURVE",
"74 341 CURVE SMOOTH",
"74 129 OFFCURVE",
"172 -10 OFFCURVE",
"337 -10 CURVE SMOOTH"
);
},
{
closed = 1;
nodes = (
"204 45 OFFCURVE",
"134 156 OFFCURVE",
"134 341 CURVE SMOOTH",
"134 538 OFFCURVE",
"203 655 OFFCURVE",
"337 655 CURVE SMOOTH",
"470 655 OFFCURVE",
"540 544 OFFCURVE",
"540 359 CURVE SMOOTH",
"540 162 OFFCURVE",
"471 45 OFFCURVE",
"337 45 CURVE SMOOTH"
);
}
);
width = 674;
}
);
leftKerningGroup = zero;
rightKerningGroup = zero;
unicode = 0030;
},
{
color = 1;
glyphname = one;
layers = (
{
hints = (
{
origin = "{0, 23}";
type = Corner;
name = _corner.leftSerif;
},
{
origin = "{0, 0}";
type = Corner;
name = _corner.rightSerif;
options = 1;
}
);
layerId = "120615CE-BBBA-4703-9D0A-81094A4EB7C9";
paths = (
{
closed = 1;
nodes = (
"322 0 LINE",
"322 649 LINE SMOOTH",
"322 678 OFFCURVE",
"300 700 OFFCURVE",
"271 700 CURVE SMOOTH",
"206 700 LINE SMOOTH",
"177 700 OFFCURVE",
"155 678 OFFCURVE",
"155 649 CURVE SMOOTH",
"155 633 LINE SMOOTH",
"155 599 OFFCURVE",
"133 587 OFFCURVE",
"106 587 CURVE SMOOTH",
"78 587 LINE SMOOTH",
"49 587 OFFCURVE",
"27 565 OFFCURVE",
"27 536 CURVE SMOOTH",
"27 500 LINE SMOOTH",
"27 471 OFFCURVE",
"49 449 OFFCURVE",
"78 449 CURVE SMOOTH",
"218 449 LINE",
"155 505 LINE",
"155 0 LINE"
);
}
);
width = 418;
},
{
hints = (
{
origin = "{0, 23}";
type = Corner;
name = _corner.leftSerif;
},
{
origin = "{0, 0}";
type = Corner;
name = _corner.rightSerif;
options = 1;
}
);
layerId = "C836F59C-81CC-4411-94AE-B4087123016A";
paths = (
{
closed = 1;
nodes = (
"224 0 LINE",
"224 669 LINE SMOOTH",
"224 686 OFFCURVE",
"212 700 OFFCURVE",
"195 700 CURVE SMOOTH",
"194 700 LINE SMOOTH",
"177 700 OFFCURVE",
"165 686 OFFCURVE",
"165 669 CURVE SMOOTH",
"165 603 LINE SMOOTH",
"165 586 OFFCURVE",
"153 572 OFFCURVE",
"136 572 CURVE SMOOTH",
"66 572 LINE SMOOTH",
"55 572 OFFCURVE",
"46 563 OFFCURVE",
"46 552 CURVE SMOOTH",
"46 537 LINE SMOOTH",
"46 526 OFFCURVE",
"55 517 OFFCURVE",
"66 517 CURVE SMOOTH",
"204 517 LINE",
"165 545 LINE",
"165 0 LINE"
);
}
);
width = 338;
},
{
associatedMasterId = "C836F59C-81CC-4411-94AE-B4087123016A";
layerId = "FF89A628-495D-42D8-B93F-E73B0A5DD639";
name = "Jan 17 18, 13:59";
paths = (
{
closed = 1;
nodes = (
"428 0 LINE SMOOTH",
"446 0 OFFCURVE",
"454 8 OFFCURVE",
"454 19 CURVE SMOOTH",
"454 36 LINE SMOOTH",
"454 47 OFFCURVE",
"446 55 OFFCURVE",
"428 55 CURVE SMOOTH",
"318 55 LINE",
"345 28 LINE",
"345 669 LINE SMOOTH",
"345 686 OFFCURVE",
"333 700 OFFCURVE",
"316 700 CURVE SMOOTH",
"315 700 LINE SMOOTH",
"298 700 OFFCURVE",
"286 686 OFFCURVE",
"286 669 CURVE SMOOTH",
"286 603 LINE SMOOTH",
"286 586 OFFCURVE",
"274 572 OFFCURVE",
"257 572 CURVE SMOOTH",
"161 572 LINE SMOOTH",
"150 572 OFFCURVE",
"141 563 OFFCURVE",
"141 552 CURVE SMOOTH",
"141 537 LINE SMOOTH",
"141 526 OFFCURVE",
"150 517 OFFCURVE",
"161 517 CURVE SMOOTH",
"325 517 LINE",
"286 545 LINE",
"286 28 LINE",
"313 55 LINE",
"203 55 LINE SMOOTH",
"185 55 OFFCURVE",
"177 47 OFFCURVE",
"177 36 CURVE SMOOTH",
"177 19 LINE SMOOTH",
"177 8 OFFCURVE",
"185 0 OFFCURVE",
"203 0 CURVE SMOOTH"
);
}
);
width = 600;
},
{
associatedMasterId = "120615CE-BBBA-4703-9D0A-81094A4EB7C9";
guideLines = (
{
angle = 90;
position = "{141, 92}";
}
);
layerId = "17D622BB-813D-43BC-8DE4-F4D1D6395DCE";
name = "Jan 17 18, 13:59";
paths = (
{
closed = 1;
nodes = (
"507 0 LINE SMOOTH",
"534 0 OFFCURVE",
"556 12 OFFCURVE",
"556 46 CURVE SMOOTH",
"556 92 LINE SMOOTH",
"556 126 OFFCURVE",
"534 138 OFFCURVE",
"507 138 CURVE SMOOTH",
"357 138 LINE",
"432 63 LINE",
"432 649 LINE SMOOTH",
"432 678 OFFCURVE",
"410 700 OFFCURVE",
"381 700 CURVE SMOOTH",
"316 700 LINE SMOOTH",
"287 700 OFFCURVE",
"265 678 OFFCURVE",
"265 649 CURVE SMOOTH",
"265 633 LINE SMOOTH",
"265 599 OFFCURVE",
"243 587 OFFCURVE",
"216 587 CURVE SMOOTH",
"167 587 LINE SMOOTH",
"138 587 OFFCURVE",
"116 565 OFFCURVE",
"116 536 CURVE SMOOTH",
"116 500 LINE SMOOTH",
"116 471 OFFCURVE",
"138 449 OFFCURVE",
"167 449 CURVE SMOOTH",
"328 449 LINE",
"265 505 LINE",
"265 63 LINE",
"340 138 LINE",
"190 138 LINE SMOOTH",
"163 138 OFFCURVE",
"141 126 OFFCURVE",
"141 92 CURVE SMOOTH",
"141 46 LINE SMOOTH",
"141 12 OFFCURVE",
"163 0 OFFCURVE",
"190 0 CURVE SMOOTH"
);
}
);
width = 600;
}
);
leftKerningGroup = one;
rightKerningGroup = one;
unicode = 0031;
},
{
color = 1;
glyphname = two;
layers = (
{
background = {
paths = (
{
closed = 1;
nodes = (
"220 1 LINE",
"220 106 LINE SMOOTH",
"220 150 OFFCURVE",
"224 161 OFFCURVE",
"262 190 CURVE SMOOTH",
"316 231 LINE",
"368 269 LINE SMOOTH",
"504 371 OFFCURVE",
"540 423 OFFCURVE",
"540 512 CURVE SMOOTH",
"540 631 OFFCURVE",
"443 710 OFFCURVE",
"298 710 CURVE SMOOTH",
"158 710 OFFCURVE",
"53 633 OFFCURVE",
"53 531 CURVE",
"224 496 LINE",
"224 551 OFFCURVE",
"245 572 OFFCURVE",
"299 572 CURVE SMOOTH",
"341 572 OFFCURVE",
"369 547 OFFCURVE",
"369 511 CURVE SMOOTH",
"369 481 OFFCURVE",
"356 459 OFFCURVE",
"322 434 CURVE SMOOTH",
"231 366 LINE",
"168 319 LINE SMOOTH",
"84 257 OFFCURVE",
"53 216 OFFCURVE",
"53 119 CURVE SMOOTH",
"53 51 LINE SMOOTH",
"53 22 OFFCURVE",
"75 0 OFFCURVE",
"104 0 CURVE"
);
},
{
closed = 1;
nodes = (
"210 428 OFFCURVE",
"249 463 OFFCURVE",
"249 516 CURVE SMOOTH",
"249 572 OFFCURVE",
"207 614 OFFCURVE",
"151 614 CURVE",
"53 531 LINE",
"53 470 OFFCURVE",
"93 428 OFFCURVE",
"151 428 CURVE SMOOTH"
);
},
{
closed = 1;
nodes = (
"500 0 LINE SMOOTH",
"535 0 OFFCURVE",
"561 25 OFFCURVE",
"561 59 CURVE SMOOTH",
"561 202 LINE SMOOTH",
"561 234 OFFCURVE",
"545 251 OFFCURVE",
"515 251 CURVE SMOOTH",
"469 251 LINE SMOOTH",
"439 251 OFFCURVE",
"423 234 OFFCURVE",
"423 202 CURVE SMOOTH",
"423 63 LINE",
"498 140 LINE",
"162 137 LINE",
"164 0 LINE"
);
}
);
};
hints = (
{
origin = "{2, 4}";
type = Corner;
name = _corner.rightSerif;
options = 1;
}
);
layerId = "120615CE-BBBA-4703-9D0A-81094A4EB7C9";
paths = (
{
closed = 1;
nodes = (
"220 1 LINE",
"220 89 LINE SMOOTH",
"220 159 OFFCURVE",
"232 177 OFFCURVE",
"316 231 CURVE SMOOTH",
"499 349 OFFCURVE",
"540 401 OFFCURVE",
"540 512 CURVE SMOOTH",
"540 629 OFFCURVE",
"437 710 OFFCURVE",
"294 710 CURVE SMOOTH",
"154 710 OFFCURVE",
"53 633 OFFCURVE",
"53 531 CURVE",
"224 496 LINE",
"224 551 OFFCURVE",
"245 572 OFFCURVE",
"299 572 CURVE SMOOTH",
"341 572 OFFCURVE",
"369 547 OFFCURVE",
"369 511 CURVE SMOOTH",
"369 465 OFFCURVE",
"343 438 OFFCURVE",
"231 366 CURVE SMOOTH",
"88 275 OFFCURVE",
"53 222 OFFCURVE",
"53 99 CURVE SMOOTH",
"53 51 LINE SMOOTH",
"53 22 OFFCURVE",
"75 0 OFFCURVE",
"104 0 CURVE"
);
},
{
closed = 1;
nodes = (
"210 428 OFFCURVE",
"249 463 OFFCURVE",
"249 516 CURVE SMOOTH",
"249 572 OFFCURVE",
"207 614 OFFCURVE",
"151 614 CURVE",
"53 531 LINE",
"53 470 OFFCURVE",
"93 428 OFFCURVE",
"151 428 CURVE SMOOTH"
);
},
{
closed = 1;
nodes = (
"500 0 LINE SMOOTH",
"535 0 OFFCURVE",
"561 25 OFFCURVE",
"561 59 CURVE SMOOTH",
"561 140 LINE",
"162 137 LINE",
"164 0 LINE"
);
}
);
width = 608;
},
{
background = {
paths = (
{
closed = 1;
nodes = (
"126 0 LINE",
"126 54 LINE SMOOTH",
"126 127 OFFCURVE",
"150 164 OFFCURVE",
"241 229 CURVE SMOOTH",
"374 324 LINE SMOOTH",
"479 399 OFFCURVE",
"517 449 OFFCURVE",
"517 529 CURVE SMOOTH",
"517 637 OFFCURVE",
"427 710 OFFCURVE",
"293 710 CURVE SMOOTH",
"162 710 OFFCURVE",
"73 637 OFFCURVE",
"73 530 CURVE",
"133 530 LINE",
"133 610 OFFCURVE",
"193 655 OFFCURVE",
"298 655 CURVE SMOOTH",
"399 655 OFFCURVE",
"457 608 OFFCURVE",
"457 527 CURVE SMOOTH",
"457 467 OFFCURVE",
"428 431 OFFCURVE",
"348 374 CURVE SMOOTH",
"223 285 LINE SMOOTH",
"112 206 OFFCURVE",
"67 142 OFFCURVE",
"67 62 CURVE SMOOTH",
"67 31 LINE SMOOTH",
"67 10 OFFCURVE",
"77 0 OFFCURVE",
"96 0 CURVE SMOOTH"
);
},
{
closed = 1;
nodes = (
"145 473 OFFCURVE",
"163 492 OFFCURVE",
"163 516 CURVE SMOOTH",
"163 542 OFFCURVE",
"144 561 OFFCURVE",
"118 561 CURVE",
"73 530 LINE",
"73 494 OFFCURVE",
"91 473 OFFCURVE",
"121 473 CURVE SMOOTH"
);
},
{
closed = 1;
nodes = (
"502 0 LINE SMOOTH",
"519 0 OFFCURVE",
"533 14 OFFCURVE",
"533 31 CURVE SMOOTH",
"533 132 LINE SMOOTH",
"533 149 OFFCURVE",
"526 158 OFFCURVE",
"514 158 CURVE SMOOTH",
"497 158 LINE SMOOTH",
"485 158 OFFCURVE",
"478 149 OFFCURVE",
"478 132 CURVE SMOOTH",
"478 28 LINE",
"505 55 LINE",
"109 55 LINE",
"109 0 LINE"
);
}
);
};
hints = (
{
origin = "{2, 4}";
type = Corner;
name = _corner.rightSerif;
options = 1;
}
);
layerId = "C836F59C-81CC-4411-94AE-B4087123016A";
paths = (
{
closed = 1;
nodes = (
"126 0 LINE",
"126 38 LINE SMOOTH",
"126 140 OFFCURVE",
"144 163 OFFCURVE",
"300 263 CURVE SMOOTH",
"474 375 OFFCURVE",
"517 426 OFFCURVE",
"517 521 CURVE SMOOTH",
"517 631 OFFCURVE",
"424 710 OFFCURVE",
"293 710 CURVE SMOOTH",
"162 710 OFFCURVE",
"73 637 OFFCURVE",
"73 530 CURVE",
"133 530 LINE",
"133 610 OFFCURVE",
"193 655 OFFCURVE",
"298 655 CURVE SMOOTH",
"396 655 OFFCURVE",
"457 603 OFFCURVE",
"457 519 CURVE SMOOTH",
"457 443 OFFCURVE",
"427 410 OFFCURVE",
"271 311 CURVE SMOOTH",
"111 210 OFFCURVE",
"67 155 OFFCURVE",
"67 54 CURVE SMOOTH",
"67 31 LINE SMOOTH",
"67 10 OFFCURVE",
"77 0 OFFCURVE",
"96 0 CURVE SMOOTH"
);
},
{
closed = 1;
nodes = (
"145 473 OFFCURVE",
"163 492 OFFCURVE",
"163 516 CURVE SMOOTH",
"163 542 OFFCURVE",
"144 561 OFFCURVE",
"118 561 CURVE",
"73 530 LINE",
"73 494 OFFCURVE",
"91 473 OFFCURVE",
"121 473 CURVE SMOOTH"
);
},
{
closed = 1;
nodes = (
"509 0 LINE SMOOTH",
"526 0 OFFCURVE",
"540 14 OFFCURVE",
"540 31 CURVE SMOOTH",
"540 55 LINE",
"109 55 LINE",
"109 0 LINE"
);
}
);
width = 601;
},
{
associatedMasterId = "C836F59C-81CC-4411-94AE-B4087123016A";
guideLines = (
{
angle = 90;
position = "{111, 552}";
},
{
angle = 208.7866;
position = "{342, 347}";
},
{
angle = 90;
position = "{432, 45}";
},
{
angle = -18.5954;
position = "{150, 119}";
},
{
angle = 90;
position = "{551, 534}";
}
);
layerId = "09601626-7FD3-4CDC-8224-59699F4C8D0C";
name = "Jan 17 18, 14:49";
paths = (
{
closed = 1;
nodes = (
"179 473 OFFCURVE",
"197 492 OFFCURVE",
"197 516 CURVE SMOOTH",
"197 542 OFFCURVE",
"178 561 OFFCURVE",
"152 561 CURVE",
"107 530 LINE",
"107 494 OFFCURVE",
"125 473 OFFCURVE",
"155 473 CURVE SMOOTH"
);
},
{
closed = 1;
nodes = (
"521 110 LINE SMOOTH",
"521 64 OFFCURVE",
"502 45 OFFCURVE",
"458 45 CURVE SMOOTH",
"407 45 OFFCURVE",
"317 67 OFFCURVE",
"150 127 CURVE",
"150 81 LINE",
"287 17 OFFCURVE",
"386 -10 OFFCURVE",
"458 -10 CURVE SMOOTH",
"535 -10 OFFCURVE",
"580 34 OFFCURVE",
"580 110 CURVE SMOOTH",
"580 148 LINE SMOOTH",
"580 166 OFFCURVE",
"567 179 OFFCURVE",
"551 179 CURVE SMOOTH",
"550 179 LINE SMOOTH",
"534 179 OFFCURVE",
"521 166 OFFCURVE",
"521 148 CURVE SMOOTH"
);
},
{
closed = 1;
nodes = (
"160 71 LINE SMOOTH",
"160 168 OFFCURVE",
"187 196 OFFCURVE",
"369 296 CURVE SMOOTH",
"520 379 OFFCURVE",
"551 443 OFFCURVE",
"551 529 CURVE SMOOTH",
"551 636 OFFCURVE",
"463 710 OFFCURVE",
"327 710 CURVE SMOOTH",
"196 710 OFFCURVE",
"107 637 OFFCURVE",
"107 530 CURVE",
"167 530 LINE",
"167 609 OFFCURVE",
"226 655 OFFCURVE",
"332 655 CURVE SMOOTH",
"433 655 OFFCURVE",
"491 605 OFFCURVE",
"491 527 CURVE SMOOTH",
"491 470 OFFCURVE",
"484 425 OFFCURVE",
"342 347 CURVE SMOOTH",
"161 248 OFFCURVE",
"101 198 OFFCURVE",
"101 80 CURVE SMOOTH",
"101 25 LINE SMOOTH",
"101 1 OFFCURVE",
"114 -6 OFFCURVE",
"130 -6 CURVE SMOOTH",
"132 -6 LINE SMOOTH",
"149 -6 OFFCURVE",
"160 2 OFFCURVE",
"160 25 CURVE SMOOTH"
);
}
);
width = 600;
},
{
associatedMasterId = "C836F59C-81CC-4411-94AE-B4087123016A";
guideLines = (
{
angle = 90;
position = "{111, 552}";
},
{
angle = 208.7866;
position = "{342, 347}";
},
{
angle = 90;
position = "{432, 45}";
},
{
angle = -18.5954;
position = "{150, 119}";
},
{
angle = 90;
position = "{551, 534}";
}
);
layerId = "C684CD1F-4626-471C-AF03-51838898C74E";
name = "Jan 17 18, 14:56";
paths = (
{
closed = 1;
nodes = (
"574.338 -65 OFFCURVE",
"635 -5.119 OFFCURVE",
"635 90 CURVE SMOOTH",
"635 128 LINE SMOOTH",
"635 165.661 OFFCURVE",
"587.8 214 OFFCURVE",
"551 214 CURVE SMOOTH",
"550 214 LINE SMOOTH",
"514.314 214 OFFCURVE",
"486 184.78 OFFCURVE",
"486 148 CURVE SMOOTH",
"486 110 LINE SMOOTH",
"486 83.841 OFFCURVE",
"482.371 80 OFFCURVE",
"458 80 CURVE SMOOTH",
"416.529 80 OFFCURVE",
"345.871 97.237 OFFCURVE",
"237.275 133.701 CURVE",
"259.65 160.709 OFFCURVE",
"304.075 189.884 OFFCURVE",
"405.808 245.3 CURVE SMOOTH",
"551.218 325.062 OFFCURVE",
"606 396.566 OFFCURVE",
"606 509 CURVE SMOOTH",
"606 640.804 OFFCURVE",
"482.699 745 OFFCURVE",
"327 745 CURVE SMOOTH",
"177.012 745 OFFCURVE",
"72 656.564 OFFCURVE",
"72 530 CURVE SMOOTH",
"72 460.507 OFFCURVE",
"111.039 418 OFFCURVE",
"175 418 CURVE SMOOTH",
"217.955 418 OFFCURVE",
"252 452.496 OFFCURVE",
"252 496 CURVE SMOOTH",
"252 518.518 OFFCURVE",
"245.222 535.232 OFFCURVE",
"229.136 552.809 CURVE",
"253.153 587.222 OFFCURVE",
"283.975 600 OFFCURVE",
"343 600 CURVE SMOOTH",
"422.306 600 OFFCURVE",
"456 578 OFFCURVE",
"456 527 CURVE SMOOTH",
"456 465.444 OFFCURVE",
"430.661 435.869 OFFCURVE",
"325.142 377.672 CURVE SMOOTH",
"118.329 264.692 OFFCURVE",
"66 205.245 OFFCURVE",
"66 80 CURVE SMOOTH",
"66 25 LINE SMOOTH",
"66 -16.209 OFFCURVE",
"109.734 -61 OFFCURVE",
"150 -61 CURVE SMOOTH",
"152 -61 LINE SMOOTH",
"189.555 -61 OFFCURVE",
"213.976 -36.199 OFFCURVE",
"214.968 2.532 CURVE",
"322.593 -42.505 OFFCURVE",
"409.235 -65 OFFCURVE",
"478 -65 CURVE SMOOTH"
);
},
{
closed = 1;
nodes = (
"384 -15 OFFCURVE",
"286 13 OFFCURVE",
"165 68 CURVE",
"165 25 LINE SMOOTH",
"165 1 OFFCURVE",
"154 -11 OFFCURVE",
"132 -11 CURVE SMOOTH",
"130 -11 LINE SMOOTH",
"108 -11 OFFCURVE",
"96 2 OFFCURVE",
"96 25 CURVE SMOOTH",
"96 80 LINE SMOOTH",
"96 193 OFFCURVE",
"143 244 OFFCURVE",
"340 351 CURVE SMOOTH",
"453 414 OFFCURVE",
"486 454 OFFCURVE",
"486 527 CURVE SMOOTH",
"486 604 OFFCURVE",
"429 650 OFFCURVE",
"332 650 CURVE SMOOTH",
"245 650 OFFCURVE",
"189 618 OFFCURVE",
"176 561 CURVE",
"192 552 OFFCURVE",
"202 536 OFFCURVE",
"202 516 CURVE SMOOTH",
"202 489 OFFCURVE",
"181 468 OFFCURVE",
"155 468 CURVE SMOOTH",
"122 468 OFFCURVE",
"102 492 OFFCURVE",
"102 530 CURVE SMOOTH",
"102 640 OFFCURVE",
"193 715 OFFCURVE",
"327 715 CURVE SMOOTH",
"463 715 OFFCURVE",
"556 640 OFFCURVE",
"556 529 CURVE SMOOTH",
"556 429 OFFCURVE",
"507 366 OFFCURVE",
"371 292 CURVE SMOOTH",
"221 209 OFFCURVE",
"183 177 OFFCURVE",
"170 125 CURVE",
"320 73 OFFCURVE",
"407 50 OFFCURVE",
"458 50 CURVE SMOOTH",
"500 50 OFFCURVE",
"516 67.008 OFFCURVE",
"516 110 CURVE SMOOTH",
"516 148 LINE SMOOTH",
"516 168 OFFCURVE",
"531 184 OFFCURVE",
"550 184 CURVE SMOOTH",
"551 184 LINE SMOOTH",
"570 184 OFFCURVE",
"585 168 OFFCURVE",
"585 148 CURVE SMOOTH",
"585 110 LINE SMOOTH",
"585 31 OFFCURVE",
"538 -15 OFFCURVE",
"458 -15 CURVE SMOOTH"
);
}
);
width = 600;
},
{
associatedMasterId = "C836F59C-81CC-4411-94AE-B4087123016A";
background = {
paths = (
{
closed = 1;
nodes = (
"179 473 OFFCURVE",
"197 492 OFFCURVE",
"197 516 CURVE SMOOTH",
"197 542 OFFCURVE",
"178 561 OFFCURVE",
"152 561 CURVE",
"107 530 LINE",
"107 494 OFFCURVE",
"125 473 OFFCURVE",
"155 473 CURVE SMOOTH"
);
},
{
closed = 1;
nodes = (
"521 110 LINE SMOOTH",
"521 64 OFFCURVE",
"502 45 OFFCURVE",
"458 45 CURVE SMOOTH",
"407 45 OFFCURVE",
"317 67 OFFCURVE",
"150 127 CURVE",
"150 81 LINE",
"287 17 OFFCURVE",
"386 -10 OFFCURVE",
"458 -10 CURVE SMOOTH",
"535 -10 OFFCURVE",
"580 34 OFFCURVE",
"580 110 CURVE SMOOTH",
"580 148 LINE SMOOTH",
"580 166 OFFCURVE",
"567 179 OFFCURVE",
"551 179 CURVE SMOOTH",
"550 179 LINE SMOOTH",
"534 179 OFFCURVE",
"521 166 OFFCURVE",
"521 148 CURVE SMOOTH"
);
},
{
closed = 1;
nodes = (
"160 71 LINE SMOOTH",
"160 168 OFFCURVE",
"187 196 OFFCURVE",
"369 296 CURVE SMOOTH",
"520 379 OFFCURVE",
"551 443 OFFCURVE",
"551 529 CURVE SMOOTH",
"551 636 OFFCURVE",
"463 710 OFFCURVE",
"327 710 CURVE SMOOTH",
"196 710 OFFCURVE",
"107 637 OFFCURVE",
"107 530 CURVE",
"167 530 LINE",
"167 609 OFFCURVE",
"226 655 OFFCURVE",
"332 655 CURVE SMOOTH",
"433 655 OFFCURVE",
"491 605 OFFCURVE",
"491 527 CURVE SMOOTH",
"491 470 OFFCURVE",
"484 425 OFFCURVE",
"342 347 CURVE SMOOTH",
"161 248 OFFCURVE",
"101 198 OFFCURVE",
"101 80 CURVE SMOOTH",
"101 25 LINE SMOOTH",
"101 1 OFFCURVE",
"114 -6 OFFCURVE",
"130 -6 CURVE SMOOTH",
"132 -6 LINE SMOOTH",
"149 -6 OFFCURVE",
"160 2 OFFCURVE",
"160 25 CURVE SMOOTH"
);
}
);
};
guideLines = (
{
angle = 90;
position = "{111, 552}";
},
{
angle = 208.7866;
position = "{342, 347}";
},
{
angle = 90;
position = "{432, 45}";
},
{
angle = -18.5954;
position = "{150, 119}";
},
{
angle = 90;
position = "{551, 534}";
}
);
layerId = "23E968FC-275E-43DF-ABB4-506712FE1870";
name = "Jan 17 18, 14:59";
paths = (
{
closed = 1;
nodes = (
"179 473 OFFCURVE",
"197 492 OFFCURVE",
"197 516 CURVE SMOOTH",
"197 542 OFFCURVE",
"178 561 OFFCURVE",
"152 561 CURVE",
"107 530 LINE",
"107 494 OFFCURVE",
"125 473 OFFCURVE",
"155 473 CURVE SMOOTH"
);
},
{
closed = 1;
nodes = (
"521 110 LINE SMOOTH",
"521 64 OFFCURVE",
"502 45 OFFCURVE",
"458 45 CURVE SMOOTH",
"407 45 OFFCURVE",
"317 67 OFFCURVE",
"150 127 CURVE",
"150 81 LINE",
"287 17 OFFCURVE",
"386 -10 OFFCURVE",
"458 -10 CURVE SMOOTH",
"535 -10 OFFCURVE",
"580 34 OFFCURVE",
"580 110 CURVE SMOOTH",
"580 148 LINE SMOOTH",
"580 166 OFFCURVE",
"567 179 OFFCURVE",
"551 179 CURVE SMOOTH",
"550 179 LINE SMOOTH",
"534 179 OFFCURVE",
"521 166 OFFCURVE",
"521 148 CURVE SMOOTH"
);
},
{
closed = 1;
nodes = (
"160 71 LINE SMOOTH",
"160 168 OFFCURVE",
"187 196 OFFCURVE",
"369 296 CURVE SMOOTH",
"520 379 OFFCURVE",
"551 443 OFFCURVE",
"551 529 CURVE SMOOTH",
"551 636 OFFCURVE",
"463 710 OFFCURVE",
"327 710 CURVE SMOOTH",
"196 710 OFFCURVE",
"107 637 OFFCURVE",
"107 530 CURVE",
"167 530 LINE",
"167 609 OFFCURVE",
"226 655 OFFCURVE",
"332 655 CURVE SMOOTH",
"433 655 OFFCURVE",
"491 605 OFFCURVE",
"491 527 CURVE SMOOTH",
"491 470 OFFCURVE",
"484 425 OFFCURVE",
"342 347 CURVE SMOOTH",
"161 248 OFFCURVE",
"101 198 OFFCURVE",
"101 80 CURVE SMOOTH",
"101 25 LINE SMOOTH",
"101 1 OFFCURVE",
"114 -6 OFFCURVE",
"130 -6 CURVE SMOOTH",
"132 -6 LINE SMOOTH",
"149 -6 OFFCURVE",
"160 2 OFFCURVE",
"160 25 CURVE SMOOTH"
);
}
);
width = 600;
},
{
associatedMasterId = "C836F59C-81CC-4411-94AE-B4087123016A";
background = {
paths = (
{
closed = 1;
nodes = (
"179 473 OFFCURVE",
"197 492 OFFCURVE",
"197 516 CURVE SMOOTH",
"197 542 OFFCURVE",
"178 561 OFFCURVE",
"152 561 CURVE",
"107 530 LINE",
"107 494 OFFCURVE",
"125 473 OFFCURVE",
"155 473 CURVE SMOOTH"
);
},
{
closed = 1;
nodes = (
"521 110 LINE SMOOTH",
"521 64 OFFCURVE",
"502 45 OFFCURVE",
"458 45 CURVE SMOOTH",
"407 45 OFFCURVE",
"317 67 OFFCURVE",
"150 127 CURVE",
"150 81 LINE",
"287 17 OFFCURVE",
"386 -10 OFFCURVE",
"458 -10 CURVE SMOOTH",
"535 -10 OFFCURVE",
"580 34 OFFCURVE",
"580 110 CURVE SMOOTH",
"580 148 LINE SMOOTH",
"580 166 OFFCURVE",
"567 179 OFFCURVE",
"551 179 CURVE SMOOTH",
"550 179 LINE SMOOTH",
"534 179 OFFCURVE",
"521 166 OFFCURVE",
"521 148 CURVE SMOOTH"
);
},
{
closed = 1;
nodes = (
"160 71 LINE SMOOTH",
"160 168 OFFCURVE",
"187 196 OFFCURVE",
"369 296 CURVE SMOOTH",
"520 379 OFFCURVE",
"551 443 OFFCURVE",
"551 529 CURVE SMOOTH",
"551 636 OFFCURVE",
"463 710 OFFCURVE",
"327 710 CURVE SMOOTH",
"196 710 OFFCURVE",
"107 637 OFFCURVE",
"107 530 CURVE",
"167 530 LINE",
"167 609 OFFCURVE",
"226 655 OFFCURVE",
"332 655 CURVE SMOOTH",
"433 655 OFFCURVE",
"491 605 OFFCURVE",
"491 527 CURVE SMOOTH",
"491 470 OFFCURVE",
"484 425 OFFCURVE",
"342 347 CURVE SMOOTH",
"161 248 OFFCURVE",
"101 198 OFFCURVE",
"101 80 CURVE SMOOTH",
"101 25 LINE SMOOTH",
"101 1 OFFCURVE",
"114 -6 OFFCURVE",
"130 -6 CURVE SMOOTH",
"132 -6 LINE SMOOTH",
"149 -6 OFFCURVE",
"160 2 OFFCURVE",
"160 25 CURVE SMOOTH"
);
}
);
};
guideLines = (
{
angle = 90;
position = "{111, 552}";
},
{
angle = 208.7866;
position = "{342, 347}";
},
{
angle = 90;
position = "{432, 45}";
},
{
angle = -18.5954;
position = "{150, 119}";
},
{
angle = 90;
position = "{551, 534}";
}
);
layerId = "C9B6AB30-75C2-4672-8CE0-82933D462522";
name = "Jan 17 18, 14:59";
paths = (
{
closed = 1;
nodes = (
"179 473 OFFCURVE",
"197 492 OFFCURVE",
"197 516 CURVE SMOOTH",
"197 542 OFFCURVE",
"178 561 OFFCURVE",
"152 561 CURVE",
"107 530 LINE",
"107 494 OFFCURVE",
"125 473 OFFCURVE",
"155 473 CURVE SMOOTH"
);
},
{
closed = 1;
nodes = (
"521 110 LINE SMOOTH",
"521 64 OFFCURVE",
"502 45 OFFCURVE",
"458 45 CURVE SMOOTH",
"407 45 OFFCURVE",
"317 67 OFFCURVE",
"150 127 CURVE",
"150 81 LINE",
"287 17 OFFCURVE",
"386 -10 OFFCURVE",
"458 -10 CURVE SMOOTH",
"535 -10 OFFCURVE",
"580 34 OFFCURVE",
"580 110 CURVE SMOOTH",
"580 148 LINE SMOOTH",
"580 166 OFFCURVE",
"567 179 OFFCURVE",
"551 179 CURVE SMOOTH",
"550 179 LINE SMOOTH",
"534 179 OFFCURVE",
"521 166 OFFCURVE",
"521 148 CURVE SMOOTH"
);
},
{
closed = 1;
nodes = (
"160 71 LINE SMOOTH",
"160 168 OFFCURVE",
"187 196 OFFCURVE",
"369 296 CURVE SMOOTH",
"520 379 OFFCURVE",
"551 443 OFFCURVE",
"551 529 CURVE SMOOTH",
"551 636 OFFCURVE",
"463 710 OFFCURVE",
"327 710 CURVE SMOOTH",
"196 710 OFFCURVE",
"107 637 OFFCURVE",
"107 530 CURVE",
"167 530 LINE",
"167 609 OFFCURVE",
"226 655 OFFCURVE",
"332 655 CURVE SMOOTH",
"433 655 OFFCURVE",
"491 605 OFFCURVE",
"491 527 CURVE SMOOTH",
"491 470 OFFCURVE",
"484 425 OFFCURVE",
"342 347 CURVE SMOOTH",
"161 248 OFFCURVE",
"101 198 OFFCURVE",
"101 80 CURVE SMOOTH",
"101 25 LINE SMOOTH",
"101 1 OFFCURVE",
"114 -6 OFFCURVE",
"130 -6 CURVE SMOOTH",
"132 -6 LINE SMOOTH",
"149 -6 OFFCURVE",
"160 2 OFFCURVE",
"160 25 CURVE SMOOTH"
);
}
);
width = 600;
},
{
associatedMasterId = "120615CE-BBBA-4703-9D0A-81094A4EB7C9";
guideLines = (
{
angle = 19.8265;
position = "{388, 447}";
},
{
angle = 78.0707;
position = "{188, 27}";
}
);
layerId = "1840AE93-1B0C-4638-8C84-3E19853A1C47";
name = "Jan 18 18, 11:59";
paths = (
{
closed = 1;
nodes = (
"144 -6 LINE SMOOTH",
"167 -6 OFFCURVE",
"183 6 OFFCURVE",
"188 27 CURVE SMOOTH",
"218 169 LINE SMOOTH",
"226 206 OFFCURVE",
"243 219 OFFCURVE",
"331 251 CURVE SMOOTH",
"497 311 OFFCURVE",
"564 382 OFFCURVE",
"564 500 CURVE SMOOTH",
"564 627 OFFCURVE",
"466 710 OFFCURVE",
"310 710 CURVE SMOOTH",
"174 710 OFFCURVE",
"66 627 OFFCURVE",
"66 523 CURVE",
"237 488 LINE",
"237 541 OFFCURVE",
"266 572 OFFCURVE",
"315 572 CURVE SMOOTH",
"367 572 OFFCURVE",
"397 549 OFFCURVE",
"397 508 CURVE SMOOTH",
"397 465 OFFCURVE",
"369 440 OFFCURVE",
"289 411 CURVE SMOOTH",
"108 346 OFFCURVE",
"63 272 OFFCURVE",
"63 120 CURVE SMOOTH",
"63 45 LINE SMOOTH",
"63 16 OFFCURVE",
"85 -6 OFFCURVE",
"114 -6 CURVE SMOOTH"
);
},
{
closed = 1;
nodes = (
"522 -10 OFFCURVE",
"587 51 OFFCURVE",
"587 170 CURVE SMOOTH",
"587 188 LINE SMOOTH",
"587 217 OFFCURVE",
"565 239 OFFCURVE",
"536 239 CURVE SMOOTH",
"471 239 LINE SMOOTH",
"442 239 OFFCURVE",
"420 217 OFFCURVE",
"420 188 CURVE SMOOTH",
"420 180 LINE SMOOTH",
"420 146 OFFCURVE",
"404 128 OFFCURVE",
"374 128 CURVE SMOOTH",
"345 128 OFFCURVE",
"306 139 OFFCURVE",
"186 214 CURVE",
"104 106 LINE",
"271 -6 OFFCURVE",
"345 -10 OFFCURVE",
"395 -10 CURVE SMOOTH"
);
},
{
closed = 1;
nodes = (
"223 420 OFFCURVE",
"262 455 OFFCURVE",
"262 508 CURVE SMOOTH",
"262 564 OFFCURVE",
"220 606 OFFCURVE",
"164 606 CURVE",
"66 523 LINE",
"66 462 OFFCURVE",
"106 420 OFFCURVE",
"164 420 CURVE SMOOTH"
);
},
{
closed = 0;
nodes = (
"371 81 LINE SMOOTH",
"444 81 OFFCURVE",
"485 130 OFFCURVE",
"485 157 CURVE",
"619 105 LINE",
"619 8 OFFCURVE",
"515 -57 OFFCURVE",
"361 -57 CURVE SMOOTH"
);
},
{
closed = 1;
nodes = (
"619 105 LINE",
"619 166 OFFCURVE",
"579 208 OFFCURVE",
"521 208 CURVE SMOOTH",
"462 208 OFFCURVE",
"423 173 OFFCURVE",
"423 120 CURVE SMOOTH",
"423 64 OFFCURVE",
"465 22 OFFCURVE",
"521 22 CURVE"
);
}
);
width = 600;
},
{
associatedMasterId = "120615CE-BBBA-4703-9D0A-81094A4EB7C9";
guideLines = (
{
angle = 19.8265;
position = "{388, 447}";
},
{
angle = 90;
position = "{218, 62}";
}
);
layerId = "738C2DDC-76F1-4DE6-B354-EB6208C5185E";
name = "Jan 18 18, 12:04";
paths = (
{
closed = 1;
nodes = (
"218 1 LINE",
"218 158 LINE SMOOTH",
"218 195 OFFCURVE",
"243 219 OFFCURVE",
"331 251 CURVE SMOOTH",
"497 311 OFFCURVE",
"564 382 OFFCURVE",
"564 500 CURVE SMOOTH",
"564 627 OFFCURVE",
"466 710 OFFCURVE",
"310 710 CURVE SMOOTH",
"174 710 OFFCURVE",
"66 627 OFFCURVE",
"66 523 CURVE",
"237 488 LINE",
"237 541 OFFCURVE",
"266 572 OFFCURVE",
"315 572 CURVE SMOOTH",
"367 572 OFFCURVE",
"397 549 OFFCURVE",
"397 508 CURVE SMOOTH",
"397 465 OFFCURVE",
"369 440 OFFCURVE",
"289 411 CURVE SMOOTH",
"108 346 OFFCURVE",
"63 303 OFFCURVE",
"63 151 CURVE SMOOTH",
"63 51 LINE SMOOTH",
"63 22 OFFCURVE",
"85 0 OFFCURVE",
"114 0 CURVE"
);
},
{
closed = 1;
nodes = (
"508 0 OFFCURVE",
"581 65 OFFCURVE",
"581 162 CURVE",
"447 214 LINE",
"447 187 OFFCURVE",
"406 138 OFFCURVE",
"374 138 CURVE SMOOTH",
"118 138 LINE",
"114 0 LINE",
"402 0 LINE SMOOTH"
);
},
{
closed = 1;
nodes = (
"223 420 OFFCURVE",
"262 455 OFFCURVE",
"262 508 CURVE SMOOTH",
"262 564 OFFCURVE",
"220 606 OFFCURVE",
"164 606 CURVE",
"66 523 LINE",
"66 462 OFFCURVE",
"106 420 OFFCURVE",
"164 420 CURVE SMOOTH"
);
},
{
closed = 1;
nodes = (
"581 162 LINE",
"581 223 OFFCURVE",
"541 265 OFFCURVE",
"483 265 CURVE SMOOTH",
"424 265 OFFCURVE",
"385 230 OFFCURVE",
"385 177 CURVE SMOOTH",
"385 121 OFFCURVE",
"427 79 OFFCURVE",
"483 79 CURVE"
);
}
);
width = 600;
},
{
associatedMasterId = "C836F59C-81CC-4411-94AE-B4087123016A";
background = {
paths = (
{
closed = 1;
nodes = (
"175 473 OFFCURVE",
"193 492 OFFCURVE",
"193 516 CURVE SMOOTH",
"193 542 OFFCURVE",
"174 561 OFFCURVE",
"148 561 CURVE",
"103 530 LINE",
"103 494 OFFCURVE",
"121 473 OFFCURVE",
"151 473 CURVE SMOOTH"
);
},
{
closed = 1;
nodes = (
"517 110 LINE SMOOTH",
"517 64 OFFCURVE",
"498 45 OFFCURVE",
"454 45 CURVE SMOOTH",
"403 45 OFFCURVE",
"313 67 OFFCURVE",
"146 127 CURVE",
"146 81 LINE",
"283 17 OFFCURVE",
"382 -10 OFFCURVE",
"454 -10 CURVE SMOOTH",
"531 -10 OFFCURVE",
"576 34 OFFCURVE",
"576 110 CURVE SMOOTH",
"576 148 LINE SMOOTH",
"576 166 OFFCURVE",
"563 179 OFFCURVE",
"547 179 CURVE SMOOTH",
"546 179 LINE SMOOTH",
"530 179 OFFCURVE",
"517 166 OFFCURVE",
"517 148 CURVE SMOOTH"
);
},
{
closed = 1;
nodes = (
"156 71 LINE SMOOTH",
"156 168 OFFCURVE",
"183 196 OFFCURVE",
"365 296 CURVE SMOOTH",
"516 379 OFFCURVE",
"547 443 OFFCURVE",
"547 529 CURVE SMOOTH",
"547 636 OFFCURVE",
"459 710 OFFCURVE",
"323 710 CURVE SMOOTH",
"192 710 OFFCURVE",
"103 637 OFFCURVE",
"103 530 CURVE",
"163 530 LINE",
"163 609 OFFCURVE",
"222 655 OFFCURVE",
"328 655 CURVE SMOOTH",
"429 655 OFFCURVE",
"487 605 OFFCURVE",
"487 527 CURVE SMOOTH",
"487 470 OFFCURVE",
"480 425 OFFCURVE",
"338 347 CURVE SMOOTH",
"157 248 OFFCURVE",
"97 198 OFFCURVE",
"97 80 CURVE SMOOTH",
"97 25 LINE SMOOTH",
"97 1 OFFCURVE",
"110 -6 OFFCURVE",
"126 -6 CURVE SMOOTH",
"128 -6 LINE SMOOTH",
"145 -6 OFFCURVE",
"156 2 OFFCURVE",
"156 25 CURVE SMOOTH"
);
}
);
};
guideLines = (
{
angle = 90;
position = "{97, 80}";
},
{
angle = 19.8265;
position = "{338, 347}";
},
{
angle = 90;
position = "{428, 45}";
},
{
angle = 90;
position = "{547, 534}";
}
);
layerId = "E12A8E2C-0CCE-4AD5-A774-1B198E73EFD4";
name = "Jan 18 18, 12:08";
paths = (
{
closed = 1;
nodes = (
"128 -6 LINE SMOOTH",
"145 -6 OFFCURVE",
"156 2 OFFCURVE",
"156 25 CURVE SMOOTH",
"156 101 LINE SMOOTH",
"156 198 OFFCURVE",
"172 226 OFFCURVE",
"365 296 CURVE SMOOTH",
"512 349 OFFCURVE",
"547 427 OFFCURVE",
"547 513 CURVE SMOOTH",
"547 620 OFFCURVE",
"459 710 OFFCURVE",
"323 710 CURVE SMOOTH",
"192 710 OFFCURVE",
"103 637 OFFCURVE",
"103 530 CURVE",
"163 530 LINE",
"163 609 OFFCURVE",
"222 655 OFFCURVE",
"328 655 CURVE SMOOTH",
"431 655 OFFCURVE",
"487 591 OFFCURVE",
"487 511 CURVE SMOOTH",
"487 454 OFFCURVE",
"476 397 OFFCURVE",
"338 347 CURVE SMOOTH",
"145 277 OFFCURVE",
"97 228 OFFCURVE",
"97 110 CURVE SMOOTH",
"97 25 LINE SMOOTH",
"97 1 OFFCURVE",
"110 -6 OFFCURVE",
"126 -6 CURVE SMOOTH"
);
},
{
closed = 1;
nodes = (
"530 -10 OFFCURVE",
"575 34 OFFCURVE",
"575 110 CURVE SMOOTH",
"575 148 LINE SMOOTH",
"575 166 OFFCURVE",
"562 179 OFFCURVE",
"546 179 CURVE SMOOTH",
"545 179 LINE SMOOTH",
"529 179 OFFCURVE",
"516 166 OFFCURVE",
"516 148 CURVE SMOOTH",
"516 110 LINE SMOOTH",
"516 64 OFFCURVE",
"497 45 OFFCURVE",
"453 45 CURVE SMOOTH",
"402 45 OFFCURVE",
"312 67 OFFCURVE",
"145 127 CURVE",
"145 74 LINE",
"282 17 OFFCURVE",
"381 -10 OFFCURVE",
"453 -10 CURVE SMOOTH"
);
},
{
closed = 1;
nodes = (
"175 473 OFFCURVE",
"193 492 OFFCURVE",
"193 516 CURVE SMOOTH",
"193 542 OFFCURVE",
"174 561 OFFCURVE",
"148 561 CURVE",
"103 530 LINE",
"103 494 OFFCURVE",
"121 473 OFFCURVE",
"151 473 CURVE SMOOTH"
);
}
);
width = 663;
},
{
associatedMasterId = "120615CE-BBBA-4703-9D0A-81094A4EB7C9";
guideLines = (
{
angle = 19.8265;
position = "{388, 447}";
},
{
angle = 90;
position = "{218, 62}";
},
{
angle = 90;
position = "{231, 117}";
},
{
angle = 90;
position = "{63, 117}";
}
);
layerId = "4613BA5A-5238-4B85-84D2-9BC0883849E8";
name = "Jan 18 18, 14:53";
paths = (
{
closed = 1;
nodes = (
"231 1 LINE",
"231 94 LINE SMOOTH",
"231 194 OFFCURVE",
"246 217 OFFCURVE",
"331 248 CURVE SMOOTH",
"498 308 OFFCURVE",
"564 380 OFFCURVE",
"564 500 CURVE SMOOTH",
"564 628 OFFCURVE",
"465 710 OFFCURVE",
"310 710 CURVE SMOOTH",
"174 710 OFFCURVE",
"66 627 OFFCURVE",
"66 523 CURVE",
"237 488 LINE",
"237 544 OFFCURVE",
"265 572 OFFCURVE",
"322 572 CURVE SMOOTH",
"368 572 OFFCURVE",
"397 547 OFFCURVE",
"397 508 CURVE SMOOTH",
"397 462 OFFCURVE",
"370 437 OFFCURVE",
"289 408 CURVE SMOOTH",
"117 346 OFFCURVE",
"63 277 OFFCURVE",
"63 117 CURVE SMOOTH",
"63 51 LINE SMOOTH",
"63 22 OFFCURVE",
"85 0 OFFCURVE",
"114 0 CURVE"
);
},
{
closed = 1;
nodes = (
"223 420 OFFCURVE",
"262 455 OFFCURVE",
"262 508 CURVE SMOOTH",
"262 564 OFFCURVE",
"220 606 OFFCURVE",
"164 606 CURVE",
"66 523 LINE",
"66 462 OFFCURVE",
"106 420 OFFCURVE",
"164 420 CURVE SMOOTH"
);
},
{
closed = 1;
nodes = (
"515 0 LINE SMOOTH",
"550 0 OFFCURVE",
"576 25 OFFCURVE",
"576 59 CURVE SMOOTH",
"576 202 LINE SMOOTH",
"576 234 OFFCURVE",
"560 251 OFFCURVE",
"530 251 CURVE SMOOTH",
"484 251 LINE SMOOTH",
"454 251 OFFCURVE",
"438 234 OFFCURVE",
"438 202 CURVE SMOOTH",
"438 63 LINE",
"513 140 LINE",
"175 137 LINE",
"175 0 LINE"
);
}
);
width = 600;
}
);
leftKerningGroup = two;
rightKerningGroup = two;
unicode = 0032;
},
{
color = 1;
glyphname = three;
layers = (
{
background = {
paths = (
{
closed = 1;
nodes = (
"235 426 OFFCURVE",
"213 404 OFFCURVE",
"213 375 CURVE SMOOTH",
"213 339 LINE SMOOTH",
"213 310 OFFCURVE",
"235 288 OFFCURVE",
"264 288 CURVE SMOOTH",
"305 288 LINE SMOOTH",
"385 288 OFFCURVE",
"417 268 OFFCURVE",
"417 217 CURVE SMOOTH",
"417 149 OFFCURVE",
"381 128 OFFCURVE",
"283 128 CURVE SMOOTH",
"246 128 LINE",
"246 -10 LINE",
"294 -10 LINE SMOOTH",
"477 -10 OFFCURVE",
"588 71 OFFCURVE",
"588 214 CURVE SMOOTH",
"588 311 OFFCURVE",
"523 377 OFFCURVE",
"416 388 CURVE",
"417 375 LINE",
"506 399 OFFCURVE",
"555 456 OFFCURVE",
"555 536 CURVE SMOOTH",
"555 658 OFFCURVE",
"471 710 OFFCURVE",
"292 710 CURVE SMOOTH",
"236 710 LINE",
"236 572 LINE",
"281 572 LINE SMOOTH",
"358 572 OFFCURVE",
"384 556 OFFCURVE",
"384 498 CURVE SMOOTH",
"384 447 OFFCURVE",
"353 426 OFFCURVE",
"275 426 CURVE SMOOTH",
"264 426 LINE SMOOTH"
);
}
);
};
layerId = "120615CE-BBBA-4703-9D0A-81094A4EB7C9";
paths = (
{
closed = 1;
nodes = (
"470 -10 OFFCURVE",
"577 79 OFFCURVE",
"577 209 CURVE SMOOTH",
"577 314 OFFCURVE",
"512 386 OFFCURVE",
"405 397 CURVE",
"413 356 LINE",
"501 380 OFFCURVE",
"551 440 OFFCURVE",
"551 522 CURVE SMOOTH",
"551 637 OFFCURVE",
"452 710 OFFCURVE",
"298 710 CURVE SMOOTH",
"155 710 OFFCURVE",
"50 634 OFFCURVE",
"50 531 CURVE",
"221 496 LINE",
"221 552 OFFCURVE",
"241 572 OFFCURVE",
"298 572 CURVE SMOOTH",
"347 572 OFFCURVE",
"380 542 OFFCURVE",
"380 498 CURVE SMOOTH",
"380 447 OFFCURVE",
"359 426 OFFCURVE",
"310 426 CURVE SMOOTH",
"283 426 LINE SMOOTH",
"254 426 OFFCURVE",
"232 404 OFFCURVE",
"232 375 CURVE SMOOTH",
"232 339 LINE SMOOTH",
"232 310 OFFCURVE",
"254 288 OFFCURVE",
"283 288 CURVE SMOOTH",
"314 288 LINE SMOOTH",
"377 288 OFFCURVE",
"406 266 OFFCURVE",
"406 217 CURVE SMOOTH",
"406 159 OFFCURVE",
"373 128 OFFCURVE",
"311 128 CURVE SMOOTH",
"247 128 OFFCURVE",
"216 153 OFFCURVE",
"216 204 CURVE",
"45 169 LINE",
"45 62 OFFCURVE",
"157 -10 OFFCURVE",
"308 -10 CURVE SMOOTH"
);
},
{
closed = 1;
nodes = (
"199 86 OFFCURVE",
"241 128 OFFCURVE",
"241 184 CURVE SMOOTH",
"241 237 OFFCURVE",
"202 272 OFFCURVE",
"143 272 CURVE SMOOTH",
"85 272 OFFCURVE",
"45 230 OFFCURVE",
"45 169 CURVE",
"143 86 LINE"
);
},
{
closed = 1;
nodes = (
"207 428 OFFCURVE",
"246 463 OFFCURVE",
"246 516 CURVE SMOOTH",
"246 572 OFFCURVE",
"204 614 OFFCURVE",
"148 614 CURVE",
"50 531 LINE",
"50 470 OFFCURVE",
"90 428 OFFCURVE",
"148 428 CURVE SMOOTH"
);
}
);
width = 622;
},
{
background = {
paths = (
{
closed = 1;
nodes = (
"129 473 OFFCURVE",
"147 492 OFFCURVE",
"147 516 CURVE SMOOTH",
"147 542 OFFCURVE",
"128 561 OFFCURVE",
"102 561 CURVE",
"57 530 LINE",
"57 494 OFFCURVE",
"75 473 OFFCURVE",
"105 473 CURVE SMOOTH"
);
},
{
closed = 0;
nodes = (
"273 710 LINE",
"146 710 OFFCURVE",
"57 627 OFFCURVE",
"57 530 CURVE",
"117 530 LINE",
"117 599 OFFCURVE",
"176 655 OFFCURVE",
"278 655 CURVE SMOOTH",
"407 655 OFFCURVE",
"461 611 OFFCURVE",
"461 528 CURVE SMOOTH",
"461 443 OFFCURVE",
"393 395 OFFCURVE",
"277 395 CURVE SMOOTH",
"130 395 LINE",
"130 340 LINE",
"304 340 LINE SMOOTH",
"428 340 OFFCURVE",
"493 296 OFFCURVE",
"493 213 CURVE SMOOTH",
"493 104 OFFCURVE",
"420 45 OFFCURVE",
"258 45 CURVE",
"272 -10 LINE",
"452 -10 OFFCURVE",
"553 78 OFFCURVE",
"553 211 CURVE SMOOTH",
"553 300 OFFCURVE",
"499 363 OFFCURVE",
"400 385 CURVE",
"405 373 LINE",
"481 409 OFFCURVE",
"521 464 OFFCURVE",
"521 534 CURVE SMOOTH",
"521 644 OFFCURVE",
"443 710 OFFCURVE",
"288 710 CURVE"
);
},
{
closed = 1;
nodes = (
"73 227 OFFCURVE",
"55 206 OFFCURVE",
"55 170 CURVE",
"100 139 LINE",
"126 139 OFFCURVE",
"145 158 OFFCURVE",
"145 184 CURVE SMOOTH",
"145 208 OFFCURVE",
"127 227 OFFCURVE",
"103 227 CURVE SMOOTH"
);
},
{
closed = 0;
nodes = (
"276 45 LINE",
"174 45 OFFCURVE",
"115 101 OFFCURVE",
"115 170 CURVE",
"55 170 LINE",
"55 73 OFFCURVE",
"144 -10 OFFCURVE",
"271 -10 CURVE"
);
}
);
};
layerId = "C836F59C-81CC-4411-94AE-B4087123016A";
paths = (
{
closed = 1;
nodes = (
"468 -10 OFFCURVE",
"552 85 OFFCURVE",
"552 200 CURVE SMOOTH",
"552 300 OFFCURVE",
"498 363 OFFCURVE",
"399 385 CURVE",
"412 357 LINE",
"492 393 OFFCURVE",
"528 446 OFFCURVE",
"528 523 CURVE SMOOTH",
"528 608 OFFCURVE",
"468 710 OFFCURVE",
"300 710 CURVE SMOOTH",
"166 710 OFFCURVE",
"75 631 OFFCURVE",
"75 530 CURVE",
"135 530 LINE",
"135 603 OFFCURVE",
"198 655 OFFCURVE",
"298 655 CURVE SMOOTH",
"434 655 OFFCURVE",
"468 575 OFFCURVE",
"468 517 CURVE SMOOTH",
"468 419 OFFCURVE",
"400 395 OFFCURVE",
"287 395 CURVE SMOOTH",
"246 395 LINE SMOOTH",
"235 395 OFFCURVE",
"226 386 OFFCURVE",
"226 375 CURVE SMOOTH",
"226 360 LINE SMOOTH",
"226 349 OFFCURVE",
"235 340 OFFCURVE",
"246 340 CURVE SMOOTH",
"306 340 LINE SMOOTH",
"427 340 OFFCURVE",
"492 296 OFFCURVE",
"492 202 CURVE SMOOTH",
"492 111 OFFCURVE",
"429 45 OFFCURVE",
"311 45 CURVE SMOOTH",
"208 45 OFFCURVE",
"124 85 OFFCURVE",
"124 170 CURVE",
"64 170 LINE",
"64 57 OFFCURVE",
"178 -10 OFFCURVE",
"306 -10 CURVE SMOOTH"
);
},
{
closed = 1;
nodes = (
"135 139 OFFCURVE",
"154 158 OFFCURVE",
"154 184 CURVE SMOOTH",
"154 208 OFFCURVE",
"136 227 OFFCURVE",
"112 227 CURVE SMOOTH",
"82 227 OFFCURVE",
"64 206 OFFCURVE",
"64 170 CURVE",
"109 139 LINE"
);
},
{
closed = 1;
nodes = (
"147 473 OFFCURVE",
"165 492 OFFCURVE",
"165 516 CURVE SMOOTH",
"165 542 OFFCURVE",
"146 561 OFFCURVE",
"120 561 CURVE",
"75 530 LINE",
"75 494 OFFCURVE",
"93 473 OFFCURVE",
"123 473 CURVE SMOOTH"
);
}
);
width = 622;
}
);
leftKerningGroup = three;
rightKerningGroup = three;
unicode = 0033;
},
{
color = 1;
glyphname = four;
layers = (
{
hints = (
{
origin = "{0, 0}";
type = Corner;
name = _corner.rightSerif;
options = 1;
},
{
origin = "{0, 29}";
type = Corner;
name = _corner.leftSerif;
}
);
layerId = "120615CE-BBBA-4703-9D0A-81094A4EB7C9";
paths = (
{
closed = 1;
nodes = (
"489 0 LINE",
"489 649 LINE SMOOTH",
"489 678 OFFCURVE",
"467 700 OFFCURVE",
"438 700 CURVE SMOOTH",
"330 700 LINE SMOOTH",
"299 700 OFFCURVE",
"281 688 OFFCURVE",
"262 659 CURVE SMOOTH",
"54 348 LINE SMOOTH",
"37 323 OFFCURVE",
"29 307 OFFCURVE",
"29 270 CURVE SMOOTH",
"29 241 LINE SMOOTH",
"29 212 OFFCURVE",
"51 190 OFFCURVE",
"80 190 CURVE SMOOTH",
"550 190 LINE SMOOTH",
"579 190 OFFCURVE",
"601 212 OFFCURVE",
"601 241 CURVE SMOOTH",
"601 277 LINE SMOOTH",
"601 306 OFFCURVE",
"579 328 OFFCURVE",
"550 328 CURVE SMOOTH",
"112 328 LINE",
"155 290 LINE",
"330 552 LINE",
"322 563 LINE",
"322 0 LINE"
);
}
);
width = 631;
},
{
hints = (
{
origin = "{0, 29}";
type = Corner;
name = _corner.leftSerif;
},
{
origin = "{0, 0}";
type = Corner;
name = _corner.rightSerif;
options = 1;
}
);
layerId = "C836F59C-81CC-4411-94AE-B4087123016A";
paths = (
{
closed = 1;
nodes = (
"454 0 LINE",
"454 669 LINE SMOOTH",
"454 693 OFFCURVE",
"441 700 OFFCURVE",
"425 700 CURVE SMOOTH",
"413 700 LINE SMOOTH",
"401 700 OFFCURVE",
"392 695 OFFCURVE",
"385 686 CURVE SMOOTH",
"57 263 LINE SMOOTH",
"50 254 OFFCURVE",
"47 247 OFFCURVE",
"47 232 CURVE SMOOTH",
"47 215 LINE SMOOTH",
"47 204 OFFCURVE",
"56 195 OFFCURVE",
"67 195 CURVE SMOOTH",
"556 195 LINE SMOOTH",
"567 195 OFFCURVE",
"576 204 OFFCURVE",
"576 215 CURVE SMOOTH",
"576 230 LINE SMOOTH",
"576 241 OFFCURVE",
"567 250 OFFCURVE",
"556 250 CURVE SMOOTH",
"82 250 LINE",
"97 225 LINE",
"421 643 LINE",
"395 658 LINE",
"395 0 LINE"
);
}
);
width = 621;
},
{
associatedMasterId = "C836F59C-81CC-4411-94AE-B4087123016A";
layerId = "596F5511-24C7-4D68-AA04-C50EC0DAAAED";
name = "Jan 17 18, 14:00";
paths = (
{
closed = 1;
nodes = (
"473 700 LINE",
"438 700 LINE",
"110 250 LINE",
"145 250 LINE"
);
},
{
closed = 1;
nodes = (
"497 700 LINE",
"438 700 LINE",
"438 28 LINE",
"465 55 LINE",
"355 55 LINE SMOOTH",
"337 55 OFFCURVE",
"329 47 OFFCURVE",
"329 36 CURVE SMOOTH",
"329 19 LINE SMOOTH",
"329 8 OFFCURVE",
"337 0 OFFCURVE",
"355 0 CURVE SMOOTH",
"580 0 LINE SMOOTH",
"598 0 OFFCURVE",
"606 8 OFFCURVE",
"606 19 CURVE SMOOTH",
"606 36 LINE SMOOTH",
"606 47 OFFCURVE",
"598 55 OFFCURVE",
"580 55 CURVE SMOOTH",
"470 55 LINE",
"497 28 LINE"
);
},
{
closed = 1;
nodes = (
"599 195 LINE SMOOTH",
"610 195 OFFCURVE",
"619 204 OFFCURVE",
"619 215 CURVE SMOOTH",
"619 230 LINE SMOOTH",
"619 241 OFFCURVE",
"610 250 OFFCURVE",
"599 250 CURVE SMOOTH",
"110 250 LINE",
"110 195 LINE"
);
}
);
width = 752;
}
);
leftKerningGroup = four;
rightKerningGroup = four;
unicode = 0034;
},
{
color = 1;
glyphname = five;
layers = (
{
background = {
paths = (
{
closed = 1;
nodes = (
"202 50 OFFCURVE",
"244 92 OFFCURVE",
"244 148 CURVE SMOOTH",
"244 201 OFFCURVE",
"205 236 OFFCURVE",
"146 236 CURVE SMOOTH",
"88 236 OFFCURVE",
"48 194 OFFCURVE",
"48 133 CURVE",
"146 50 LINE"
);
},
{
closed = 1;
nodes = (
"510 561 OFFCURVE",
"536 586 OFFCURVE",
"536 620 CURVE SMOOTH",
"536 641 LINE SMOOTH",
"536 675 OFFCURVE",
"510 700 OFFCURVE",
"475 700 CURVE SMOOTH",
"158 700 LINE SMOOTH",
"133 700 OFFCURVE",
"113 682 OFFCURVE",
"110 657 CURVE SMOOTH",
"74 366 LINE SMOOTH",
"73 358 OFFCURVE",
"72 346 OFFCURVE",
"72 342 CURVE SMOOTH",
"72 312 OFFCURVE",
"99 288 OFFCURVE",
"132 288 CURVE SMOOTH",
"168 288 OFFCURVE",
"205 318 OFFCURVE",
"280 318 CURVE SMOOTH",
"345 318 OFFCURVE",
"383 282 OFFCURVE",
"383 222 CURVE SMOOTH",
"383 168 OFFCURVE",
"341 128 OFFCURVE",
"283 128 CURVE SMOOTH",
"233 128 OFFCURVE",
"219 137 OFFCURVE",
"219 168 CURVE",
"48 133 LINE",
"48 50 OFFCURVE",
"146 -10 OFFCURVE",
"282 -10 CURVE SMOOTH",
"439 -10 OFFCURVE",
"554 89 OFFCURVE",
"554 224 CURVE SMOOTH",
"554 366 OFFCURVE",
"464 456 OFFCURVE",
"320 456 CURVE SMOOTH",
"273 456 OFFCURVE",
"246 449 OFFCURVE",
"170 419 CURVE",
"233 370 LINE",
"266 637 LINE",
"191 563 LINE",
"475 561 LINE SMOOTH"
);
}
);
};
guideLines = (
{
angle = 266.3987;
position = "{92, 627}";
},
{
angle = 201.2505;
position = "{188, 308}";
},
{
position = "{272, 326}";
},
{
position = "{85, 514}";
}
);
layerId = "120615CE-BBBA-4703-9D0A-81094A4EB7C9";
paths = (
{
closed = 1;
nodes = (
"202 57 OFFCURVE",
"244 99 OFFCURVE",
"244 155 CURVE SMOOTH",
"244 208 OFFCURVE",
"205 243 OFFCURVE",
"146 243 CURVE SMOOTH",
"88 243 OFFCURVE",
"48 201 OFFCURVE",
"48 140 CURVE",
"146 57 LINE"
);
},
{
closed = 1;
nodes = (
"510 561 OFFCURVE",
"536 586 OFFCURVE",
"536 620 CURVE SMOOTH",
"536 641 LINE SMOOTH",
"536 675 OFFCURVE",
"510 700 OFFCURVE",
"475 700 CURVE SMOOTH",
"167 700 LINE SMOOTH",
"120 700 OFFCURVE",
"95 675 OFFCURVE",
"92 627 CURVE SMOOTH",
"83 484 OFFCURVE",
"76 361 OFFCURVE",
"76 342 CURVE SMOOTH",
"76 309 OFFCURVE",
"93 295 OFFCURVE",
"135 295 CURVE SMOOTH",
"153 295 OFFCURVE",
"170 301 OFFCURVE",
"188 308 CURVE SMOOTH",
"211 317 OFFCURVE",
"236 326 OFFCURVE",
"272 326 CURVE SMOOTH",
"343 326 OFFCURVE",
"383 291 OFFCURVE",
"383 228 CURVE SMOOTH",
"383 168 OFFCURVE",
"344 128 OFFCURVE",
"283 128 CURVE SMOOTH",
"237 128 OFFCURVE",
"219 141 OFFCURVE",
"219 175 CURVE",
"48 140 LINE",
"48 53 OFFCURVE",
"146 -10 OFFCURVE",
"282 -10 CURVE SMOOTH",
"447 -10 OFFCURVE",
"554 86 OFFCURVE",
"554 235 CURVE SMOOTH",
"554 377 OFFCURVE",
"472 464 OFFCURVE",
"313 464 CURVE SMOOTH",
"238 464 OFFCURVE",
"185 436 OFFCURVE",
"159 383 CURVE",
"240 375 LINE",
"255 637 LINE",
"181 563 LINE",
"475 561 LINE SMOOTH"
);
}
);
width = 601;
},
{
background = {
hints = (
{
origin = "{0, 12}";
type = Corner;
name = _corner.leftSerif;
}
);
paths = (
{
closed = 1;
nodes = (
"448 -10 OFFCURVE",
"545 83 OFFCURVE",
"545 222 CURVE SMOOTH",
"545 358 OFFCURVE",
"451 448 OFFCURVE",
"309 448 CURVE SMOOTH",
"242 448 OFFCURVE",
"187 428 OFFCURVE",
"133 385 CURVE",
"165 383 LINE",
"201 675 LINE",
"167 645 LINE",
"517 645 LINE",
"517 680 LINE SMOOTH",
"517 691 OFFCURVE",
"508 700 OFFCURVE",
"497 700 CURVE SMOOTH",
"174 700 LINE SMOOTH",
"159 700 OFFCURVE",
"147 690 OFFCURVE",
"145 674 CURVE SMOOTH",
"104 342 LINE",
"104 330 OFFCURVE",
"111 327 OFFCURVE",
"122 327 CURVE",
"127 327 OFFCURVE",
"133 330 OFFCURVE",
"137 332 CURVE",
"183 374 OFFCURVE",
"234 393 OFFCURVE",
"300 393 CURVE SMOOTH",
"419 393 OFFCURVE",
"485 333 OFFCURVE",
"485 223 CURVE SMOOTH",
"485 111 OFFCURVE",
"417 45 OFFCURVE",
"300 45 CURVE SMOOTH",
"196 45 OFFCURVE",
"125 96 OFFCURVE",
"125 170 CURVE",
"65 170 LINE",
"65 67 OFFCURVE",
"166 -10 OFFCURVE",
"301 -10 CURVE SMOOTH"
);
},
{
closed = 1;
nodes = (
"136 139 OFFCURVE",
"155 158 OFFCURVE",
"155 184 CURVE SMOOTH",
"155 208 OFFCURVE",
"137 227 OFFCURVE",
"113 227 CURVE SMOOTH",
"83 227 OFFCURVE",
"65 206 OFFCURVE",
"65 170 CURVE",
"110 139 LINE"
);
}
);
};
guideLines = (
{
angle = 266.6542;
position = "{123, 674}";
},
{
angle = 36.2538;
position = "{153, 346}";
}
);
layerId = "C836F59C-81CC-4411-94AE-B4087123016A";
paths = (
{
closed = 1;
nodes = (
"136 139 OFFCURVE",
"155 158 OFFCURVE",
"155 184 CURVE SMOOTH",
"155 208 OFFCURVE",
"137 227 OFFCURVE",
"113 227 CURVE SMOOTH",
"83 227 OFFCURVE",
"65 206 OFFCURVE",
"65 170 CURVE",
"110 139 LINE"
);
},
{
closed = 1;
nodes = (
"506 645 OFFCURVE",
"515 654 OFFCURVE",
"515 665 CURVE SMOOTH",
"515 680 LINE SMOOTH",
"515 691 OFFCURVE",
"506 700 OFFCURVE",
"495 700 CURVE SMOOTH",
"152 700 LINE SMOOTH",
"136 700 OFFCURVE",
"124 689 OFFCURVE",
"123 674 CURVE SMOOTH",
"115 541 OFFCURVE",
"104 355 OFFCURVE",
"104 345 CURVE SMOOTH",
"104 333 OFFCURVE",
"108 328 OFFCURVE",
"120 328 CURVE SMOOTH",
"128 328 OFFCURVE",
"134 332 OFFCURVE",
"153 346 CURVE SMOOTH",
"187 371 OFFCURVE",
"229 402 OFFCURVE",
"305 402 CURVE SMOOTH",
"418 402 OFFCURVE",
"485 336 OFFCURVE",
"485 227 CURVE SMOOTH",
"485 113 OFFCURVE",
"415 45 OFFCURVE",
"300 45 CURVE SMOOTH",
"196 45 OFFCURVE",
"125 96 OFFCURVE",
"125 170 CURVE",
"65 170 LINE",
"65 67 OFFCURVE",
"166 -10 OFFCURVE",
"301 -10 CURVE SMOOTH",
"446 -10 OFFCURVE",
"545 86 OFFCURVE",
"545 226 CURVE SMOOTH",
"545 364 OFFCURVE",
"453 457 OFFCURVE",
"317 457 CURVE SMOOTH",
"247 457 OFFCURVE",
"188 435 OFFCURVE",
"134 389 CURVE",
"163 383 LINE",
"179 675 LINE",
"145 645 LINE",
"495 645 LINE SMOOTH"
);
}
);
width = 609;
},
{
associatedMasterId = "120615CE-BBBA-4703-9D0A-81094A4EB7C9";
background = {
paths = (
{
closed = 1;
nodes = (
"182 50 OFFCURVE",
"224 92 OFFCURVE",
"224 148 CURVE SMOOTH",
"224 201 OFFCURVE",
"185 236 OFFCURVE",
"126 236 CURVE SMOOTH",
"68 236 OFFCURVE",
"28 194 OFFCURVE",
"28 133 CURVE",
"126 50 LINE"
);
},
{
closed = 1;
nodes = (
"490 561 OFFCURVE",
"516 586 OFFCURVE",
"516 620 CURVE SMOOTH",
"516 641 LINE SMOOTH",
"516 675 OFFCURVE",
"490 700 OFFCURVE",
"455 700 CURVE SMOOTH",
"138 700 LINE SMOOTH",
"113 700 OFFCURVE",
"93 682 OFFCURVE",
"90 657 CURVE SMOOTH",
"54 366 LINE SMOOTH",
"53 358 OFFCURVE",
"52 346 OFFCURVE",
"52 342 CURVE SMOOTH",
"52 312 OFFCURVE",
"79 288 OFFCURVE",
"112 288 CURVE SMOOTH",
"148 288 OFFCURVE",
"185 318 OFFCURVE",
"260 318 CURVE SMOOTH",
"325 318 OFFCURVE",
"363 282 OFFCURVE",
"363 222 CURVE SMOOTH",
"363 168 OFFCURVE",
"321 128 OFFCURVE",
"263 128 CURVE SMOOTH",
"213 128 OFFCURVE",
"199 137 OFFCURVE",
"199 168 CURVE",
"28 133 LINE",
"28 50 OFFCURVE",
"126 -10 OFFCURVE",
"262 -10 CURVE SMOOTH",
"419 -10 OFFCURVE",
"534 89 OFFCURVE",
"534 224 CURVE SMOOTH",
"534 366 OFFCURVE",
"444 456 OFFCURVE",
"300 456 CURVE SMOOTH",
"253 456 OFFCURVE",
"226 449 OFFCURVE",
"150 419 CURVE",
"213 370 LINE",
"246 637 LINE",
"171 563 LINE",
"455 561 LINE SMOOTH"
);
}
);
};
guideLines = (
{
angle = 262.9666;
position = "{96, 657}";
},
{
angle = 90;
position = "{534, 229}";
}
);
layerId = "DC8E1070-B5B1-4B9A-8985-28F1E6EFBEB1";
name = "Jan 22 18, 22:54";
paths = (
{
closed = 1;
nodes = (
"182 50 OFFCURVE",
"224 92 OFFCURVE",
"224 148 CURVE SMOOTH",
"224 201 OFFCURVE",
"185 236 OFFCURVE",
"126 236 CURVE SMOOTH",
"68 236 OFFCURVE",
"28 194 OFFCURVE",
"28 133 CURVE",
"126 50 LINE"
);
},
{
closed = 1;
nodes = (
"490 561 OFFCURVE",
"516 586 OFFCURVE",
"516 620 CURVE SMOOTH",
"516 641 LINE SMOOTH",
"516 675 OFFCURVE",
"490 700 OFFCURVE",
"455 700 CURVE SMOOTH",
"138 700 LINE SMOOTH",
"113 700 OFFCURVE",
"93 682 OFFCURVE",
"90 657 CURVE SMOOTH",
"54 366 LINE SMOOTH",
"53 358 OFFCURVE",
"52 346 OFFCURVE",
"52 342 CURVE SMOOTH",
"52 312 OFFCURVE",
"79 288 OFFCURVE",
"112 288 CURVE SMOOTH",
"148 288 OFFCURVE",
"185 318 OFFCURVE",
"260 318 CURVE SMOOTH",
"325 318 OFFCURVE",
"363 282 OFFCURVE",
"363 222 CURVE SMOOTH",
"363 168 OFFCURVE",
"321 128 OFFCURVE",
"263 128 CURVE SMOOTH",
"213 128 OFFCURVE",
"199 137 OFFCURVE",
"199 168 CURVE",
"28 133 LINE",
"28 50 OFFCURVE",
"126 -10 OFFCURVE",
"262 -10 CURVE SMOOTH",
"422 -10 OFFCURVE",
"534 90 OFFCURVE",
"534 233 CURVE SMOOTH",
"534 370 OFFCURVE",
"449 456 OFFCURVE",
"312 456 CURVE SMOOTH",
"257 456 OFFCURVE",
"217 440 OFFCURVE",
"176 402 CURVE",
"213 370 LINE",
"246 637 LINE",
"171 563 LINE",
"455 561 LINE SMOOTH"
);
}
);
width = 563;
},
{
associatedMasterId = "120615CE-BBBA-4703-9D0A-81094A4EB7C9";
background = {
paths = (
{
closed = 1;
nodes = (
"218 50 OFFCURVE",
"260 92 OFFCURVE",
"260 148 CURVE SMOOTH",
"260 201 OFFCURVE",
"221 236 OFFCURVE",
"162 236 CURVE SMOOTH",
"104 236 OFFCURVE",
"64 194 OFFCURVE",
"64 133 CURVE",
"162 50 LINE"
);
},
{
closed = 1;
nodes = (
"526 561 OFFCURVE",
"552 586 OFFCURVE",
"552 620 CURVE SMOOTH",
"552 641 LINE SMOOTH",
"552 675 OFFCURVE",
"526 700 OFFCURVE",
"491 700 CURVE SMOOTH",
"174 700 LINE SMOOTH",
"149 700 OFFCURVE",
"129 682 OFFCURVE",
"126 657 CURVE SMOOTH",
"90 366 LINE SMOOTH",
"89 358 OFFCURVE",
"88 346 OFFCURVE",
"88 342 CURVE SMOOTH",
"88 312 OFFCURVE",
"115 288 OFFCURVE",
"148 288 CURVE SMOOTH",
"184 288 OFFCURVE",
"221 318 OFFCURVE",
"296 318 CURVE SMOOTH",
"361 318 OFFCURVE",
"399 282 OFFCURVE",
"399 222 CURVE SMOOTH",
"399 168 OFFCURVE",
"357 128 OFFCURVE",
"299 128 CURVE SMOOTH",
"249 128 OFFCURVE",
"235 137 OFFCURVE",
"235 168 CURVE",
"64 133 LINE",
"64 50 OFFCURVE",
"162 -10 OFFCURVE",
"298 -10 CURVE SMOOTH",
"455 -10 OFFCURVE",
"570 89 OFFCURVE",
"570 224 CURVE SMOOTH",
"570 366 OFFCURVE",
"480 456 OFFCURVE",
"336 456 CURVE SMOOTH",
"289 456 OFFCURVE",
"262 449 OFFCURVE",
"186 419 CURVE",
"249 370 LINE",
"282 637 LINE",
"207 563 LINE",
"491 561 LINE SMOOTH"
);
}
);
};
guideLines = (
{
angle = 266.6566;
position = "{110, 657}";
}
);
layerId = "342DD689-21C4-4262-8F28-398706FD5457";
name = "Feb 7 18, 13:13";
paths = (
{
closed = 1;
nodes = (
"218 50 OFFCURVE",
"260 92 OFFCURVE",
"260 148 CURVE SMOOTH",
"260 201 OFFCURVE",
"221 236 OFFCURVE",
"162 236 CURVE SMOOTH",
"104 236 OFFCURVE",
"64 194 OFFCURVE",
"64 133 CURVE",
"162 50 LINE"
);
},
{
closed = 1;
nodes = (
"526 561 OFFCURVE",
"552 586 OFFCURVE",
"552 620 CURVE SMOOTH",
"552 641 LINE SMOOTH",
"552 675 OFFCURVE",
"526 700 OFFCURVE",
"491 700 CURVE SMOOTH",
"158 700 LINE SMOOTH",
"132 700 OFFCURVE",
"111 681 OFFCURVE",
"110 657 CURVE SMOOTH",
"94 381 LINE SMOOTH",
"92 349 OFFCURVE",
"92 345 OFFCURVE",
"92 342 CURVE SMOOTH",
"92 307 OFFCURVE",
"113 288 OFFCURVE",
"152 288 CURVE SMOOTH",
"188 288 OFFCURVE",
"225 318 OFFCURVE",
"296 318 CURVE SMOOTH",
"361 318 OFFCURVE",
"399 282 OFFCURVE",
"399 222 CURVE SMOOTH",
"399 168 OFFCURVE",
"357 128 OFFCURVE",
"299 128 CURVE SMOOTH",
"249 128 OFFCURVE",
"235 137 OFFCURVE",
"235 168 CURVE",
"64 133 LINE",
"64 50 OFFCURVE",
"162 -10 OFFCURVE",
"298 -10 CURVE SMOOTH",
"458 -10 OFFCURVE",
"570 90 OFFCURVE",
"570 233 CURVE SMOOTH",
"570 364 OFFCURVE",
"481 456 OFFCURVE",
"353 456 CURVE SMOOTH",
"293 456 OFFCURVE",
"249 433 OFFCURVE",
"222 388 CURVE",
"256 375 LINE",
"271 637 LINE",
"197 563 LINE",
"491 561 LINE SMOOTH"
);
}
);
width = 627;
}
);
leftKerningGroup = five;
rightKerningGroup = five;
unicode = 0035;
},
{
color = 1;
glyphname = six;
layers = (
{
background = {
paths = (
{
closed = 1;
nodes = (
"475 -10 OFFCURVE",
"575 84 OFFCURVE",
"575 225 CURVE SMOOTH",
"575 348 OFFCURVE",
"492 432 OFFCURVE",
"369 432 CURVE SMOOTH",
"279 432 OFFCURVE",
"228 396 OFFCURVE",
"183 299 CURVE",
"224 271 LINE",
"220 482 OFFCURVE",
"256 572 OFFCURVE",
"344 572 CURVE SMOOTH",
"376 572 OFFCURVE",
"390 570 OFFCURVE",
"390 542 CURVE",
"561 579 LINE",
"561 665 OFFCURVE",
"479 710 OFFCURVE",
"351 710 CURVE SMOOTH",
"169 710 OFFCURVE",
"52 557 OFFCURVE",
"52 315 CURVE SMOOTH",
"52 102 OFFCURVE",
"146 -10 OFFCURVE",
"326 -10 CURVE SMOOTH"
);
},
{
closed = 1;
nodes = (
"261 128 OFFCURVE",
"224 162 OFFCURVE",
"224 211 CURVE SMOOTH",
"224 263 OFFCURVE",
"258 294 OFFCURVE",
"314 294 CURVE SMOOTH",
"371 294 OFFCURVE",
"404 263 OFFCURVE",
"404 211 CURVE SMOOTH",
"404 160 OFFCURVE",
"369 128 OFFCURVE",
"314 128 CURVE SMOOTH"
);
},
{
closed = 1;
nodes = (
"521 476 OFFCURVE",
"561 518 OFFCURVE",
"561 579 CURVE",
"463 662 LINE",
"407 662 OFFCURVE",
"365 620 OFFCURVE",
"365 564 CURVE SMOOTH",
"365 511 OFFCURVE",
"404 476 OFFCURVE",
"463 476 CURVE SMOOTH"
);
}
);
};
layerId = "120615CE-BBBA-4703-9D0A-81094A4EB7C9";
paths = (
{
closed = 1;
nodes = (
"475 -10 OFFCURVE",
"575 84 OFFCURVE",
"575 225 CURVE SMOOTH",
"575 356 OFFCURVE",
"494 442 OFFCURVE",
"369 442 CURVE SMOOTH",
"279 442 OFFCURVE",
"228 406 OFFCURVE",
"183 309 CURVE",
"224 363 LINE",
"224 514 OFFCURVE",
"258 572 OFFCURVE",
"348 572 CURVE SMOOTH",
"371 572 OFFCURVE",
"380 563 OFFCURVE",
"380 542 CURVE",
"551 585 LINE",
"551 660 OFFCURVE",
"472 710 OFFCURVE",
"354 710 CURVE SMOOTH",
"153 710 OFFCURVE",
"52 578 OFFCURVE",
"52 315 CURVE SMOOTH",
"52 102 OFFCURVE",
"146 -10 OFFCURVE",
"326 -10 CURVE SMOOTH"
);
},
{
closed = 1;
nodes = (
"261 128 OFFCURVE",
"224 162 OFFCURVE",
"224 216 CURVE SMOOTH",
"224 273 OFFCURVE",
"258 304 OFFCURVE",
"314 304 CURVE SMOOTH",
"371 304 OFFCURVE",
"404 273 OFFCURVE",
"404 216 CURVE SMOOTH",
"404 160 OFFCURVE",
"369 128 OFFCURVE",
"314 128 CURVE SMOOTH"
);
},
{
closed = 1;
nodes = (
"511 482 OFFCURVE",
"551 524 OFFCURVE",
"551 585 CURVE",
"453 668 LINE",
"397 668 OFFCURVE",
"355 626 OFFCURVE",
"355 570 CURVE SMOOTH",
"355 517 OFFCURVE",
"394 482 OFFCURVE",
"453 482 CURVE SMOOTH"
);
}
);
width = 621;
},
{
layerId = "C836F59C-81CC-4411-94AE-B4087123016A";
paths = (
{
closed = 1;
nodes = (
"467 -10 OFFCURVE",
"563 87 OFFCURVE",
"563 224 CURVE SMOOTH",
"563 361 OFFCURVE",
"464 458 OFFCURVE",
"325 458 CURVE SMOOTH",
"235 458 OFFCURVE",
"158 409 OFFCURVE",
"127 331 CURVE",
"138 311 LINE",
"149 558 OFFCURVE",
"208 655 OFFCURVE",
"347 655 CURVE SMOOTH",
"436 655 OFFCURVE",
"490 623 OFFCURVE",
"490 571 CURVE",
"550 571 LINE",
"550 653 OFFCURVE",
"468 710 OFFCURVE",
"352 710 CURVE SMOOTH",
"170 710 OFFCURVE",
"77 567 OFFCURVE",
"77 285 CURVE SMOOTH",
"77 93 OFFCURVE",
"165 -10 OFFCURVE",
"329 -10 CURVE SMOOTH"
);
},
{
closed = 1;
nodes = (
"209 45 OFFCURVE",
"137 120 OFFCURVE",
"137 244 CURVE SMOOTH",
"137 332 OFFCURVE",
"221 403 OFFCURVE",
"324 403 CURVE SMOOTH",
"433 403 OFFCURVE",
"503 333 OFFCURVE",
"503 224 CURVE SMOOTH",
"503 114 OFFCURVE",
"436 45 OFFCURVE",
"328 45 CURVE SMOOTH"
);
},
{
closed = 1;
nodes = (
"532 514 OFFCURVE",
"550 535 OFFCURVE",
"550 571 CURVE",
"505 602 LINE",
"479 602 OFFCURVE",
"460 583 OFFCURVE",
"460 557 CURVE SMOOTH",
"460 533 OFFCURVE",
"478 514 OFFCURVE",
"502 514 CURVE SMOOTH"
);
}
);
width = 635;
},
{
associatedMasterId = "C836F59C-81CC-4411-94AE-B4087123016A";
guideLines = (
{
position = "{524, 222}";
}
);
layerId = "7973B143-F302-41D0-92AC-1CD1BDB42CD3";
name = "Jan 19 18, 12:03";
paths = (
{
closed = 1;
nodes = (
"489 -10 OFFCURVE",
"584 86 OFFCURVE",
"584 222 CURVE SMOOTH",
"584 355 OFFCURVE",
"484 453 OFFCURVE",
"346 453 CURVE SMOOTH",
"256 453 OFFCURVE",
"179 404 OFFCURVE",
"148 326 CURVE",
"159 311 LINE",
"169 532 OFFCURVE",
"247 655 OFFCURVE",
"378 655 CURVE SMOOTH",
"466 655 OFFCURVE",
"513 619 OFFCURVE",
"513 552 CURVE",
"573 552 LINE",
"573 647 OFFCURVE",
"498 710 OFFCURVE",
"383 710 CURVE SMOOTH",
"209 710 OFFCURVE",
"98 545 OFFCURVE",
"98 285 CURVE SMOOTH",
"98 93 OFFCURVE",
"186 -10 OFFCURVE",
"350 -10 CURVE SMOOTH"
);
},
{
closed = 1;
nodes = (
"230 45 OFFCURVE",
"158 120 OFFCURVE",
"158 244 CURVE SMOOTH",
"158 328 OFFCURVE",
"243 398 OFFCURVE",
"345 398 CURVE SMOOTH",
"452 398 OFFCURVE",
"524 328 OFFCURVE",
"524 222 CURVE SMOOTH",
"524 112 OFFCURVE",
"457 45 OFFCURVE",
"349 45 CURVE SMOOTH"
);
},
{
closed = 1;
nodes = (
"555 495 OFFCURVE",
"573 516 OFFCURVE",
"573 552 CURVE",
"528 583 LINE",
"502 583 OFFCURVE",
"483 564 OFFCURVE",
"483 538 CURVE SMOOTH",
"483 514 OFFCURVE",
"501 495 OFFCURVE",
"525 495 CURVE SMOOTH"
);
}
);
width = 682;
},
{
associatedMasterId = "C836F59C-81CC-4411-94AE-B4087123016A";
layerId = "C17DF900-F471-4FFA-83F5-A5E110A6E4C6";
name = "Jan 23 18, 15:44";
paths = (
{
closed = 1;
nodes = (
"488 -10 OFFCURVE",
"584 87 OFFCURVE",
"584 224 CURVE SMOOTH",
"584 361 OFFCURVE",
"485 458 OFFCURVE",
"346 458 CURVE SMOOTH",
"256 458 OFFCURVE",
"179 409 OFFCURVE",
"148 331 CURVE",
"159 311 LINE",
"169 541 OFFCURVE",
"244 655 OFFCURVE",
"384 655 CURVE SMOOTH",
"463 655 OFFCURVE",
"513 621 OFFCURVE",
"513 567 CURVE",
"573 567 LINE",
"573 650 OFFCURVE",
"496 710 OFFCURVE",
"389 710 CURVE SMOOTH",
"206 710 OFFCURVE",
"98 553 OFFCURVE",
"98 285 CURVE SMOOTH",
"98 93 OFFCURVE",
"186 -10 OFFCURVE",
"350 -10 CURVE SMOOTH"
);
},
{
closed = 1;
nodes = (
"230 45 OFFCURVE",
"158 120 OFFCURVE",
"158 244 CURVE SMOOTH",
"158 332 OFFCURVE",
"242 403 OFFCURVE",
"345 403 CURVE SMOOTH",
"454 403 OFFCURVE",
"524 333 OFFCURVE",
"524 224 CURVE SMOOTH",
"524 114 OFFCURVE",
"457 45 OFFCURVE",
"349 45 CURVE SMOOTH"
);
},
{
closed = 1;
nodes = (
"555 510 OFFCURVE",
"573 531 OFFCURVE",
"573 567 CURVE",
"528 598 LINE",
"502 598 OFFCURVE",
"483 579 OFFCURVE",
"483 553 CURVE SMOOTH",
"483 529 OFFCURVE",
"501 510 OFFCURVE",
"525 510 CURVE SMOOTH"
);
}
);
width = 682;
}
);
leftKerningGroup = six;
rightKerningGroup = six;
unicode = 0036;
},
{
color = 1;
glyphname = seven;
layers = (
{
guideLines = (
{
angle = 65.0674;
position = "{132, 90}";
}
);
hints = (
{
origin = "{1, 0}";
type = Corner;
name = _corner.rightSerif;
options = 1;
}
);
layerId = "120615CE-BBBA-4703-9D0A-81094A4EB7C9";
paths = (
{
closed = 1;
nodes = (
"240 0 LINE SMOOTH",
"265 0 OFFCURVE",
"282 13 OFFCURVE",
"293 37 CURVE SMOOTH",
"525 544 LINE SMOOTH",
"535 566 OFFCURVE",
"540 581 OFFCURVE",
"540 603 CURVE SMOOTH",
"540 649 LINE SMOOTH",
"540 678 OFFCURVE",
"518 700 OFFCURVE",
"489 700 CURVE SMOOTH",
"358 700 LINE",
"358 574 LINE",
"133 90 LINE SMOOTH",
"126 75 OFFCURVE",
"121 60 OFFCURVE",
"121 47 CURVE SMOOTH",
"121 20 OFFCURVE",
"138 0 OFFCURVE",
"179 0 CURVE SMOOTH"
);
},
{
closed = 1;
nodes = (
"31 560 LINE",
"455 563 LINE",
"455 700 LINE",
"92 700 LINE SMOOTH",
"57 700 OFFCURVE",
"31 675 OFFCURVE",
"31 641 CURVE SMOOTH"
);
}
);
width = 571;
},
{
hints = (
{
origin = "{1, 0}";
type = Corner;
name = _corner.rightSerif;
options = 1;
}
);
layerId = "C836F59C-81CC-4411-94AE-B4087123016A";
paths = (
{
closed = 1;
nodes = (
"187 0 LINE SMOOTH",
"202 0 OFFCURVE",
"208 10 OFFCURVE",
"212 18 CURVE SMOOTH",
"508 629 LINE SMOOTH",
"515 644 OFFCURVE",
"517 651 OFFCURVE",
"517 666 CURVE SMOOTH",
"517 669 LINE SMOOTH",
"517 690 OFFCURVE",
"507 700 OFFCURVE",
"488 700 CURVE SMOOTH",
"455 700 LINE",
"455 648 LINE",
"158 35 LINE SMOOTH",
"153 24 OFFCURVE",
"152 21 OFFCURVE",
"152 15 CURVE SMOOTH",
"152 6 OFFCURVE",
"157 0 OFFCURVE",
"172 0 CURVE SMOOTH"
);
},
{
closed = 1;
nodes = (
"48 645 LINE",
"474 645 LINE",
"474 700 LINE",
"79 700 LINE SMOOTH",
"62 700 OFFCURVE",
"48 686 OFFCURVE",
"48 669 CURVE SMOOTH"
);
}
);
width = 564;
},
{
associatedMasterId = "C836F59C-81CC-4411-94AE-B4087123016A";
guideLines = (
{
angle = 220.2364;
position = "{379, 419}";
}
);
layerId = "CF0A7ECF-F1EB-4671-ACCE-7CBCC7C3FE7C";
name = "Jan 18 18, 12:08";
paths = (
{
closed = 1;
nodes = (
"135 590 LINE SMOOTH",
"135 636 OFFCURVE",
"154 655 OFFCURVE",
"198 655 CURVE SMOOTH",
"253 655 OFFCURVE",
"349 629 OFFCURVE",
"506 573 CURVE",
"506 626 LINE",
"369 683 OFFCURVE",
"270 710 OFFCURVE",
"198 710 CURVE SMOOTH",
"121 710 OFFCURVE",
"76 666 OFFCURVE",
"76 590 CURVE SMOOTH",
"76 552 LINE SMOOTH",
"76 534 OFFCURVE",
"89 521 OFFCURVE",
"105 521 CURVE SMOOTH",
"106 521 LINE SMOOTH",
"122 521 OFFCURVE",
"135 534 OFFCURVE",
"135 552 CURVE SMOOTH"
);
},
{
closed = 1;
nodes = (
"309 140 LINE SMOOTH",
"309 261 OFFCURVE",
"326 302 OFFCURVE",
"404 368 CURVE SMOOTH",
"534 478 OFFCURVE",
"554 513 OFFCURVE",
"554 600 CURVE SMOOTH",
"554 675 LINE SMOOTH",
"554 696 OFFCURVE",
"544 706 OFFCURVE",
"525 706 CURVE SMOOTH",
"523 706 LINE SMOOTH",
"504 706 OFFCURVE",
"495 696 OFFCURVE",
"495 675 CURVE SMOOTH",
"495 609 LINE SMOOTH",
"495 527 OFFCURVE",
"494 518 OFFCURVE",
"377 419 CURVE SMOOTH",
"273 331 OFFCURVE",
"250 280 OFFCURVE",
"250 140 CURVE SMOOTH",
"250 31 LINE SMOOTH",
"250 13 OFFCURVE",
"263 0 OFFCURVE",
"279 0 CURVE SMOOTH",
"280 0 LINE SMOOTH",
"296 0 OFFCURVE",
"309 13 OFFCURVE",
"309 31 CURVE SMOOTH"
);
}
);
width = 635;
},
{
associatedMasterId = "120615CE-BBBA-4703-9D0A-81094A4EB7C9";
guideLines = (
{
position = "{216, 113}";
},
{
angle = 220.2364;
position = "{340, 435}";
}
);
layerId = "BE38D9DF-0B3C-4847-AC05-78968219C3E9";
name = "Jan 18 18, 12:26";
paths = (
{
closed = 1;
nodes = (
"124 710 LINE SMOOTH",
"89 710 OFFCURVE",
"63 685 OFFCURVE",
"63 651 CURVE SMOOTH",
"63 508 LINE SMOOTH",
"63 476 OFFCURVE",
"79 459 OFFCURVE",
"109 459 CURVE SMOOTH",
"155 459 LINE SMOOTH",
"185 459 OFFCURVE",
"201 476 OFFCURVE",
"201 508 CURVE SMOOTH",
"201 647 LINE",
"126 572 LINE",
"464 575 LINE",
"464 710 LINE"
);
},
{
closed = 1;
nodes = (
"361 0 OFFCURVE",
"383 22 OFFCURVE",
"383 51 CURVE SMOOTH",
"383 143 LINE SMOOTH",
"383 213 OFFCURVE",
"374 275 OFFCURVE",
"440 331 CURVE SMOOTH",
"537 413 OFFCURVE",
"576 455 OFFCURVE",
"576 580 CURVE SMOOTH",
"576 659 LINE SMOOTH",
"576 688 OFFCURVE",
"554 710 OFFCURVE",
"525 710 CURVE",
"408 709 LINE",
"408 561 LINE SMOOTH",
"408 502 OFFCURVE",
"398 484 OFFCURVE",
"340 435 CURVE SMOOTH",
"195 312 OFFCURVE",
"216 281 OFFCURVE",
"216 143 CURVE SMOOTH",
"216 51 LINE SMOOTH",
"216 22 OFFCURVE",
"238 0 OFFCURVE",
"267 0 CURVE SMOOTH",
"332 0 LINE"
);
}
);
width = 600;
},
{
associatedMasterId = "120615CE-BBBA-4703-9D0A-81094A4EB7C9";
guideLines = (
{
position = "{216, 113}";
},
{
angle = 244.8085;
position = "{564, 574}";
}
);
layerId = "79721D12-321B-44A2-9C15-899E4970E19B";
name = "Jan 18 18, 13:12";
paths = (
{
closed = 1;
nodes = (
"124 700 LINE SMOOTH",
"89 700 OFFCURVE",
"63 675 OFFCURVE",
"63 641 CURVE SMOOTH",
"63 498 LINE SMOOTH",
"63 466 OFFCURVE",
"79 449 OFFCURVE",
"109 449 CURVE SMOOTH",
"155 449 LINE SMOOTH",
"185 449 OFFCURVE",
"201 466 OFFCURVE",
"201 498 CURVE SMOOTH",
"201 637 LINE",
"126 560 LINE",
"491 563 LINE",
"491 700 LINE"
);
},
{
closed = 1;
nodes = (
"579 675 OFFCURVE",
"553 700 OFFCURVE",
"518 700 CURVE SMOOTH",
"443 700 LINE",
"114 0 LINE",
"294 0 LINE",
"564 574 LINE SMOOTH",
"572 591 OFFCURVE",
"579 623 OFFCURVE",
"579 641 CURVE SMOOTH"
);
}
);
width = 600;
},
{
associatedMasterId = "120615CE-BBBA-4703-9D0A-81094A4EB7C9";
guideLines = (
{
angle = 90;
position = "{177, 51}";
},
{
angle = 48.0775;
position = "{416, 366}";
}
);
hints = (
{
origin = "{1, 0}";
type = Corner;
name = _corner.rightSerif;
options = 1;
}
);
layerId = "CA13AAA2-7085-488A-9E6F-9F7299DE07AF";
name = "Jan 31 18, 23:31";
paths = (
{
closed = 1;
nodes = (
"288 0 LINE SMOOTH",
"317 0 OFFCURVE",
"339 22 OFFCURVE",
"339 51 CURVE SMOOTH",
"339 142 LINE SMOOTH",
"339 212 OFFCURVE",
"337 278 OFFCURVE",
"416 366 CURVE SMOOTH",
"504 464 OFFCURVE",
"524 493 OFFCURVE",
"524 576 CURVE SMOOTH",
"524 649 LINE SMOOTH",
"524 678 OFFCURVE",
"502 700 OFFCURVE",
"473 700 CURVE SMOOTH",
"376 700 LINE",
"376 554 LINE SMOOTH",
"376 523 OFFCURVE",
"370 505 OFFCURVE",
"335 475 CURVE SMOOTH",
"197 356 OFFCURVE",
"172 302 OFFCURVE",
"172 158 CURVE SMOOTH",
"172 51 LINE SMOOTH",
"172 22 OFFCURVE",
"194 0 OFFCURVE",
"223 0 CURVE SMOOTH"
);
},
{
closed = 1;
nodes = (
"15 560 LINE",
"439 563 LINE",
"439 700 LINE",
"76 700 LINE SMOOTH",
"41 700 OFFCURVE",
"15 675 OFFCURVE",
"15 641 CURVE SMOOTH"
);
}
);
width = 542;
},
{
associatedMasterId = "C836F59C-81CC-4411-94AE-B4087123016A";
guideLines = (
{
angle = 220.2364;
position = "{377, 419}";
}
);
hints = (
{
origin = "{1, 0}";
type = Corner;
name = _corner.rightSerif;
options = 1;
}
);
layerId = "BF99E896-469C-4F14-871C-69BD76FB9E86";
name = "Jan 31 18, 23:37";
paths = (
{
closed = 1;
nodes = (
"280 0 LINE SMOOTH",
"296 0 OFFCURVE",
"309 13 OFFCURVE",
"309 31 CURVE SMOOTH",
"309 140 LINE SMOOTH",
"309 261 OFFCURVE",
"326 302 OFFCURVE",
"404 368 CURVE SMOOTH",
"544 487 OFFCURVE",
"566 518 OFFCURVE",
"566 600 CURVE SMOOTH",
"566 669 LINE SMOOTH",
"566 690 OFFCURVE",
"556 700 OFFCURVE",
"537 700 CURVE SMOOTH",
"507 700 LINE",
"507 609 LINE SMOOTH",
"507 532 OFFCURVE",
"502 525 OFFCURVE",
"377 419 CURVE SMOOTH",
"273 331 OFFCURVE",
"250 280 OFFCURVE",
"250 140 CURVE SMOOTH",
"250 31 LINE SMOOTH",
"250 13 OFFCURVE",
"263 0 OFFCURVE",
"279 0 CURVE SMOOTH"
);
},
{
closed = 1;
nodes = (
"97 645 LINE",
"523 645 LINE",
"523 700 LINE",
"128 700 LINE SMOOTH",
"111 700 OFFCURVE",
"97 686 OFFCURVE",
"97 669 CURVE SMOOTH"
);
}
);
width = 635;
},
{
associatedMasterId = "120615CE-BBBA-4703-9D0A-81094A4EB7C9";
hints = (
{
origin = "{1, 0}";
type = Corner;
name = _corner.rightSerif;
options = 1;
}
);
layerId = "9663427E-D75D-4596-B6A2-C10E5B1752F3";
name = "Feb 7 18, 13:12";
paths = (
{
closed = 1;
nodes = (
"242 0 LINE SMOOTH",
"267 0 OFFCURVE",
"284 13 OFFCURVE",
"295 37 CURVE SMOOTH",
"527 544 LINE SMOOTH",
"537 566 OFFCURVE",
"542 581 OFFCURVE",
"542 603 CURVE SMOOTH",
"542 649 LINE SMOOTH",
"542 678 OFFCURVE",
"520 700 OFFCURVE",
"491 700 CURVE SMOOTH",
"389 700 LINE",
"389 574 LINE",
"134 90 LINE SMOOTH",
"126 75 OFFCURVE",
"122 60 OFFCURVE",
"122 47 CURVE SMOOTH",
"122 20 OFFCURVE",
"139 0 OFFCURVE",
"180 0 CURVE SMOOTH"
);
},
{
closed = 1;
nodes = (
"33 560 LINE",
"457 563 LINE",
"457 700 LINE",
"94 700 LINE SMOOTH",
"59 700 OFFCURVE",
"33 675 OFFCURVE",
"33 641 CURVE SMOOTH"
);
}
);
width = 576;
},
{
associatedMasterId = "120615CE-BBBA-4703-9D0A-81094A4EB7C9";
hints = (
{
origin = "{1, 0}";
type = Corner;
name = _corner.rightSerif;
options = 1;
}
);
layerId = "F4238418-1425-4EAA-AA33-80A1D4142071";
name = "Feb 7 18, 13:12";
paths = (
{
closed = 1;
nodes = (
"242 0 LINE SMOOTH",
"267 0 OFFCURVE",
"284 13 OFFCURVE",
"295 37 CURVE SMOOTH",
"527 544 LINE SMOOTH",
"537 566 OFFCURVE",
"542 581 OFFCURVE",
"542 603 CURVE SMOOTH",
"542 649 LINE SMOOTH",
"542 678 OFFCURVE",
"520 700 OFFCURVE",
"491 700 CURVE SMOOTH",
"389 700 LINE",
"389 574 LINE",
"134 90 LINE SMOOTH",
"126 75 OFFCURVE",
"122 60 OFFCURVE",
"122 47 CURVE SMOOTH",
"122 20 OFFCURVE",
"139 0 OFFCURVE",
"180 0 CURVE SMOOTH"
);
},
{
closed = 1;
nodes = (
"33 560 LINE",
"457 563 LINE",
"457 700 LINE",
"94 700 LINE SMOOTH",
"59 700 OFFCURVE",
"33 675 OFFCURVE",
"33 641 CURVE SMOOTH"
);
}
);
width = 576;
}
);
leftKerningGroup = seven;
rightKerningGroup = seven;
unicode = 0037;
},
{
color = 1;
glyphname = eight;
layers = (
{
layerId = "120615CE-BBBA-4703-9D0A-81094A4EB7C9";
paths = (
{
closed = 1;
nodes = (
"481 -10 OFFCURVE",
"592 77 OFFCURVE",
"592 203 CURVE SMOOTH",
"592 304 OFFCURVE",
"530 372 OFFCURVE",
"420 392 CURVE",
"421 355 LINE",
"523 380 OFFCURVE",
"570 431 OFFCURVE",
"570 519 CURVE SMOOTH",
"570 630 OFFCURVE",
"464 710 OFFCURVE",
"319 710 CURVE SMOOTH",
"174 710 OFFCURVE",
"68 630 OFFCURVE",
"68 519 CURVE SMOOTH",
"68 431 OFFCURVE",
"115 380 OFFCURVE",
"217 355 CURVE",
"218 392 LINE",
"108 372 OFFCURVE",
"46 304 OFFCURVE",
"46 203 CURVE SMOOTH",
"46 77 OFFCURVE",
"157 -10 OFFCURVE",
"319 -10 CURVE SMOOTH"
);
},
{
closed = 1;
nodes = (
"254 128 OFFCURVE",
"217 158 OFFCURVE",
"217 209 CURVE SMOOTH",
"217 261 OFFCURVE",
"252 288 OFFCURVE",
"319 288 CURVE SMOOTH",
"386 288 OFFCURVE",
"421 261 OFFCURVE",
"421 209 CURVE SMOOTH",
"421 158 OFFCURVE",
"384 128 OFFCURVE",
"319 128 CURVE SMOOTH"
);
},
{
closed = 1;
nodes = (
"268 426 OFFCURVE",
"239 452 OFFCURVE",
"239 498 CURVE SMOOTH",
"239 543 OFFCURVE",
"271 572 OFFCURVE",
"319 572 CURVE SMOOTH",
"367 572 OFFCURVE",
"399 543 OFFCURVE",
"399 498 CURVE SMOOTH",
"399 451 OFFCURVE",
"372 426 OFFCURVE",
"319 426 CURVE SMOOTH"
);
}
);
width = 638;
},
{
layerId = "C836F59C-81CC-4411-94AE-B4087123016A";
paths = (
{
closed = 1;
nodes = (
"485 -10 OFFCURVE",
"563 78 OFFCURVE",
"563 190 CURVE SMOOTH",
"563 279 OFFCURVE",
"517 349 OFFCURVE",
"432 378 CURVE",
"432 361 LINE",
"505 388 OFFCURVE",
"539 447 OFFCURVE",
"539 519 CURVE SMOOTH",
"539 609 OFFCURVE",
"481 710 OFFCURVE",
"317 710 CURVE SMOOTH",
"153 710 OFFCURVE",
"95 609 OFFCURVE",
"95 519 CURVE SMOOTH",
"95 447 OFFCURVE",
"129 388 OFFCURVE",
"202 361 CURVE",
"202 378 LINE",
"117 349 OFFCURVE",
"71 279 OFFCURVE",
"71 190 CURVE SMOOTH",
"71 78 OFFCURVE",
"149 -10 OFFCURVE",
"317 -10 CURVE SMOOTH"
);
},
{
closed = 1;
nodes = (
"188 45 OFFCURVE",
"131 104 OFFCURVE",
"131 192 CURVE SMOOTH",
"131 283 OFFCURVE",
"196 340 OFFCURVE",
"317 340 CURVE SMOOTH",
"438 340 OFFCURVE",
"503 283 OFFCURVE",
"503 192 CURVE SMOOTH",
"503 104 OFFCURVE",
"446 45 OFFCURVE",
"317 45 CURVE SMOOTH"
);
},
{
closed = 1;
nodes = (
"215 395 OFFCURVE",
"155 432 OFFCURVE",
"155 514 CURVE SMOOTH",
"155 576 OFFCURVE",
"185 655 OFFCURVE",
"317 655 CURVE SMOOTH",
"449 655 OFFCURVE",
"479 576 OFFCURVE",
"479 514 CURVE SMOOTH",
"479 431 OFFCURVE",
"417 395 OFFCURVE",
"317 395 CURVE SMOOTH"
);
}
);
width = 634;
}
);
leftKerningGroup = eight;
rightKerningGroup = eight;
unicode = 0038;
},
{
color = 1;
glyphname = less;
layers = (
{
layerId = "C836F59C-81CC-4411-94AE-B4087123016A";
paths = (
{
closed = 1;
nodes = (
"484 166 OFFCURVE",
"492 173 OFFCURVE",
"492 185 CURVE SMOOTH",
"492 205 LINE SMOOTH",
"492 214 OFFCURVE",
"485 220 OFFCURVE",
"480 222 CURVE SMOOTH",
"169 344 LINE",
"169 324 LINE",
"480 446 LINE SMOOTH",
"485 448 OFFCURVE",
"492 454 OFFCURVE",
"492 463 CURVE SMOOTH",
"492 483 LINE SMOOTH",
"492 495 OFFCURVE",
"484 502 OFFCURVE",
"474 502 CURVE SMOOTH",
"470 502 OFFCURVE",
"464 500 OFFCURVE",
"459 498 CURVE SMOOTH",
"94 355 LINE SMOOTH",
"84 351 OFFCURVE",
"82 342 OFFCURVE",
"82 335 CURVE SMOOTH",
"82 333 LINE SMOOTH",
"82 326 OFFCURVE",
"84 317 OFFCURVE",
"94 313 CURVE SMOOTH",
"459 170 LINE SMOOTH",
"464 168 OFFCURVE",
"470 166 OFFCURVE",
"474 166 CURVE SMOOTH"
);
}
);
width = 589;
},
{
layerId = "120615CE-BBBA-4703-9D0A-81094A4EB7C9";
paths = (
{
closed = 1;
nodes = (
"527 98 OFFCURVE",
"542 112 OFFCURVE",
"542 131 CURVE SMOOTH",
"542 214 LINE SMOOTH",
"542 226 OFFCURVE",
"535 236 OFFCURVE",
"524 240 CURVE SMOOTH",
"207 351 LINE",
"207 297 LINE",
"524 408 LINE SMOOTH",
"535 412 OFFCURVE",
"542 422 OFFCURVE",
"542 434 CURVE SMOOTH",
"542 517 LINE SMOOTH",
"542 536 OFFCURVE",
"527 550 OFFCURVE",
"506 550 CURVE SMOOTH",
"500 550 OFFCURVE",
"490 548 OFFCURVE",
"482 545 CURVE SMOOTH",
"88 394 LINE SMOOTH",
"70 387 OFFCURVE",
"58 370 OFFCURVE",
"58 351 CURVE SMOOTH",
"58 297 LINE SMOOTH",
"58 278 OFFCURVE",
"70 261 OFFCURVE",
"88 254 CURVE SMOOTH",
"482 103 LINE SMOOTH",
"490 100 OFFCURVE",
"500 98 OFFCURVE",
"506 98 CURVE SMOOTH"
);
}
);
width = 626;
}
);
leftKerningGroup = less;
rightKerningGroup = less;
unicode = 003C;
},
{
color = 1;
glyphname = equal;
layers = (
{
layerId = "C836F59C-81CC-4411-94AE-B4087123016A";
paths = (
{
closed = 1;
nodes = (
"551 407 LINE SMOOTH",
"575 407 OFFCURVE",
"582 417 OFFCURVE",
"582 433 CURVE SMOOTH",
"582 435 LINE SMOOTH",
"582 451 OFFCURVE",
"575 462 OFFCURVE",
"551 462 CURVE SMOOTH",
"157 462 LINE SMOOTH",
"133 462 OFFCURVE",
"126 451 OFFCURVE",
"126 435 CURVE SMOOTH",
"126 433 LINE SMOOTH",
"126 417 OFFCURVE",
"133 407 OFFCURVE",
"157 407 CURVE SMOOTH"
);
},
{
closed = 1;
nodes = (
"551 213 LINE SMOOTH",
"575 213 OFFCURVE",
"582 223 OFFCURVE",
"582 239 CURVE SMOOTH",
"582 241 LINE SMOOTH",
"582 257 OFFCURVE",
"575 268 OFFCURVE",
"551 268 CURVE SMOOTH",
"157 268 LINE SMOOTH",
"133 268 OFFCURVE",
"126 257 OFFCURVE",
"126 241 CURVE SMOOTH",
"126 239 LINE SMOOTH",
"126 223 OFFCURVE",
"133 213 OFFCURVE",
"157 213 CURVE SMOOTH"
);
}
);
width = 708;
},
{
layerId = "120615CE-BBBA-4703-9D0A-81094A4EB7C9";
paths = (
{
closed = 1;
nodes = (
"527 373 LINE SMOOTH",
"556 373 OFFCURVE",
"578 395 OFFCURVE",
"578 424 CURVE SMOOTH",
"578 460 LINE SMOOTH",
"578 489 OFFCURVE",
"556 511 OFFCURVE",
"527 511 CURVE SMOOTH",
"145 511 LINE SMOOTH",
"116 511 OFFCURVE",
"94 489 OFFCURVE",
"94 460 CURVE SMOOTH",
"94 424 LINE SMOOTH",
"94 395 OFFCURVE",
"116 373 OFFCURVE",
"145 373 CURVE SMOOTH"
);
},
{
closed = 1;
nodes = (
"527 158 LINE SMOOTH",
"556 158 OFFCURVE",
"578 180 OFFCURVE",
"578 209 CURVE SMOOTH",
"578 245 LINE SMOOTH",
"578 274 OFFCURVE",
"556 296 OFFCURVE",
"527 296 CURVE SMOOTH",
"145 296 LINE SMOOTH",
"116 296 OFFCURVE",
"94 274 OFFCURVE",
"94 245 CURVE SMOOTH",
"94 209 LINE SMOOTH",
"94 180 OFFCURVE",
"116 158 OFFCURVE",
"145 158 CURVE SMOOTH"
);
}
);
width = 672;
}
);
leftKerningGroup = equal;
rightKerningGroup = equal;
unicode = 003D;
},
{
color = 1;
glyphname = question;
layers = (
{
layerId = "C836F59C-81CC-4411-94AE-B4087123016A";
paths = (
{
closed = 1;
nodes = (
"277 197 LINE SMOOTH",
"294 197 OFFCURVE",
"306 211 OFFCURVE",
"306 228 CURVE SMOOTH",
"306 346 LINE",
"296 319 LINE",
"450 319 OFFCURVE",
"513 424 OFFCURVE",
"513 521 CURVE SMOOTH",
"513 631 OFFCURVE",
"420 710 OFFCURVE",
"289 710 CURVE SMOOTH",
"158 710 OFFCURVE",
"69 637 OFFCURVE",
"69 530 CURVE",
"129 530 LINE",
"129 610 OFFCURVE",
"189 655 OFFCURVE",
"294 655 CURVE SMOOTH",
"392 655 OFFCURVE",
"453 603 OFFCURVE",
"453 519 CURVE SMOOTH",
"453 443 OFFCURVE",
"414 374 OFFCURVE",
"290 374 CURVE SMOOTH",
"276 374 LINE SMOOTH",
"257 374 OFFCURVE",
"247 364 OFFCURVE",
"247 343 CURVE SMOOTH",
"247 228 LINE SMOOTH",
"247 211 OFFCURVE",
"259 197 OFFCURVE",
"276 197 CURVE SMOOTH"
);
},
{
closed = 1;
nodes = (
"311 -10 OFFCURVE",
"335 14 OFFCURVE",
"335 46 CURVE SMOOTH",
"335 78 OFFCURVE",
"311 102 OFFCURVE",
"279 102 CURVE SMOOTH",
"247 102 OFFCURVE",
"223 78 OFFCURVE",
"223 46 CURVE SMOOTH",
"223 14 OFFCURVE",
"247 -10 OFFCURVE",
"279 -10 CURVE SMOOTH"
);
},
{
closed = 1;
nodes = (
"141 473 OFFCURVE",
"159 492 OFFCURVE",
"159 516 CURVE SMOOTH",
"159 542 OFFCURVE",
"140 561 OFFCURVE",
"114 561 CURVE",
"69 530 LINE",
"69 494 OFFCURVE",
"87 473 OFFCURVE",
"117 473 CURVE SMOOTH"
);
}
);
width = 587;
},
{
background = {
paths = (
{
closed = 1;
nodes = (
"207 1 LINE",
"207 89 LINE SMOOTH",
"207 159 OFFCURVE",
"219 177 OFFCURVE",
"303 231 CURVE SMOOTH",
"486 349 OFFCURVE",
"527 401 OFFCURVE",
"527 512 CURVE SMOOTH",
"527 629 OFFCURVE",
"424 710 OFFCURVE",
"281 710 CURVE SMOOTH",
"141 710 OFFCURVE",
"40 633 OFFCURVE",
"40 531 CURVE",
"211 496 LINE",
"211 551 OFFCURVE",
"232 572 OFFCURVE",
"286 572 CURVE SMOOTH",
"328 572 OFFCURVE",
"356 547 OFFCURVE",
"356 511 CURVE SMOOTH",
"356 465 OFFCURVE",
"330 438 OFFCURVE",
"218 366 CURVE SMOOTH",
"75 275 OFFCURVE",
"40 222 OFFCURVE",
"40 99 CURVE SMOOTH",
"40 51 LINE SMOOTH",
"40 22 OFFCURVE",
"62 0 OFFCURVE",
"91 0 CURVE"
);
},
{
closed = 1;
nodes = (
"197 428 OFFCURVE",
"236 463 OFFCURVE",
"236 516 CURVE SMOOTH",
"236 572 OFFCURVE",
"194 614 OFFCURVE",
"138 614 CURVE",
"40 531 LINE",
"40 470 OFFCURVE",
"80 428 OFFCURVE",
"138 428 CURVE SMOOTH"
);
}
);
};
layerId = "120615CE-BBBA-4703-9D0A-81094A4EB7C9";
paths = (
{
closed = 1;
nodes = (
"311 261 LINE SMOOTH",
"340 261 OFFCURVE",
"362 283 OFFCURVE",
"362 312 CURVE SMOOTH",
"362 373 LINE",
"312 326 LINE",
"451 326 OFFCURVE",
"527 390 OFFCURVE",
"527 507 CURVE SMOOTH",
"527 628 OFFCURVE",
"427 710 OFFCURVE",
"276 710 CURVE SMOOTH",
"134 710 OFFCURVE",
"40 640 OFFCURVE",
"40 554 CURVE",
"211 496 LINE",
"211 547 OFFCURVE",
"235 572 OFFCURVE",
"286 572 CURVE SMOOTH",
"326 572 OFFCURVE",
"356 544 OFFCURVE",
"356 506 CURVE SMOOTH",
"356 453 OFFCURVE",
"327 425 OFFCURVE",
"274 425 CURVE SMOOTH",
"246 425 LINE SMOOTH",
"217 425 OFFCURVE",
"195 403 OFFCURVE",
"195 374 CURVE SMOOTH",
"195 312 LINE SMOOTH",
"195 283 OFFCURVE",
"217 261 OFFCURVE",
"246 261 CURVE SMOOTH"
);
},
{
closed = 1;
nodes = (
"339 -10 OFFCURVE",
"387 33 OFFCURVE",
"387 97 CURVE SMOOTH",
"387 161 OFFCURVE",
"339 204 OFFCURVE",
"275 204 CURVE SMOOTH",
"211 204 OFFCURVE",
"163 161 OFFCURVE",
"163 97 CURVE SMOOTH",
"163 33 OFFCURVE",
"211 -10 OFFCURVE",
"275 -10 CURVE SMOOTH"
);
},
{
closed = 1;
nodes = (
"197 451 OFFCURVE",
"236 486 OFFCURVE",
"236 539 CURVE SMOOTH",
"236 595 OFFCURVE",
"194 637 OFFCURVE",
"138 637 CURVE",
"40 554 LINE",
"40 493 OFFCURVE",
"80 451 OFFCURVE",
"138 451 CURVE SMOOTH"
);
}
);
width = 573;
}
);
leftKerningGroup = question;
rightKerningGroup = question;
unicode = 003F;
},
{
color = 1;
glyphname = at;
layers = (
{
background = {
paths = (
{
closed = 1;
nodes = (
"671 -195 OFFCURVE",
"751 -185 OFFCURVE",
"812 -169 CURVE SMOOTH",
"834 -163 OFFCURVE",
"838 -157 OFFCURVE",
"838 -137 CURVE SMOOTH",
"838 -120 OFFCURVE",
"831 -117 OFFCURVE",
"796 -117 CURVE SMOOTH",
"771 -117 OFFCURVE",
"702 -140 OFFCURVE",
"575 -140 CURVE SMOOTH",
"306 -140 OFFCURVE",
"145 4 OFFCURVE",
"145 245 CURVE SMOOTH",
"145 497 OFFCURVE",
"305 647 OFFCURVE",
"572 647 CURVE SMOOTH",
"808 647 OFFCURVE",
"963 510 OFFCURVE",
"963 302 CURVE SMOOTH",
"963 160 OFFCURVE",
"901 45 OFFCURVE",
"824 45 CURVE SMOOTH",
"773 45 OFFCURVE",
"755 76 OFFCURVE",
"755 166 CURVE SMOOTH",
"755 475 LINE SMOOTH",
"755 496 OFFCURVE",
"745 506 OFFCURVE",
"726 506 CURVE SMOOTH",
"724 506 LINE SMOOTH",
"705 506 OFFCURVE",
"696 496 OFFCURVE",
"696 475 CURVE SMOOTH",
"696 379 LINE",
"696 136 LINE SMOOTH",
"696 40 OFFCURVE",
"740 -10 OFFCURVE",
"824 -10 CURVE SMOOTH",
"936 -10 OFFCURVE",
"1023 127 OFFCURVE",
"1023 302 CURVE SMOOTH",
"1023 548 OFFCURVE",
"849 702 OFFCURVE",
"572 702 CURVE SMOOTH",
"271 702 OFFCURVE",
"85 527 OFFCURVE",
"85 244 CURVE SMOOTH",
"85 -41 OFFCURVE",
"267 -195 OFFCURVE",
"604 -195 CURVE SMOOTH"
);
},
{
closed = 1;
nodes = (
"606 -10 OFFCURVE",
"683 47 OFFCURVE",
"701 118 CURVE",
"701 217 LINE",
"696 217 LINE",
"696 121 OFFCURVE",
"624 45 OFFCURVE",
"535 45 CURVE SMOOTH",
"440 45 OFFCURVE",
"385 116 OFFCURVE",
"385 238 CURVE SMOOTH",
"385 379 OFFCURVE",
"440 455 OFFCURVE",
"543 455 CURVE SMOOTH",
"612 455 OFFCURVE",
"675 410 OFFCURVE",
"721 327 CURVE",
"721 374 LINE",
"695 454 OFFCURVE",
"621 510 OFFCURVE",
"542 510 CURVE SMOOTH",
"409 510 OFFCURVE",
"325 408 OFFCURVE",
"325 247 CURVE SMOOTH",
"325 91 OFFCURVE",
"405 -10 OFFCURVE",
"528 -10 CURVE SMOOTH"
);
}
);
};
layerId = "C836F59C-81CC-4411-94AE-B4087123016A";
paths = (
{
closed = 1;
nodes = (
"666 -197 OFFCURVE",
"718 -189 OFFCURVE",
"813 -159 CURVE SMOOTH",
"832 -153 OFFCURVE",
"840 -144 OFFCURVE",
"840 -128 CURVE SMOOTH",
"840 -111 OFFCURVE",
"832 -101 OFFCURVE",
"818 -101 CURVE SMOOTH",
"811 -101 OFFCURVE",
"801 -104 OFFCURVE",
"787 -109 CURVE SMOOTH",
"759 -119 OFFCURVE",
"686 -142 OFFCURVE",
"573 -142 CURVE SMOOTH",
"314 -142 OFFCURVE",
"152 -8 OFFCURVE",
"152 247 CURVE SMOOTH",
"152 495 OFFCURVE",
"307 647 OFFCURVE",
"561 647 CURVE SMOOTH",
"809 647 OFFCURVE",
"963 511 OFFCURVE",
"963 293 CURVE SMOOTH",
"963 155 OFFCURVE",
"900 45 OFFCURVE",
"821 45 CURVE SMOOTH",
"775 45 OFFCURVE",
"755 82 OFFCURVE",
"755 166 CURVE SMOOTH",
"755 475 LINE SMOOTH",
"755 496 OFFCURVE",
"745 506 OFFCURVE",
"726 506 CURVE SMOOTH",
"724 506 LINE SMOOTH",
"705 506 OFFCURVE",
"696 496 OFFCURVE",
"696 475 CURVE SMOOTH",
"696 379 LINE",
"696 136 LINE SMOOTH",
"696 43 OFFCURVE",
"740 -10 OFFCURVE",
"817 -10 CURVE SMOOTH",
"935 -10 OFFCURVE",
"1023 121 OFFCURVE",
"1023 297 CURVE SMOOTH",
"1023 542 OFFCURVE",
"842 702 OFFCURVE",
"565 702 CURVE SMOOTH",
"272 702 OFFCURVE",
"92 527 OFFCURVE",
"92 245 CURVE SMOOTH",
"92 -41 OFFCURVE",
"279 -197 OFFCURVE",
"573 -197 CURVE SMOOTH"
);
},
{
closed = 1;
nodes = (
"606 -10 OFFCURVE",
"683 47 OFFCURVE",
"701 118 CURVE",
"701 217 LINE",
"696 217 LINE",
"696 121 OFFCURVE",
"624 45 OFFCURVE",
"535 45 CURVE SMOOTH",
"440 45 OFFCURVE",
"385 116 OFFCURVE",
"385 238 CURVE SMOOTH",
"385 379 OFFCURVE",
"440 455 OFFCURVE",
"543 455 CURVE SMOOTH",
"612 455 OFFCURVE",
"675 410 OFFCURVE",
"721 327 CURVE",
"721 374 LINE",
"695 454 OFFCURVE",
"621 510 OFFCURVE",
"542 510 CURVE SMOOTH",
"409 510 OFFCURVE",
"325 408 OFFCURVE",
"325 247 CURVE SMOOTH",
"325 91 OFFCURVE",
"405 -10 OFFCURVE",
"528 -10 CURVE SMOOTH"
);
}
);
width = 1112;
},
{
background = {
paths = (
{
closed = 1;
nodes = (
"366 -102 OFFCURVE",
"196 14 OFFCURVE",
"196 249 CURVE SMOOTH",
"196 493 OFFCURVE",
"340 602 OFFCURVE",
"575 602 CURVE SMOOTH",
"843 602 OFFCURVE",
"982 508 OFFCURVE",
"982 308 CURVE SMOOTH",
"982 192 OFFCURVE",
"926 122 OFFCURVE",
"887 122 CURVE SMOOTH",
"864 122 OFFCURVE",
"831 138 OFFCURVE",
"831 198 CURVE SMOOTH",
"831 449 LINE SMOOTH",
"831 478 OFFCURVE",
"809 500 OFFCURVE",
"780 500 CURVE SMOOTH",
"746 500 LINE SMOOTH",
"722 500 OFFCURVE",
"709 491 OFFCURVE",
"702 467 CURVE SMOOTH",
"666 345 LINE",
"666 96 LINE SMOOTH",
"666 40 OFFCURVE",
"744 -10 OFFCURVE",
"830 -10 CURVE SMOOTH",
"971 -10 OFFCURVE",
"1112 129 OFFCURVE",
"1112 308 CURVE SMOOTH",
"1112 571 OFFCURVE",
"911 722 OFFCURVE",
"575 722 CURVE SMOOTH",
"284 722 OFFCURVE",
"66 542 OFFCURVE",
"66 248 CURVE SMOOTH",
"66 -61 OFFCURVE",
"280 -215 OFFCURVE",
"605 -215 CURVE SMOOTH",
"668 -215 OFFCURVE",
"751 -208 OFFCURVE",
"813 -194 CURVE SMOOTH",
"840 -188 OFFCURVE",
"855 -162 OFFCURVE",
"849 -131 CURVE SMOOTH",
"847 -121 LINE SMOOTH",
"842 -94 OFFCURVE",
"814 -79 OFFCURVE",
"784 -85 CURVE SMOOTH",
"723 -97 OFFCURVE",
"666 -102 OFFCURVE",
"576 -102 CURVE SMOOTH"
);
},
{
closed = 1;
nodes = (
"585 -10 OFFCURVE",
"646 32 OFFCURVE",
"669 97 CURVE",
"669 258 LINE",
"666 258 LINE",
"666 183 OFFCURVE",
"624 125 OFFCURVE",
"570 125 CURVE SMOOTH",
"519 125 OFFCURVE",
"490 168 OFFCURVE",
"490 243 CURVE SMOOTH",
"490 327 OFFCURVE",
"521 375 OFFCURVE",
"576 375 CURVE SMOOTH",
"622 375 OFFCURVE",
"666 351 OFFCURVE",
"683 317 CURVE",
"705 405 LINE",
"668 476 OFFCURVE",
"617 510 OFFCURVE",
"548 510 CURVE SMOOTH",
"404 510 OFFCURVE",
"322 411 OFFCURVE",
"322 237 CURVE SMOOTH",
"322 85 OFFCURVE",
"396 -10 OFFCURVE",
"515 -10 CURVE SMOOTH"
);
}
);
};
layerId = "120615CE-BBBA-4703-9D0A-81094A4EB7C9";
paths = (
{
closed = 1;
nodes = (
"678 -233 OFFCURVE",
"791 -217 OFFCURVE",
"831 -202 CURVE SMOOTH",
"855 -193 OFFCURVE",
"868 -180 OFFCURVE",
"868 -147 CURVE SMOOTH",
"868 -107 OFFCURVE",
"850 -86 OFFCURVE",
"820 -86 CURVE SMOOTH",
"809 -86 OFFCURVE",
"794 -89 OFFCURVE",
"774 -93 CURVE SMOOTH",
"704 -107 OFFCURVE",
"651 -113 OFFCURVE",
"599 -113 CURVE SMOOTH",
"340 -113 OFFCURVE",
"189 17 OFFCURVE",
"189 245 CURVE SMOOTH",
"189 470 OFFCURVE",
"346 615 OFFCURVE",
"591 615 CURVE SMOOTH",
"837 615 OFFCURVE",
"982 500 OFFCURVE",
"982 306 CURVE SMOOTH",
"982 197 OFFCURVE",
"939 110 OFFCURVE",
"885 110 CURVE SMOOTH",
"853 110 OFFCURVE",
"831 141 OFFCURVE",
"831 186 CURVE SMOOTH",
"831 449 LINE SMOOTH",
"831 478 OFFCURVE",
"809 500 OFFCURVE",
"780 500 CURVE SMOOTH",
"746 500 LINE SMOOTH",
"722 500 OFFCURVE",
"709 491 OFFCURVE",
"702 467 CURVE SMOOTH",
"666 345 LINE",
"666 170 LINE SMOOTH",
"666 61 OFFCURVE",
"740 -10 OFFCURVE",
"854 -10 CURVE SMOOTH",
"1007 -10 OFFCURVE",
"1112 119 OFFCURVE",
"1112 306 CURVE SMOOTH",
"1112 563 OFFCURVE",
"904 735 OFFCURVE",
"593 735 CURVE SMOOTH",
"282 735 OFFCURVE",
"59 530 OFFCURVE",
"59 244 CURVE SMOOTH",
"59 -43 OFFCURVE",
"276 -233 OFFCURVE",
"597 -233 CURVE SMOOTH"
);
},
{
closed = 1;
nodes = (
"598 -10 OFFCURVE",
"663 47 OFFCURVE",
"682 136 CURVE",
"669 258 LINE",
"666 258 LINE",
"666 183 OFFCURVE",
"624 125 OFFCURVE",
"570 125 CURVE SMOOTH",
"519 125 OFFCURVE",
"490 168 OFFCURVE",
"490 243 CURVE SMOOTH",
"490 327 OFFCURVE",
"521 375 OFFCURVE",
"576 375 CURVE SMOOTH",
"622 375 OFFCURVE",
"666 351 OFFCURVE",
"683 317 CURVE",
"705 405 LINE",
"668 476 OFFCURVE",
"617 510 OFFCURVE",
"548 510 CURVE SMOOTH",
"404 510 OFFCURVE",
"322 411 OFFCURVE",
"322 237 CURVE SMOOTH",
"322 85 OFFCURVE",
"396 -10 OFFCURVE",
"515 -10 CURVE SMOOTH"
);
}
);
width = 1168;
}
);
leftKerningGroup = at;
rightKerningGroup = at;
unicode = 0040;
},
{
color = 1;
glyphname = A;
layers = (
{
anchors = (
{
name = bottom;
position = "{372, 0}";
},
{
name = ogonek;
position = "{678, 10}";
},
{
name = top;
position = "{372, 700}";
}
);
hints = (
{
origin = "{0, 13}";
type = Corner;
name = _corner.leftSerif;
},
{
origin = "{0, 3}";
type = Corner;
name = _corner.leftSerif;
},
{
origin = "{0, 0}";
type = Corner;
name = _corner.rightSerif;
options = 1;
},
{
origin = "{0, 4}";
type = Corner;
name = _corner.rightSerif;
options = 1;
}
);
layerId = "120615CE-BBBA-4703-9D0A-81094A4EB7C9";
paths = (
{
closed = 1;
nodes = (
"188 0 LINE",
"392 603 LINE",
"322 603 LINE",
"526 0 LINE",
"700 0 LINE",
"464 664 LINE SMOOTH",
"456 687 OFFCURVE",
"436 700 OFFCURVE",
"413 700 CURVE SMOOTH",
"330 700 LINE SMOOTH",
"307 700 OFFCURVE",
"287 687 OFFCURVE",
"279 664 CURVE SMOOTH",
"43 0 LINE"
);
},
{
closed = 1;
nodes = (
"515 214 LINE",
"515 352 LINE",
"239 352 LINE",
"239 214 LINE"
);
}
);
width = 743;
},
{
anchors = (
{
name = bottom;
position = "{383, 0}";
},
{
name = ogonek;
position = "{709, 10}";
},
{
name = top;
position = "{380, 700}";
}
);
hints = (
{
origin = "{0, 13}";
type = Corner;
name = _corner.leftSerif;
},
{
origin = "{0, 0}";
type = Corner;
name = _corner.rightSerif;
options = 1;
},
{
origin = "{0, 3}";
type = Corner;
name = _corner.leftSerif;
},
{
origin = "{0, 4}";
type = Corner;
name = _corner.rightSerif;
options = 1;
}
);
layerId = "C836F59C-81CC-4411-94AE-B4087123016A";
paths = (
{
closed = 1;
nodes = (
"144 0 LINE",
"396 647 LINE",
"362 647 LINE",
"623 0 LINE",
"684 0 LINE",
"408 683 LINE SMOOTH",
"404 693 OFFCURVE",
"394 700 OFFCURVE",
"383 700 CURVE SMOOTH",
"375 700 LINE SMOOTH",
"364 700 OFFCURVE",
"353 693 OFFCURVE",
"349 682 CURVE SMOOTH",
"83 0 LINE"
);
},
{
closed = 1;
nodes = (
"550 231 LINE",
"550 286 LINE",
"208 286 LINE",
"208 231 LINE"
);
}
);
width = 766;
},
{
associatedMasterId = "120615CE-BBBA-4703-9D0A-81094A4EB7C9";
guideLines = (
{
angle = -71.591;
position = "{559, 0}";
}
);
hints = (
{
origin = "{0, 13}";
type = Corner;
name = _corner.leftSerif;
},
{
origin = "{0, 3}";
type = Corner;
name = _corner.leftSerif;
},
{
origin = "{0, 0}";
type = Corner;
name = _corner.rightSerif;
options = 1;
},
{
origin = "{0, 4}";
type = Corner;
name = _corner.rightSerif;
options = 1;
}
);
layerId = "B1B6628F-E9FD-40F8-812C-69FD949C188E";
name = "Jan 10 18, 10:33";
paths = (
{
closed = 1;
nodes = (
"218 0 LINE",
"407 568 LINE",
"367 568 LINE",
"556 0 LINE",
"730 0 LINE",
"509 664 LINE SMOOTH",
"501 687 OFFCURVE",
"481 700 OFFCURVE",
"458 700 CURVE SMOOTH",
"345 700 LINE SMOOTH",
"322 700 OFFCURVE",
"302 687 OFFCURVE",
"294 664 CURVE SMOOTH",
"73 0 LINE"
);
},
{
closed = 1;
nodes = (
"545 217 LINE",
"545 355 LINE",
"269 355 LINE",
"269 217 LINE"
);
}
);
width = 781;
}
);
leftKerningGroup = A;
rightKerningGroup = A;
unicode = 0041;
},
{
color = 1;
glyphname = B;
layers = (
{
hints = (
{
origin = "{1, 2}";
type = Corner;
name = _corner.rightSerif;
options = 1;
},
{
origin = "{1, 3}";
type = Corner;
name = _corner.leftSerif;
}
);
layerId = "120615CE-BBBA-4703-9D0A-81094A4EB7C9";
paths = (
{
closed = 1;
nodes = (
"336 0 LINE SMOOTH",
"519 0 OFFCURVE",
"630 81 OFFCURVE",
"630 214 CURVE SMOOTH",
"630 311 OFFCURVE",
"565 377 OFFCURVE",
"458 388 CURVE",
"459 375 LINE",
"548 399 OFFCURVE",
"597 456 OFFCURVE",
"597 536 CURVE SMOOTH",
"597 648 OFFCURVE",
"513 700 OFFCURVE",
"334 700 CURVE SMOOTH",
"189 700 LINE",
"189 562 LINE",
"323 562 LINE SMOOTH",
"400 562 OFFCURVE",
"426 546 OFFCURVE",
"426 498 CURVE SMOOTH",
"426 447 OFFCURVE",
"395 426 OFFCURVE",
"317 426 CURVE SMOOTH",
"236 426 LINE",
"236 288 LINE",
"347 288 LINE SMOOTH",
"427 288 OFFCURVE",
"459 268 OFFCURVE",
"459 217 CURVE SMOOTH",
"459 159 OFFCURVE",
"423 138 OFFCURVE",
"325 138 CURVE SMOOTH",
"199 138 LINE",
"199 0 LINE"
);
},
{
closed = 1;
nodes = (
"280 0 LINE",
"280 700 LINE",
"113 700 LINE",
"113 0 LINE"
);
}
);
width = 675;
},
{
guideLines = (
{
angle = 90;
position = "{524, 213}";
},
{
angle = 90;
position = "{584, 211}";
}
);
hints = (
{
origin = "{1, 3}";
type = Corner;
name = _corner.leftSerif;
},
{
origin = "{1, 2}";
type = Corner;
name = _corner.rightSerif;
options = 1;
}
);
layerId = "C836F59C-81CC-4411-94AE-B4087123016A";
paths = (
{
closed = 1;
nodes = (
"303 0 LINE SMOOTH",
"483 0 OFFCURVE",
"584 78 OFFCURVE",
"584 211 CURVE SMOOTH",
"584 300 OFFCURVE",
"530 363 OFFCURVE",
"431 385 CURVE",
"436 373 LINE",
"512 409 OFFCURVE",
"552 464 OFFCURVE",
"552 534 CURVE SMOOTH",
"552 644 OFFCURVE",
"474 700 OFFCURVE",
"319 700 CURVE SMOOTH",
"161 700 LINE",
"161 645 LINE",
"309 645 LINE SMOOTH",
"438 645 OFFCURVE",
"492 611 OFFCURVE",
"492 528 CURVE SMOOTH",
"492 443 OFFCURVE",
"424 395 OFFCURVE",
"308 395 CURVE SMOOTH",
"161 395 LINE",
"161 340 LINE",
"335 340 LINE SMOOTH",
"459 340 OFFCURVE",
"524 296 OFFCURVE",
"524 213 CURVE SMOOTH",
"524 104 OFFCURVE",
"451 55 OFFCURVE",
"289 55 CURVE SMOOTH",
"161 55 LINE",
"161 0 LINE"
);
},
{
closed = 1;
nodes = (
"183 0 LINE",
"183 700 LINE",
"124 700 LINE",
"124 0 LINE"
);
}
);
width = 655;
}
);
leftKerningGroup = H;
rightKerningGroup = B;
unicode = 0042;
},
{
color = 1;
glyphname = C;
layers = (
{
anchors = (
{
name = bottom;
position = "{374, 0}";
},
{
name = top;
position = "{327, 700}";
}
);
background = {
paths = (
{
closed = 1;
nodes = (
"567 420 OFFCURVE",
"607 462 OFFCURVE",
"607 523 CURVE",
"509 606 LINE",
"453 606 OFFCURVE",
"411 564 OFFCURVE",
"411 508 CURVE SMOOTH",
"411 455 OFFCURVE",
"450 420 OFFCURVE",
"509 420 CURVE SMOOTH"
);
},
{
closed = 1;
nodes = (
"263 128 OFFCURVE",
"215 194 OFFCURVE",
"215 343 CURVE SMOOTH",
"215 498 OFFCURVE",
"268 572 OFFCURVE",
"372 572 CURVE SMOOTH",
"445 572 OFFCURVE",
"459 549 OFFCURVE",
"475 513 CURVE",
"607 523 LINE",
"607 629 OFFCURVE",
"524 710 OFFCURVE",
"375 710 CURVE SMOOTH",
"170 710 OFFCURVE",
"44 569 OFFCURVE",
"44 341 CURVE SMOOTH",
"44 121 OFFCURVE",
"162 -10 OFFCURVE",
"361 -10 CURVE SMOOTH",
"529 -10 OFFCURVE",
"606 120 OFFCURVE",
"606 178 CURVE SMOOTH",
"606 216 OFFCURVE",
"568 241 OFFCURVE",
"531 241 CURVE SMOOTH",
"466 241 OFFCURVE",
"486 128 OFFCURVE",
"362 128 CURVE SMOOTH"
);
}
);
};
layerId = "120615CE-BBBA-4703-9D0A-81094A4EB7C9";
paths = (
{
closed = 1;
nodes = (
"465 -10 OFFCURVE",
"536 27 OFFCURVE",
"584 108 CURVE SMOOTH",
"597 130 OFFCURVE",
"607 163 OFFCURVE",
"607 180 CURVE SMOOTH",
"607 217 OFFCURVE",
"573 241 OFFCURVE",
"533 241 CURVE SMOOTH",
"502 241 OFFCURVE",
"487 232 OFFCURVE",
"468 194 CURVE SMOOTH",
"445 148 OFFCURVE",
"415 128 OFFCURVE",
"369 128 CURVE SMOOTH",
"267 128 OFFCURVE",
"223 206 OFFCURVE",
"223 360 CURVE SMOOTH",
"223 505 OFFCURVE",
"261 572 OFFCURVE",
"361 572 CURVE SMOOTH",
"409 572 OFFCURVE",
"435 559 OFFCURVE",
"454 517 CURVE",
"607 538 LINE",
"607 638 OFFCURVE",
"500 710 OFFCURVE",
"358 710 CURVE SMOOTH",
"164 710 OFFCURVE",
"52 575 OFFCURVE",
"52 356 CURVE SMOOTH",
"52 135 OFFCURVE",
"168 -10 OFFCURVE",
"357 -10 CURVE SMOOTH"
);
},
{
closed = 1;
nodes = (
"567 435 OFFCURVE",
"607 477 OFFCURVE",
"607 538 CURVE",
"509 621 LINE",
"453 621 OFFCURVE",
"411 579 OFFCURVE",
"411 523 CURVE SMOOTH",
"411 470 OFFCURVE",
"450 435 OFFCURVE",
"509 435 CURVE SMOOTH"
);
}
);
width = 654;
},
{
anchors = (
{
name = bottom;
position = "{365, 0}";
},
{
name = top;
position = "{368, 700}";
}
);
background = {
paths = (
{
closed = 1;
nodes = (
"458 -10 OFFCURVE",
"526 3 OFFCURVE",
"596 31 CURVE",
"596 103 LINE",
"527 59 OFFCURVE",
"446 45 OFFCURVE",
"362 45 CURVE SMOOTH",
"209 45 OFFCURVE",
"121 153 OFFCURVE",
"121 341 CURVE SMOOTH",
"121 537 OFFCURVE",
"216 655 OFFCURVE",
"374 655 CURVE SMOOTH",
"494 655 OFFCURVE",
"554 587 OFFCURVE",
"554 492 CURVE",
"607 516 LINE",
"604 629 OFFCURVE",
"516 710 OFFCURVE",
"374 710 CURVE SMOOTH",
"185 710 OFFCURVE",
"61 564 OFFCURVE",
"61 341 CURVE SMOOTH",
"61 126 OFFCURVE",
"177 -10 OFFCURVE",
"362 -10 CURVE SMOOTH"
);
},
{
closed = 1;
nodes = (
"589 459 OFFCURVE",
"607 480 OFFCURVE",
"607 516 CURVE",
"562 547 LINE",
"536 547 OFFCURVE",
"517 528 OFFCURVE",
"517 502 CURVE SMOOTH",
"517 478 OFFCURVE",
"535 459 OFFCURVE",
"559 459 CURVE SMOOTH"
);
}
);
};
layerId = "C836F59C-81CC-4411-94AE-B4087123016A";
paths = (
{
closed = 1;
nodes = (
"476 -10 OFFCURVE",
"553 33 OFFCURVE",
"604 116 CURVE SMOOTH",
"612 129 OFFCURVE",
"616 139 OFFCURVE",
"616 149 CURVE SMOOTH",
"616 162 OFFCURVE",
"602 174 OFFCURVE",
"587 174 CURVE SMOOTH",
"576 174 OFFCURVE",
"570 169 OFFCURVE",
"560 151 CURVE SMOOTH",
"520 79 OFFCURVE",
"457 45 OFFCURVE",
"371 45 CURVE SMOOTH",
"218 45 OFFCURVE",
"138 158 OFFCURVE",
"138 350 CURVE SMOOTH",
"138 552 OFFCURVE",
"219 655 OFFCURVE",
"373 655 CURVE SMOOTH",
"470 655 OFFCURVE",
"556 603 OFFCURVE",
"556 530 CURVE",
"616 530 LINE",
"616 628 OFFCURVE",
"505 710 OFFCURVE",
"373 710 CURVE SMOOTH",
"188 710 OFFCURVE",
"78 579 OFFCURVE",
"78 350 CURVE SMOOTH",
"78 131 OFFCURVE",
"186 -10 OFFCURVE",
"371 -10 CURVE SMOOTH"
);
},
{
closed = 1;
nodes = (
"598 473 OFFCURVE",
"616 494 OFFCURVE",
"616 530 CURVE",
"571 561 LINE",
"545 561 OFFCURVE",
"526 542 OFFCURVE",
"526 516 CURVE SMOOTH",
"526 492 OFFCURVE",
"544 473 OFFCURVE",
"568 473 CURVE SMOOTH"
);
}
);
width = 683;
},
{
associatedMasterId = "120615CE-BBBA-4703-9D0A-81094A4EB7C9";
guideLines = (
{
angle = 90;
position = "{453, 492}";
},
{
angle = 90;
position = "{624, 494}";
}
);
layerId = "26A7089A-DB8E-42F6-AD13-C51D23850139";
name = "Dec 28 17, 16:57";
paths = (
{
closed = 1;
nodes = (
"281 109 OFFCURVE",
"229 192 OFFCURVE",
"229 343 CURVE SMOOTH",
"229 500 OFFCURVE",
"269 564 OFFCURVE",
"367 564 CURVE SMOOTH",
"424 564 OFFCURVE",
"453 535 OFFCURVE",
"453 478 CURVE SMOOTH",
"453 439 OFFCURVE",
"477 415 OFFCURVE",
"518 415 CURVE SMOOTH",
"583 415 OFFCURVE",
"624 461 OFFCURVE",
"624 535 CURVE SMOOTH",
"624 640 OFFCURVE",
"530 710 OFFCURVE",
"387 710 CURVE SMOOTH",
"187 710 OFFCURVE",
"58 566 OFFCURVE",
"58 341 CURVE SMOOTH",
"58 124 OFFCURVE",
"179 -10 OFFCURVE",
"375 -10 CURVE SMOOTH",
"466 -10 OFFCURVE",
"529 21 OFFCURVE",
"576 73 CURVE SMOOTH",
"602 102 OFFCURVE",
"612 125 OFFCURVE",
"612 149 CURVE SMOOTH",
"612 181 OFFCURVE",
"585 204 OFFCURVE",
"548 204 CURVE SMOOTH",
"524 204 OFFCURVE",
"510 196 OFFCURVE",
"491 171 CURVE SMOOTH",
"459 129 OFFCURVE",
"428 109 OFFCURVE",
"376 109 CURVE SMOOTH"
);
}
);
width = 675;
},
{
associatedMasterId = "C836F59C-81CC-4411-94AE-B4087123016A";
guideLines = (
{
angle = 90;
position = "{101, 341}";
},
{
angle = 90;
position = "{161, 341}";
},
{
angle = 245.4804;
position = "{630, 127}";
}
);
layerId = "91B35224-57A6-46E9-B0C1-1A9B1F37117D";
name = "Jan 1 18, 17:58";
paths = (
{
closed = 1;
nodes = (
"505 -10 OFFCURVE",
"591 43 OFFCURVE",
"630 127 CURVE SMOOTH",
"639 146 OFFCURVE",
"641 155 OFFCURVE",
"641 167 CURVE SMOOTH",
"641 180 OFFCURVE",
"630 191 OFFCURVE",
"616 191 CURVE SMOOTH",
"599 191 OFFCURVE",
"593 185 OFFCURVE",
"579 154 CURVE SMOOTH",
"547 85 OFFCURVE",
"483 45 OFFCURVE",
"402 45 CURVE SMOOTH",
"249 45 OFFCURVE",
"161 153 OFFCURVE",
"161 341 CURVE SMOOTH",
"161 537 OFFCURVE",
"256 655 OFFCURVE",
"414 655 CURVE SMOOTH",
"528 655 OFFCURVE",
"590 598 OFFCURVE",
"590 492 CURVE SMOOTH",
"590 462 OFFCURVE",
"597 450 OFFCURVE",
"614 450 CURVE SMOOTH",
"639 450 OFFCURVE",
"650 469 OFFCURVE",
"650 511 CURVE SMOOTH",
"650 630 OFFCURVE",
"555 710 OFFCURVE",
"414 710 CURVE SMOOTH",
"225 710 OFFCURVE",
"101 564 OFFCURVE",
"101 341 CURVE SMOOTH",
"101 126 OFFCURVE",
"217 -10 OFFCURVE",
"402 -10 CURVE SMOOTH"
);
},
{
closed = 0;
nodes = (
"355 517 LINE SMOOTH",
"456 517 OFFCURVE",
"504 483 OFFCURVE",
"504 414 CURVE SMOOTH",
"504 385 OFFCURVE",
"512 374 OFFCURVE",
"534 374 CURVE SMOOTH",
"556 374 OFFCURVE",
"564 385 OFFCURVE",
"564 414 CURVE SMOOTH",
"564 513 OFFCURVE",
"492 572 OFFCURVE",
"360 572 CURVE SMOOTH"
);
}
);
width = 743;
},
{
associatedMasterId = "120615CE-BBBA-4703-9D0A-81094A4EB7C9";
guideLines = (
{
angle = 90;
position = "{453, 492}";
},
{
angle = 90;
position = "{624, 494}";
},
{
angle = 90;
position = "{624, 535}";
},
{
angle = 90;
position = "{453, 534}";
}
);
layerId = "8B112004-C2F3-4B65-A825-CED38C15FD4B";
name = "Jan 2 18, 09:29";
paths = (
{
closed = 1;
nodes = (
"478 -10 OFFCURVE",
"537 34 OFFCURVE",
"584 86 CURVE SMOOTH",
"610 115 OFFCURVE",
"620 138 OFFCURVE",
"620 162 CURVE SMOOTH",
"620 194 OFFCURVE",
"593 217 OFFCURVE",
"556 217 CURVE SMOOTH",
"532 217 OFFCURVE",
"512 209 OFFCURVE",
"498 184 CURVE SMOOTH",
"468 130 OFFCURVE",
"423 108 OFFCURVE",
"376 108 CURVE SMOOTH",
"281 108 OFFCURVE",
"229 191 OFFCURVE",
"229 343 CURVE SMOOTH",
"229 500 OFFCURVE",
"269 564 OFFCURVE",
"367 564 CURVE SMOOTH",
"424 564 OFFCURVE",
"453 535 OFFCURVE",
"453 478 CURVE SMOOTH",
"453 439 OFFCURVE",
"477 415 OFFCURVE",
"518 415 CURVE SMOOTH",
"583 415 OFFCURVE",
"624 461 OFFCURVE",
"624 535 CURVE SMOOTH",
"624 640 OFFCURVE",
"525 710 OFFCURVE",
"382 710 CURVE SMOOTH",
"187 710 OFFCURVE",
"58 566 OFFCURVE",
"58 341 CURVE SMOOTH",
"58 124 OFFCURVE",
"179 -10 OFFCURVE",
"375 -10 CURVE SMOOTH"
);
}
);
width = 675;
},
{
associatedMasterId = "120615CE-BBBA-4703-9D0A-81094A4EB7C9";
guideLines = (
{
angle = 90;
position = "{465, 492}";
},
{
angle = 90;
position = "{636, 449}";
},
{
angle = 90;
position = "{465, 534}";
},
{
angle = 48.7879;
position = "{588, 86}";
},
{
angle = 90;
position = "{636, 513}";
},
{
angle = 90;
position = "{465, 511}";
}
);
layerId = "90B15C64-FA03-4875-B386-49A145A19D47";
name = "Jan 2 18, 11:50";
paths = (
{
closed = 1;
nodes = (
"465 -10 OFFCURVE",
"531 21 OFFCURVE",
"588 86 CURVE SMOOTH",
"609 110 OFFCURVE",
"622 134 OFFCURVE",
"622 159 CURVE SMOOTH",
"622 196 OFFCURVE",
"595 219 OFFCURVE",
"559 219 CURVE SMOOTH",
"530 219 OFFCURVE",
"516 202 OFFCURVE",
"503 184 CURVE SMOOTH",
"464 130 OFFCURVE",
"448 108 OFFCURVE",
"382 108 CURVE SMOOTH",
"282 108 OFFCURVE",
"234 185 OFFCURVE",
"234 336 CURVE SMOOTH",
"234 518 OFFCURVE",
"277 592 OFFCURVE",
"372 592 CURVE SMOOTH",
"453 592 OFFCURVE",
"465 537 OFFCURVE",
"465 478 CURVE SMOOTH",
"465 450 OFFCURVE",
"475 415 OFFCURVE",
"542 415 CURVE SMOOTH",
"608 415 OFFCURVE",
"636 450 OFFCURVE",
"636 513 CURVE SMOOTH",
"636 634 OFFCURVE",
"525 710 OFFCURVE",
"381 710 CURVE SMOOTH",
"185 710 OFFCURVE",
"63 569 OFFCURVE",
"63 341 CURVE SMOOTH",
"63 121 OFFCURVE",
"184 -10 OFFCURVE",
"374 -10 CURVE SMOOTH"
);
}
);
width = 692;
},
{
associatedMasterId = "120615CE-BBBA-4703-9D0A-81094A4EB7C9";
guideLines = (
{
angle = 90;
position = "{63, 341}";
},
{
angle = 55.3048;
position = "{589, 93}";
},
{
angle = 90;
position = "{638, 513}";
}
);
layerId = "F7922931-0094-4CDE-8263-32AAADD14BB2";
name = "Jan 4 18, 16:10";
paths = (
{
closed = 1;
nodes = (
"470 -10 OFFCURVE",
"550 29 OFFCURVE",
"599 98 CURVE SMOOTH",
"619 126 OFFCURVE",
"628 148 OFFCURVE",
"628 171 CURVE SMOOTH",
"628 207 OFFCURVE",
"597 234 OFFCURVE",
"557 234 CURVE SMOOTH",
"525 234 OFFCURVE",
"510 225 OFFCURVE",
"494 196 CURVE SMOOTH",
"467 147 OFFCURVE",
"436 128 OFFCURVE",
"386 128 CURVE SMOOTH",
"293 128 OFFCURVE",
"234 208 OFFCURVE",
"234 336 CURVE SMOOTH",
"234 494 OFFCURVE",
"280 572 OFFCURVE",
"372 572 CURVE SMOOTH",
"445 572 OFFCURVE",
"467 550 OFFCURVE",
"467 478 CURVE SMOOTH",
"467 437 OFFCURVE",
"493 415 OFFCURVE",
"544 415 CURVE SMOOTH",
"607 415 OFFCURVE",
"638 447 OFFCURVE",
"638 513 CURVE SMOOTH",
"638 629 OFFCURVE",
"533 710 OFFCURVE",
"381 710 CURVE SMOOTH",
"185 710 OFFCURVE",
"63 569 OFFCURVE",
"63 341 CURVE SMOOTH",
"63 126 OFFCURVE",
"185 -10 OFFCURVE",
"378 -10 CURVE SMOOTH"
);
}
);
width = 692;
},
{
associatedMasterId = "C836F59C-81CC-4411-94AE-B4087123016A";
guideLines = (
{
angle = 90;
position = "{101, 341}";
},
{
angle = 90;
position = "{161, 341}";
},
{
angle = 249.9548;
position = "{639, 127}";
},
{
angle = 90;
position = "{644, 167}";
}
);
layerId = "C61140D3-BF20-4E9F-9889-E00372B8A185";
name = "Jan 4 18, 16:16";
paths = (
{
closed = 1;
nodes = (
"521 -10 OFFCURVE",
"608 42 OFFCURVE",
"639 127 CURVE SMOOTH",
"644 141 OFFCURVE",
"647 154 OFFCURVE",
"647 167 CURVE SMOOTH",
"647 180 OFFCURVE",
"636 191 OFFCURVE",
"621 191 CURVE SMOOTH",
"605 191 OFFCURVE",
"599 184 OFFCURVE",
"588 154 CURVE SMOOTH",
"561 80 OFFCURVE",
"502 45 OFFCURVE",
"402 45 CURVE SMOOTH",
"249 45 OFFCURVE",
"161 153 OFFCURVE",
"161 341 CURVE SMOOTH",
"161 543 OFFCURVE",
"249 655 OFFCURVE",
"409 655 CURVE SMOOTH",
"525 655 OFFCURVE",
"589 593 OFFCURVE",
"589 504 CURVE SMOOTH",
"589 475 OFFCURVE",
"597 464 OFFCURVE",
"619 464 CURVE SMOOTH",
"641 464 OFFCURVE",
"649 475 OFFCURVE",
"649 504 CURVE SMOOTH",
"649 625 OFFCURVE",
"560 710 OFFCURVE",
"409 710 CURVE SMOOTH",
"218 710 OFFCURVE",
"101 570 OFFCURVE",
"101 341 CURVE SMOOTH",
"101 126 OFFCURVE",
"217 -10 OFFCURVE",
"402 -10 CURVE SMOOTH"
);
},
{
closed = 1;
nodes = (
"163 581 OFFCURVE",
"182 600 OFFCURVE",
"182 626 CURVE SMOOTH",
"182 652 OFFCURVE",
"163 671 OFFCURVE",
"137 671 CURVE SMOOTH",
"111 671 OFFCURVE",
"92 652 OFFCURVE",
"92 626 CURVE SMOOTH",
"92 600 OFFCURVE",
"111 581 OFFCURVE",
"137 581 CURVE SMOOTH"
);
}
);
width = 743;
},
{
associatedMasterId = "C836F59C-81CC-4411-94AE-B4087123016A";
background = {
paths = (
{
closed = 1;
nodes = (
"506 -10 OFFCURVE",
"584 39 OFFCURVE",
"638 151 CURVE SMOOTH",
"639 153 OFFCURVE",
"640 156 OFFCURVE",
"640 158 CURVE SMOOTH",
"640 162 OFFCURVE",
"637 166 OFFCURVE",
"633 167 CURVE SMOOTH",
"604 178 LINE SMOOTH",
"596 181 OFFCURVE",
"595 181 OFFCURVE",
"594 181 CURVE SMOOTH",
"590 181 OFFCURVE",
"587 179 OFFCURVE",
"586 175 CURVE SMOOTH",
"538 78 OFFCURVE",
"487 45 OFFCURVE",
"402 45 CURVE SMOOTH",
"249 45 OFFCURVE",
"161 153 OFFCURVE",
"161 341 CURVE SMOOTH",
"161 543 OFFCURVE",
"249 655 OFFCURVE",
"409 655 CURVE SMOOTH",
"525 655 OFFCURVE",
"589 593 OFFCURVE",
"589 504 CURVE",
"649 504 LINE",
"649 625 OFFCURVE",
"560 710 OFFCURVE",
"409 710 CURVE SMOOTH",
"218 710 OFFCURVE",
"101 570 OFFCURVE",
"101 341 CURVE SMOOTH",
"101 126 OFFCURVE",
"217 -10 OFFCURVE",
"402 -10 CURVE SMOOTH"
);
},
{
closed = 1;
nodes = (
"630 459 OFFCURVE",
"649 478 OFFCURVE",
"649 504 CURVE SMOOTH",
"649 530 OFFCURVE",
"630 549 OFFCURVE",
"604 549 CURVE SMOOTH",
"578 549 OFFCURVE",
"559 530 OFFCURVE",
"559 504 CURVE SMOOTH",
"559 478 OFFCURVE",
"578 459 OFFCURVE",
"604 459 CURVE SMOOTH"
);
}
);
};
guideLines = (
{
angle = 90;
position = "{101, 341}";
},
{
angle = 90;
position = "{161, 341}";
},
{
angle = 90;
position = "{644, 167}";
},
{
angle = 243.6717;
position = "{586, 175}";
},
{
angle = -20.556;
position = "{633, 167}";
}
);
layerId = "75B718E6-E003-4969-9396-2E669C757A38";
name = "Jan 4 18, 18:47";
paths = (
{
closed = 1;
nodes = (
"506 -10 OFFCURVE",
"584 39 OFFCURVE",
"638 151 CURVE SMOOTH",
"639 153 OFFCURVE",
"640 156 OFFCURVE",
"640 158 CURVE SMOOTH",
"640 162 OFFCURVE",
"637 166 OFFCURVE",
"633 167 CURVE SMOOTH",
"617 173 LINE SMOOTH",
"601 179 OFFCURVE",
"598 180 OFFCURVE",
"594 180 CURVE SMOOTH",
"589 180 OFFCURVE",
"587 177 OFFCURVE",
"586 175 CURVE SMOOTH",
"537 78 OFFCURVE",
"487 45 OFFCURVE",
"402 45 CURVE SMOOTH",
"249 45 OFFCURVE",
"161 153 OFFCURVE",
"161 341 CURVE SMOOTH",
"161 543 OFFCURVE",
"249 655 OFFCURVE",
"409 655 CURVE SMOOTH",
"525 655 OFFCURVE",
"589 593 OFFCURVE",
"589 504 CURVE",
"649 504 LINE",
"649 625 OFFCURVE",
"560 710 OFFCURVE",
"409 710 CURVE SMOOTH",
"218 710 OFFCURVE",
"101 570 OFFCURVE",
"101 341 CURVE SMOOTH",
"101 126 OFFCURVE",
"217 -10 OFFCURVE",
"402 -10 CURVE SMOOTH"
);
},
{
closed = 1;
nodes = (
"630 459 OFFCURVE",
"649 478 OFFCURVE",
"649 504 CURVE SMOOTH",
"649 530 OFFCURVE",
"630 549 OFFCURVE",
"604 549 CURVE SMOOTH",
"578 549 OFFCURVE",
"559 530 OFFCURVE",
"559 504 CURVE SMOOTH",
"559 478 OFFCURVE",
"578 459 OFFCURVE",
"604 459 CURVE SMOOTH"
);
}
);
width = 743;
},
{
associatedMasterId = "120615CE-BBBA-4703-9D0A-81094A4EB7C9";
background = {
paths = (
{
closed = 1;
nodes = (
"517 -10 OFFCURVE",
"587 68 OFFCURVE",
"625 161 CURVE SMOOTH",
"633 182 OFFCURVE",
"619 205 OFFCURVE",
"591 216 CURVE SMOOTH",
"559 228 LINE SMOOTH",
"534 237 OFFCURVE",
"508 226 OFFCURVE",
"495 200 CURVE SMOOTH",
"466 145 OFFCURVE",
"436 128 OFFCURVE",
"386 128 CURVE SMOOTH",
"293 128 OFFCURVE",
"234 208 OFFCURVE",
"234 336 CURVE SMOOTH",
"234 494 OFFCURVE",
"280 572 OFFCURVE",
"372 572 CURVE SMOOTH",
"445 572 OFFCURVE",
"467 550 OFFCURVE",
"467 478 CURVE",
"638 513 LINE",
"638 629 OFFCURVE",
"533 710 OFFCURVE",
"381 710 CURVE SMOOTH",
"185 710 OFFCURVE",
"63 569 OFFCURVE",
"63 341 CURVE SMOOTH",
"63 126 OFFCURVE",
"185 -10 OFFCURVE",
"378 -10 CURVE SMOOTH"
);
},
{
closed = 1;
nodes = (
"594 411 OFFCURVE",
"638 455 OFFCURVE",
"638 513 CURVE SMOOTH",
"638 571 OFFCURVE",
"594 615 OFFCURVE",
"536 615 CURVE SMOOTH",
"478 615 OFFCURVE",
"434 571 OFFCURVE",
"434 513 CURVE SMOOTH",
"434 455 OFFCURVE",
"478 411 OFFCURVE",
"536 411 CURVE SMOOTH"
);
}
);
};
guideLines = (
{
angle = 90;
position = "{467, 276}";
},
{
angle = 242.1985;
position = "{495, 200}";
},
{
angle = 90;
position = "{638, 513}";
},
{
angle = 90;
position = "{932, 271}";
},
{
angle = -20.505;
position = "{509, 237}";
}
);
layerId = "797C1479-5A21-49E2-A682-ADB82A99184C";
name = "Jan 8 18, 19:33";
paths = (
{
closed = 1;
nodes = (
"506 -10 OFFCURVE",
"585 51 OFFCURVE",
"636 190 CURVE",
"509 237 LINE",
"476 160 OFFCURVE",
"441 128 OFFCURVE",
"386 128 CURVE SMOOTH",
"293 128 OFFCURVE",
"234 208 OFFCURVE",
"234 336 CURVE SMOOTH",
"234 494 OFFCURVE",
"280 572 OFFCURVE",
"372 572 CURVE SMOOTH",
"445 572 OFFCURVE",
"467 550 OFFCURVE",
"467 478 CURVE",
"638 513 LINE",
"638 629 OFFCURVE",
"533 710 OFFCURVE",
"381 710 CURVE SMOOTH",
"185 710 OFFCURVE",
"63 569 OFFCURVE",
"63 341 CURVE SMOOTH",
"63 126 OFFCURVE",
"185 -10 OFFCURVE",
"378 -10 CURVE SMOOTH"
);
},
{
closed = 1;
nodes = (
"594 411 OFFCURVE",
"638 455 OFFCURVE",
"638 513 CURVE SMOOTH",
"638 571 OFFCURVE",
"594 615 OFFCURVE",
"536 615 CURVE SMOOTH",
"478 615 OFFCURVE",
"434 571 OFFCURVE",
"434 513 CURVE SMOOTH",
"434 455 OFFCURVE",
"478 411 OFFCURVE",
"536 411 CURVE SMOOTH"
);
}
);
width = 694;
},
{
associatedMasterId = "120615CE-BBBA-4703-9D0A-81094A4EB7C9";
background = {
paths = (
{
closed = 1;
nodes = (
"517 -10 OFFCURVE",
"587 68 OFFCURVE",
"625 161 CURVE SMOOTH",
"633 182 OFFCURVE",
"619 205 OFFCURVE",
"591 216 CURVE SMOOTH",
"559 228 LINE SMOOTH",
"534 237 OFFCURVE",
"508 226 OFFCURVE",
"495 200 CURVE SMOOTH",
"466 145 OFFCURVE",
"436 128 OFFCURVE",
"386 128 CURVE SMOOTH",
"293 128 OFFCURVE",
"234 208 OFFCURVE",
"234 336 CURVE SMOOTH",
"234 494 OFFCURVE",
"280 572 OFFCURVE",
"372 572 CURVE SMOOTH",
"445 572 OFFCURVE",
"467 550 OFFCURVE",
"467 478 CURVE",
"638 513 LINE",
"638 629 OFFCURVE",
"533 710 OFFCURVE",
"381 710 CURVE SMOOTH",
"185 710 OFFCURVE",
"63 569 OFFCURVE",
"63 341 CURVE SMOOTH",
"63 126 OFFCURVE",
"185 -10 OFFCURVE",
"378 -10 CURVE SMOOTH"
);
},
{
closed = 1;
nodes = (
"594 411 OFFCURVE",
"638 455 OFFCURVE",
"638 513 CURVE SMOOTH",
"638 571 OFFCURVE",
"594 615 OFFCURVE",
"536 615 CURVE SMOOTH",
"478 615 OFFCURVE",
"434 571 OFFCURVE",
"434 513 CURVE SMOOTH",
"434 455 OFFCURVE",
"478 411 OFFCURVE",
"536 411 CURVE SMOOTH"
);
}
);
};
guideLines = (
{
angle = 90;
position = "{467, 276}";
},
{
angle = 242.1985;
position = "{495, 200}";
},
{
angle = 90;
position = "{638, 513}";
},
{
angle = 90;
position = "{932, 271}";
},
{
angle = -20.505;
position = "{509, 237}";
}
);
layerId = "DD8ADAC4-FA65-4E5F-A3E1-7822A2F2BD89";
name = "Jan 8 18, 19:33";
paths = (
{
closed = 1;
nodes = (
"506 -10 OFFCURVE",
"585 51 OFFCURVE",
"636 190 CURVE",
"509 237 LINE",
"476 160 OFFCURVE",
"441 128 OFFCURVE",
"386 128 CURVE SMOOTH",
"293 128 OFFCURVE",
"234 208 OFFCURVE",
"234 336 CURVE SMOOTH",
"234 494 OFFCURVE",
"280 572 OFFCURVE",
"372 572 CURVE SMOOTH",
"445 572 OFFCURVE",
"467 550 OFFCURVE",
"467 478 CURVE",
"638 513 LINE",
"638 629 OFFCURVE",
"533 710 OFFCURVE",
"381 710 CURVE SMOOTH",
"185 710 OFFCURVE",
"63 569 OFFCURVE",
"63 341 CURVE SMOOTH",
"63 126 OFFCURVE",
"185 -10 OFFCURVE",
"378 -10 CURVE SMOOTH"
);
},
{
closed = 1;
nodes = (
"594 411 OFFCURVE",
"638 455 OFFCURVE",
"638 513 CURVE SMOOTH",
"638 571 OFFCURVE",
"594 615 OFFCURVE",
"536 615 CURVE SMOOTH",
"478 615 OFFCURVE",
"434 571 OFFCURVE",
"434 513 CURVE SMOOTH",
"434 455 OFFCURVE",
"478 411 OFFCURVE",
"536 411 CURVE SMOOTH"
);
}
);
width = 694;
},
{
associatedMasterId = "C836F59C-81CC-4411-94AE-B4087123016A";
background = {
paths = (
{
closed = 1;
nodes = (
"506 -10 OFFCURVE",
"584 39 OFFCURVE",
"638 151 CURVE SMOOTH",
"639 153 OFFCURVE",
"640 156 OFFCURVE",
"640 158 CURVE SMOOTH",
"640 162 OFFCURVE",
"637 166 OFFCURVE",
"633 167 CURVE SMOOTH",
"604 178 LINE SMOOTH",
"596 181 OFFCURVE",
"595 181 OFFCURVE",
"594 181 CURVE SMOOTH",
"590 181 OFFCURVE",
"587 179 OFFCURVE",
"586 175 CURVE SMOOTH",
"538 78 OFFCURVE",
"487 45 OFFCURVE",
"402 45 CURVE SMOOTH",
"249 45 OFFCURVE",
"161 153 OFFCURVE",
"161 341 CURVE SMOOTH",
"161 543 OFFCURVE",
"249 655 OFFCURVE",
"409 655 CURVE SMOOTH",
"525 655 OFFCURVE",
"589 593 OFFCURVE",
"589 504 CURVE",
"649 504 LINE",
"649 625 OFFCURVE",
"560 710 OFFCURVE",
"409 710 CURVE SMOOTH",
"218 710 OFFCURVE",
"101 570 OFFCURVE",
"101 341 CURVE SMOOTH",
"101 126 OFFCURVE",
"217 -10 OFFCURVE",
"402 -10 CURVE SMOOTH"
);
},
{
closed = 1;
nodes = (
"630 459 OFFCURVE",
"649 478 OFFCURVE",
"649 504 CURVE SMOOTH",
"649 530 OFFCURVE",
"630 549 OFFCURVE",
"604 549 CURVE SMOOTH",
"578 549 OFFCURVE",
"559 530 OFFCURVE",
"559 504 CURVE SMOOTH",
"559 478 OFFCURVE",
"578 459 OFFCURVE",
"604 459 CURVE SMOOTH"
);
}
);
};
guideLines = (
{
angle = 90;
position = "{101, 341}";
},
{
angle = 90;
position = "{161, 341}";
},
{
angle = -20.505;
position = "{638, 151}";
}
);
layerId = "1946D0D5-38A6-46CC-82F3-DBEFA8DB2F55";
name = "Jan 8 18, 20:16";
paths = (
{
closed = 1;
nodes = (
"508 -10 OFFCURVE",
"585 41 OFFCURVE",
"638 151 CURVE",
"586 171 LINE",
"540 81 OFFCURVE",
"486 45 OFFCURVE",
"398 45 CURVE SMOOTH",
"246 45 OFFCURVE",
"161 151 OFFCURVE",
"161 341 CURVE SMOOTH",
"161 543 OFFCURVE",
"249 655 OFFCURVE",
"409 655 CURVE SMOOTH",
"520 655 OFFCURVE",
"589 597 OFFCURVE",
"589 504 CURVE",
"649 504 LINE",
"649 629 OFFCURVE",
"555 710 OFFCURVE",
"409 710 CURVE SMOOTH",
"218 710 OFFCURVE",
"101 570 OFFCURVE",
"101 341 CURVE SMOOTH",
"101 124 OFFCURVE",
"215 -10 OFFCURVE",
"398 -10 CURVE SMOOTH"
);
},
{
closed = 1;
nodes = (
"630 459 OFFCURVE",
"649 478 OFFCURVE",
"649 504 CURVE SMOOTH",
"649 530 OFFCURVE",
"630 549 OFFCURVE",
"604 549 CURVE SMOOTH",
"578 549 OFFCURVE",
"559 530 OFFCURVE",
"559 504 CURVE SMOOTH",
"559 478 OFFCURVE",
"578 459 OFFCURVE",
"604 459 CURVE SMOOTH"
);
},
{
closed = 0;
nodes = (
"406 -10 LINE SMOOTH",
"509 -10 OFFCURVE",
"594 43 OFFCURVE",
"634 127 CURVE SMOOTH",
"643 146 OFFCURVE",
"645 155 OFFCURVE",
"645 167 CURVE SMOOTH",
"645 180 OFFCURVE",
"634 191 OFFCURVE",
"620 191 CURVE SMOOTH",
"603 191 OFFCURVE",
"597 185 OFFCURVE",
"583 154 CURVE SMOOTH",
"552 85 OFFCURVE",
"487 45 OFFCURVE",
"406 45 CURVE SMOOTH"
);
}
);
width = 743;
},
{
associatedMasterId = "C836F59C-81CC-4411-94AE-B4087123016A";
background = {
paths = (
{
closed = 1;
nodes = (
"631 459 OFFCURVE",
"650 478 OFFCURVE",
"650 504 CURVE",
"605 549 LINE",
"579 549 OFFCURVE",
"560 530 OFFCURVE",
"560 504 CURVE SMOOTH",
"560 478 OFFCURVE",
"579 459 OFFCURVE",
"605 459 CURVE SMOOTH"
);
},
{
closed = 1;
nodes = (
"502 -10 OFFCURVE",
"587 43 OFFCURVE",
"627 127 CURVE SMOOTH",
"636 146 OFFCURVE",
"638 154 OFFCURVE",
"638 166 CURVE SMOOTH",
"638 172 OFFCURVE",
"636 178 OFFCURVE",
"628 184 CURVE SMOOTH",
"624 187 OFFCURVE",
"617 189 OFFCURVE",
"611 189 CURVE SMOOTH",
"594 189 OFFCURVE",
"590 185 OFFCURVE",
"576 154 CURVE SMOOTH",
"545 85 OFFCURVE",
"480 45 OFFCURVE",
"399 45 CURVE SMOOTH",
"247 45 OFFCURVE",
"162 151 OFFCURVE",
"162 341 CURVE SMOOTH",
"162 543 OFFCURVE",
"250 655 OFFCURVE",
"410 655 CURVE SMOOTH",
"521 655 OFFCURVE",
"590 597 OFFCURVE",
"590 504 CURVE",
"650 504 LINE",
"650 629 OFFCURVE",
"556 710 OFFCURVE",
"410 710 CURVE SMOOTH",
"219 710 OFFCURVE",
"102 570 OFFCURVE",
"102 341 CURVE SMOOTH",
"102 124 OFFCURVE",
"216 -10 OFFCURVE",
"399 -10 CURVE SMOOTH"
);
}
);
};
guideLines = (
{
angle = 90;
position = "{102, 341}";
},
{
angle = 90;
position = "{162, 341}";
},
{
angle = -20.505;
position = "{639, 151}";
}
);
layerId = "C0E26356-BE0C-4833-8A11-F74FDB41396B";
name = "Jan 15 18, 15:34";
paths = (
{
closed = 1;
nodes = (
"638 473 OFFCURVE",
"656 494 OFFCURVE",
"656 530 CURVE",
"611 561 LINE",
"585 561 OFFCURVE",
"566 542 OFFCURVE",
"566 516 CURVE SMOOTH",
"566 492 OFFCURVE",
"584 473 OFFCURVE",
"608 473 CURVE SMOOTH"
);
},
{
closed = 1;
nodes = (
"162 537 OFFCURVE",
"246 655 OFFCURVE",
"413 655 CURVE SMOOTH",
"558 655 OFFCURVE",
"592 562 OFFCURVE",
"594 530 CURVE",
"656 530 LINE",
"656 594 OFFCURVE",
"590 710 OFFCURVE",
"413 710 CURVE SMOOTH",
"215 710 OFFCURVE",
"102 564 OFFCURVE",
"102 341 CURVE SMOOTH",
"102 124 OFFCURVE",
"216 -10 OFFCURVE",
"399 -10 CURVE SMOOTH",
"566 -10 OFFCURVE",
"636 122 OFFCURVE",
"636 166 CURVE SMOOTH",
"636 180 OFFCURVE",
"620 189 OFFCURVE",
"607 189 CURVE SMOOTH",
"571 189 OFFCURVE",
"568 45 OFFCURVE",
"399 45 CURVE SMOOTH",
"247 45 OFFCURVE",
"162 151 OFFCURVE",
"162 341 CURVE SMOOTH"
);
}
);
width = 742;
},
{
associatedMasterId = "120615CE-BBBA-4703-9D0A-81094A4EB7C9";
background = {
paths = (
{
closed = 1;
nodes = (
"598 422 OFFCURVE",
"638 459 OFFCURVE",
"638 513 CURVE",
"540 608 LINE",
"484 608 OFFCURVE",
"442 566 OFFCURVE",
"442 510 CURVE SMOOTH",
"442 454 OFFCURVE",
"484 422 OFFCURVE",
"540 422 CURVE SMOOTH"
);
},
{
closed = 1;
nodes = (
"473 -10 OFFCURVE",
"541 24 OFFCURVE",
"591 98 CURVE SMOOTH",
"603 117 OFFCURVE",
"612 138 OFFCURVE",
"612 156 CURVE SMOOTH",
"612 184 OFFCURVE",
"595 201 OFFCURVE",
"572 211 CURVE SMOOTH",
"563 215 OFFCURVE",
"549 219 OFFCURVE",
"537 219 CURVE SMOOTH",
"514 219 OFFCURVE",
"500 210 OFFCURVE",
"477 178 CURVE SMOOTH",
"451 142 OFFCURVE",
"424 128 OFFCURVE",
"386 128 CURVE SMOOTH",
"293 128 OFFCURVE",
"234 208 OFFCURVE",
"234 336 CURVE SMOOTH",
"234 494 OFFCURVE",
"280 572 OFFCURVE",
"372 572 CURVE SMOOTH",
"445 572 OFFCURVE",
"467 550 OFFCURVE",
"467 478 CURVE",
"638 513 LINE",
"638 629 OFFCURVE",
"533 710 OFFCURVE",
"381 710 CURVE SMOOTH",
"185 710 OFFCURVE",
"63 569 OFFCURVE",
"63 341 CURVE SMOOTH",
"63 126 OFFCURVE",
"185 -10 OFFCURVE",
"378 -10 CURVE SMOOTH"
);
}
);
};
guideLines = (
{
angle = 90;
position = "{467, 276}";
},
{
angle = 90;
position = "{638, 513}";
},
{
angle = 90;
position = "{932, 271}";
}
);
layerId = "C2BBD592-72DC-49A1-9CAE-3BBAC8B6F42C";
name = "Jan 15 18, 15:37";
paths = (
{
closed = 1;
nodes = (
"527 -10 OFFCURVE",
"612 98 OFFCURVE",
"612 156 CURVE SMOOTH",
"612 194 OFFCURVE",
"574 219 OFFCURVE",
"537 219 CURVE SMOOTH",
"472 219 OFFCURVE",
"481 128 OFFCURVE",
"386 128 CURVE SMOOTH",
"293 128 OFFCURVE",
"234 208 OFFCURVE",
"234 336 CURVE SMOOTH",
"234 494 OFFCURVE",
"280 572 OFFCURVE",
"372 572 CURVE SMOOTH",
"445 572 OFFCURVE",
"467 550 OFFCURVE",
"467 478 CURVE",
"638 513 LINE",
"638 629 OFFCURVE",
"533 710 OFFCURVE",
"381 710 CURVE SMOOTH",
"185 710 OFFCURVE",
"63 569 OFFCURVE",
"63 341 CURVE SMOOTH",
"63 126 OFFCURVE",
"185 -10 OFFCURVE",
"378 -10 CURVE SMOOTH"
);
},
{
closed = 1;
nodes = (
"598 410 OFFCURVE",
"638 452 OFFCURVE",
"638 513 CURVE",
"540 596 LINE",
"484 596 OFFCURVE",
"442 554 OFFCURVE",
"442 498 CURVE SMOOTH",
"442 445 OFFCURVE",
"481 410 OFFCURVE",
"540 410 CURVE SMOOTH"
);
}
);
width = 691;
},
{
associatedMasterId = "C836F59C-81CC-4411-94AE-B4087123016A";
background = {
paths = (
{
closed = 1;
nodes = (
"498 -10 OFFCURVE",
"566 3 OFFCURVE",
"636 31 CURVE",
"636 103 LINE",
"567 59 OFFCURVE",
"486 45 OFFCURVE",
"402 45 CURVE SMOOTH",
"249 45 OFFCURVE",
"161 153 OFFCURVE",
"161 341 CURVE SMOOTH",
"161 537 OFFCURVE",
"256 655 OFFCURVE",
"414 655 CURVE SMOOTH",
"534 655 OFFCURVE",
"594 587 OFFCURVE",
"594 492 CURVE",
"647 516 LINE",
"644 629 OFFCURVE",
"556 710 OFFCURVE",
"414 710 CURVE SMOOTH",
"225 710 OFFCURVE",
"101 564 OFFCURVE",
"101 341 CURVE SMOOTH",
"101 126 OFFCURVE",
"217 -10 OFFCURVE",
"402 -10 CURVE SMOOTH"
);
},
{
closed = 1;
nodes = (
"629 459 OFFCURVE",
"647 480 OFFCURVE",
"647 516 CURVE",
"602 547 LINE",
"576 547 OFFCURVE",
"557 528 OFFCURVE",
"557 502 CURVE SMOOTH",
"557 478 OFFCURVE",
"575 459 OFFCURVE",
"599 459 CURVE SMOOTH"
);
}
);
};
guideLines = (
{
angle = 90;
position = "{102, 341}";
},
{
angle = 90;
position = "{649, 504}";
},
{
angle = 232.4314;
position = "{574, 120}";
}
);
layerId = "C4E0D18D-CB82-48DA-B857-35B1E4DB33BA";
name = "Jan 16 18, 11:39";
paths = (
{
closed = 1;
nodes = (
"511 -10 OFFCURVE",
"597 29 OFFCURVE",
"652 95 CURVE",
"636 160 LINE",
"581 87 OFFCURVE",
"502 45 OFFCURVE",
"414 45 CURVE SMOOTH",
"262 45 OFFCURVE",
"161 153 OFFCURVE",
"161 356 CURVE SMOOTH",
"161 547 OFFCURVE",
"249 655 OFFCURVE",
"409 655 CURVE SMOOTH",
"520 655 OFFCURVE",
"589 597 OFFCURVE",
"589 504 CURVE",
"649 504 LINE",
"649 629 OFFCURVE",
"555 710 OFFCURVE",
"409 710 CURVE SMOOTH",
"218 710 OFFCURVE",
"101 574 OFFCURVE",
"101 356 CURVE SMOOTH",
"101 126 OFFCURVE",
"231 -10 OFFCURVE",
"414 -10 CURVE SMOOTH"
);
},
{
closed = 1;
nodes = (
"630 459 OFFCURVE",
"649 478 OFFCURVE",
"649 504 CURVE",
"604 549 LINE",
"578 549 OFFCURVE",
"559 530 OFFCURVE",
"559 504 CURVE SMOOTH",
"559 478 OFFCURVE",
"578 459 OFFCURVE",
"604 459 CURVE SMOOTH"
);
}
);
width = 816;
},
{
associatedMasterId = "C836F59C-81CC-4411-94AE-B4087123016A";
background = {
paths = (
{
closed = 1;
nodes = (
"498 -10 OFFCURVE",
"566 3 OFFCURVE",
"636 31 CURVE",
"636 103 LINE",
"567 59 OFFCURVE",
"486 45 OFFCURVE",
"402 45 CURVE SMOOTH",
"249 45 OFFCURVE",
"161 153 OFFCURVE",
"161 341 CURVE SMOOTH",
"161 537 OFFCURVE",
"256 655 OFFCURVE",
"414 655 CURVE SMOOTH",
"534 655 OFFCURVE",
"594 587 OFFCURVE",
"594 492 CURVE",
"647 516 LINE",
"644 629 OFFCURVE",
"556 710 OFFCURVE",
"414 710 CURVE SMOOTH",
"225 710 OFFCURVE",
"101 564 OFFCURVE",
"101 341 CURVE SMOOTH",
"101 126 OFFCURVE",
"217 -10 OFFCURVE",
"402 -10 CURVE SMOOTH"
);
},
{
closed = 1;
nodes = (
"629 459 OFFCURVE",
"647 480 OFFCURVE",
"647 516 CURVE",
"602 547 LINE",
"576 547 OFFCURVE",
"557 528 OFFCURVE",
"557 502 CURVE SMOOTH",
"557 478 OFFCURVE",
"575 459 OFFCURVE",
"599 459 CURVE SMOOTH"
);
}
);
};
guideLines = (
{
angle = 90;
position = "{102, 341}";
},
{
angle = 90;
position = "{649, 504}";
},
{
angle = 51.3402;
position = "{639, 106}";
}
);
layerId = "F252197F-5C61-42C2-95B0-71CC68B0EDA1";
name = "Jan 16 18, 16:28";
paths = (
{
closed = 1;
nodes = (
"521 -10 OFFCURVE",
"583 39 OFFCURVE",
"639 109 CURVE SMOOTH",
"647 119 OFFCURVE",
"648 127 OFFCURVE",
"648 131 CURVE SMOOTH",
"648 149 OFFCURVE",
"633 160 OFFCURVE",
"618 160 CURVE SMOOTH",
"609 160 OFFCURVE",
"603 156 OFFCURVE",
"597 148 CURVE SMOOTH",
"540 72 OFFCURVE",
"489 45 OFFCURVE",
"404 45 CURVE SMOOTH",
"252 45 OFFCURVE",
"161 153 OFFCURVE",
"161 356 CURVE SMOOTH",
"161 542 OFFCURVE",
"249 655 OFFCURVE",
"409 655 CURVE SMOOTH",
"520 655 OFFCURVE",
"589 597 OFFCURVE",
"589 504 CURVE",
"649 504 LINE",
"649 625 OFFCURVE",
"552 710 OFFCURVE",
"409 710 CURVE SMOOTH",
"218 710 OFFCURVE",
"101 569 OFFCURVE",
"101 356 CURVE SMOOTH",
"101 126 OFFCURVE",
"221 -10 OFFCURVE",
"404 -10 CURVE SMOOTH"
);
},
{
closed = 1;
nodes = (
"630 459 OFFCURVE",
"649 478 OFFCURVE",
"649 504 CURVE",
"604 549 LINE",
"578 549 OFFCURVE",
"559 530 OFFCURVE",
"559 504 CURVE SMOOTH",
"559 478 OFFCURVE",
"578 459 OFFCURVE",
"604 459 CURVE SMOOTH"
);
}
);
width = 816;
},
{
associatedMasterId = "C836F59C-81CC-4411-94AE-B4087123016A";
background = {
paths = (
{
closed = 1;
nodes = (
"498 -10 OFFCURVE",
"566 3 OFFCURVE",
"636 31 CURVE",
"636 103 LINE",
"567 59 OFFCURVE",
"486 45 OFFCURVE",
"402 45 CURVE SMOOTH",
"249 45 OFFCURVE",
"161 153 OFFCURVE",
"161 341 CURVE SMOOTH",
"161 537 OFFCURVE",
"256 655 OFFCURVE",
"414 655 CURVE SMOOTH",
"534 655 OFFCURVE",
"594 587 OFFCURVE",
"594 492 CURVE",
"647 516 LINE",
"644 629 OFFCURVE",
"556 710 OFFCURVE",
"414 710 CURVE SMOOTH",
"225 710 OFFCURVE",
"101 564 OFFCURVE",
"101 341 CURVE SMOOTH",
"101 126 OFFCURVE",
"217 -10 OFFCURVE",
"402 -10 CURVE SMOOTH"
);
},
{
closed = 1;
nodes = (
"629 459 OFFCURVE",
"647 480 OFFCURVE",
"647 516 CURVE",
"602 547 LINE",
"576 547 OFFCURVE",
"557 528 OFFCURVE",
"557 502 CURVE SMOOTH",
"557 478 OFFCURVE",
"575 459 OFFCURVE",
"599 459 CURVE SMOOTH"
);
}
);
};
guideLines = (
{
angle = 90;
position = "{102, 341}";
},
{
angle = 90;
position = "{649, 504}";
},
{
angle = 51.3402;
position = "{639, 106}";
}
);
layerId = "B8D0870B-6263-4138-A42A-9ADB799124BF";
name = "Jan 16 18, 16:28";
paths = (
{
closed = 1;
nodes = (
"521 -10 OFFCURVE",
"583 39 OFFCURVE",
"639 109 CURVE SMOOTH",
"647 119 OFFCURVE",
"648 127 OFFCURVE",
"648 131 CURVE SMOOTH",
"648 149 OFFCURVE",
"633 160 OFFCURVE",
"618 160 CURVE SMOOTH",
"609 160 OFFCURVE",
"603 156 OFFCURVE",
"597 148 CURVE SMOOTH",
"540 72 OFFCURVE",
"489 45 OFFCURVE",
"404 45 CURVE SMOOTH",
"252 45 OFFCURVE",
"161 153 OFFCURVE",
"161 356 CURVE SMOOTH",
"161 542 OFFCURVE",
"249 655 OFFCURVE",
"409 655 CURVE SMOOTH",
"520 655 OFFCURVE",
"589 597 OFFCURVE",
"589 504 CURVE",
"649 504 LINE",
"649 625 OFFCURVE",
"552 710 OFFCURVE",
"409 710 CURVE SMOOTH",
"218 710 OFFCURVE",
"101 569 OFFCURVE",
"101 356 CURVE SMOOTH",
"101 126 OFFCURVE",
"221 -10 OFFCURVE",
"404 -10 CURVE SMOOTH"
);
},
{
closed = 1;
nodes = (
"630 459 OFFCURVE",
"649 478 OFFCURVE",
"649 504 CURVE",
"604 549 LINE",
"578 549 OFFCURVE",
"559 530 OFFCURVE",
"559 504 CURVE SMOOTH",
"559 478 OFFCURVE",
"578 459 OFFCURVE",
"604 459 CURVE SMOOTH"
);
}
);
width = 816;
},
{
associatedMasterId = "120615CE-BBBA-4703-9D0A-81094A4EB7C9";
background = {
paths = (
{
closed = 1;
nodes = (
"586 420 OFFCURVE",
"626 462 OFFCURVE",
"626 523 CURVE",
"528 606 LINE",
"472 606 OFFCURVE",
"430 564 OFFCURVE",
"430 508 CURVE SMOOTH",
"430 455 OFFCURVE",
"469 420 OFFCURVE",
"528 420 CURVE SMOOTH"
);
},
{
closed = 1;
nodes = (
"282 128 OFFCURVE",
"234 194 OFFCURVE",
"234 343 CURVE SMOOTH",
"234 498 OFFCURVE",
"287 572 OFFCURVE",
"391 572 CURVE SMOOTH",
"464 572 OFFCURVE",
"478 549 OFFCURVE",
"494 513 CURVE",
"626 523 LINE",
"626 629 OFFCURVE",
"543 710 OFFCURVE",
"394 710 CURVE SMOOTH",
"189 710 OFFCURVE",
"63 569 OFFCURVE",
"63 341 CURVE SMOOTH",
"63 121 OFFCURVE",
"181 -10 OFFCURVE",
"380 -10 CURVE SMOOTH",
"548 -10 OFFCURVE",
"625 120 OFFCURVE",
"625 178 CURVE SMOOTH",
"625 216 OFFCURVE",
"587 241 OFFCURVE",
"550 241 CURVE SMOOTH",
"485 241 OFFCURVE",
"505 128 OFFCURVE",
"381 128 CURVE SMOOTH"
);
}
);
};
guideLines = (
{
angle = 90;
position = "{467, 276}";
},
{
angle = 90;
position = "{638, 513}";
},
{
angle = 90;
position = "{932, 271}";
},
{
angle = 90;
position = "{63, 341}";
}
);
layerId = "E6A101F3-67C5-43A0-8EB2-A331C6EA1EC2";
name = "Jan 16 18, 16:44";
paths = (
{
closed = 1;
nodes = (
"510 -10 OFFCURVE",
"625 74 OFFCURVE",
"625 171 CURVE SMOOTH",
"625 211 OFFCURVE",
"593 241 OFFCURVE",
"551 241 CURVE SMOOTH",
"482 241 OFFCURVE",
"516 128 OFFCURVE",
"388 128 CURVE SMOOTH",
"284 128 OFFCURVE",
"234 201 OFFCURVE",
"234 352 CURVE SMOOTH",
"234 500 OFFCURVE",
"282 572 OFFCURVE",
"380 572 CURVE SMOOTH",
"428 572 OFFCURVE",
"454 555 OFFCURVE",
"473 513 CURVE",
"626 534 LINE",
"626 634 OFFCURVE",
"519 710 OFFCURVE",
"377 710 CURVE SMOOTH",
"185 710 OFFCURVE",
"63 569 OFFCURVE",
"63 348 CURVE SMOOTH",
"63 129 OFFCURVE",
"185 -10 OFFCURVE",
"376 -10 CURVE SMOOTH"
);
},
{
closed = 1;
nodes = (
"586 431 OFFCURVE",
"626 473 OFFCURVE",
"626 534 CURVE",
"528 617 LINE",
"472 617 OFFCURVE",
"430 575 OFFCURVE",
"430 519 CURVE SMOOTH",
"430 466 OFFCURVE",
"469 431 OFFCURVE",
"528 431 CURVE SMOOTH"
);
}
);
width = 691;
},
{
associatedMasterId = "120615CE-BBBA-4703-9D0A-81094A4EB7C9";
background = {
paths = (
{
closed = 1;
nodes = (
"586 420 OFFCURVE",
"626 462 OFFCURVE",
"626 523 CURVE",
"528 606 LINE",
"472 606 OFFCURVE",
"430 564 OFFCURVE",
"430 508 CURVE SMOOTH",
"430 455 OFFCURVE",
"469 420 OFFCURVE",
"528 420 CURVE SMOOTH"
);
},
{
closed = 1;
nodes = (
"282 128 OFFCURVE",
"234 194 OFFCURVE",
"234 343 CURVE SMOOTH",
"234 498 OFFCURVE",
"287 572 OFFCURVE",
"391 572 CURVE SMOOTH",
"464 572 OFFCURVE",
"478 549 OFFCURVE",
"494 513 CURVE",
"626 523 LINE",
"626 629 OFFCURVE",
"543 710 OFFCURVE",
"394 710 CURVE SMOOTH",
"189 710 OFFCURVE",
"63 569 OFFCURVE",
"63 341 CURVE SMOOTH",
"63 121 OFFCURVE",
"181 -10 OFFCURVE",
"380 -10 CURVE SMOOTH",
"548 -10 OFFCURVE",
"625 120 OFFCURVE",
"625 178 CURVE SMOOTH",
"625 216 OFFCURVE",
"587 241 OFFCURVE",
"550 241 CURVE SMOOTH",
"485 241 OFFCURVE",
"505 128 OFFCURVE",
"381 128 CURVE SMOOTH"
);
}
);
};
guideLines = (
{
position = "{538, 358}";
},
{
angle = 90;
position = "{626, 534}";
},
{
angle = 90;
position = "{932, 271}";
},
{
angle = 90;
position = "{63, 341}";
},
{
angle = 243.435;
position = "{487, 194}";
}
);
layerId = "0E1476FB-2E36-416B-AC12-FA465722CED7";
name = "Jan 19 18, 12:05";
paths = (
{
closed = 1;
nodes = (
"484 -10 OFFCURVE",
"555 27 OFFCURVE",
"603 108 CURVE SMOOTH",
"616 130 OFFCURVE",
"626 163 OFFCURVE",
"626 180 CURVE SMOOTH",
"626 217 OFFCURVE",
"592 241 OFFCURVE",
"552 241 CURVE SMOOTH",
"521 241 OFFCURVE",
"506 232 OFFCURVE",
"487 194 CURVE SMOOTH",
"464 148 OFFCURVE",
"434 128 OFFCURVE",
"388 128 CURVE SMOOTH",
"286 128 OFFCURVE",
"234 206 OFFCURVE",
"234 360 CURVE SMOOTH",
"234 505 OFFCURVE",
"280 572 OFFCURVE",
"380 572 CURVE SMOOTH",
"428 572 OFFCURVE",
"454 559 OFFCURVE",
"473 517 CURVE",
"626 538 LINE",
"626 638 OFFCURVE",
"519 710 OFFCURVE",
"377 710 CURVE SMOOTH",
"183 710 OFFCURVE",
"63 575 OFFCURVE",
"63 356 CURVE SMOOTH",
"63 135 OFFCURVE",
"187 -10 OFFCURVE",
"376 -10 CURVE SMOOTH"
);
},
{
closed = 1;
nodes = (
"586 435 OFFCURVE",
"626 477 OFFCURVE",
"626 538 CURVE",
"528 621 LINE",
"472 621 OFFCURVE",
"430 579 OFFCURVE",
"430 523 CURVE SMOOTH",
"430 470 OFFCURVE",
"469 435 OFFCURVE",
"528 435 CURVE SMOOTH"
);
}
);
width = 691;
},
{
associatedMasterId = "C836F59C-81CC-4411-94AE-B4087123016A";
background = {
paths = (
{
closed = 1;
nodes = (
"498 -10 OFFCURVE",
"566 3 OFFCURVE",
"636 31 CURVE",
"636 103 LINE",
"567 59 OFFCURVE",
"486 45 OFFCURVE",
"402 45 CURVE SMOOTH",
"249 45 OFFCURVE",
"161 153 OFFCURVE",
"161 341 CURVE SMOOTH",
"161 537 OFFCURVE",
"256 655 OFFCURVE",
"414 655 CURVE SMOOTH",
"534 655 OFFCURVE",
"594 587 OFFCURVE",
"594 492 CURVE",
"647 516 LINE",
"644 629 OFFCURVE",
"556 710 OFFCURVE",
"414 710 CURVE SMOOTH",
"225 710 OFFCURVE",
"101 564 OFFCURVE",
"101 341 CURVE SMOOTH",
"101 126 OFFCURVE",
"217 -10 OFFCURVE",
"402 -10 CURVE SMOOTH"
);
},
{
closed = 1;
nodes = (
"629 459 OFFCURVE",
"647 480 OFFCURVE",
"647 516 CURVE",
"602 547 LINE",
"576 547 OFFCURVE",
"557 528 OFFCURVE",
"557 502 CURVE SMOOTH",
"557 478 OFFCURVE",
"575 459 OFFCURVE",
"599 459 CURVE SMOOTH"
);
}
);
};
guideLines = (
{
angle = 90;
position = "{102, 341}";
},
{
angle = 90;
position = "{656, 530}";
},
{
angle = 238.431;
position = "{644, 116}";
},
{
angle = 90;
position = "{422, 710}";
}
);
layerId = "E0C10B5D-1A3D-4703-BCA1-0E6AA310D602";
name = "Jan 19 18, 12:06";
paths = (
{
closed = 1;
nodes = (
"516 -10 OFFCURVE",
"593 33 OFFCURVE",
"644 116 CURVE SMOOTH",
"652 129 OFFCURVE",
"656 139 OFFCURVE",
"656 149 CURVE SMOOTH",
"656 162 OFFCURVE",
"642 174 OFFCURVE",
"627 174 CURVE SMOOTH",
"616 174 OFFCURVE",
"610 169 OFFCURVE",
"600 151 CURVE SMOOTH",
"560 79 OFFCURVE",
"497 45 OFFCURVE",
"411 45 CURVE SMOOTH",
"258 45 OFFCURVE",
"178 158 OFFCURVE",
"178 350 CURVE SMOOTH",
"178 552 OFFCURVE",
"259 655 OFFCURVE",
"413 655 CURVE SMOOTH",
"510 655 OFFCURVE",
"596 603 OFFCURVE",
"596 530 CURVE",
"656 530 LINE",
"656 628 OFFCURVE",
"545 710 OFFCURVE",
"413 710 CURVE SMOOTH",
"228 710 OFFCURVE",
"118 579 OFFCURVE",
"118 350 CURVE SMOOTH",
"118 131 OFFCURVE",
"226 -10 OFFCURVE",
"411 -10 CURVE SMOOTH"
);
},
{
closed = 1;
nodes = (
"638 473 OFFCURVE",
"656 494 OFFCURVE",
"656 530 CURVE",
"611 561 LINE",
"585 561 OFFCURVE",
"566 542 OFFCURVE",
"566 516 CURVE SMOOTH",
"566 492 OFFCURVE",
"584 473 OFFCURVE",
"608 473 CURVE SMOOTH"
);
}
);
width = 816;
}
);
leftKerningGroup = O;
rightKerningGroup = C;
unicode = 0043;
},
{
color = 1;
glyphname = D;
layers = (
{
anchors = (
{
name = bottom;
position = "{369, 0}";
},
{
name = center;
position = "{369, 350}";
},
{
name = top;
position = "{369, 700}";
}
);
hints = (
{
origin = "{1, 2}";
type = Corner;
name = _corner.rightSerif;
options = 1;
},
{
origin = "{1, 3}";
type = Corner;
name = _corner.leftSerif;
}
);
layerId = "120615CE-BBBA-4703-9D0A-81094A4EB7C9";
paths = (
{
closed = 1;
nodes = (
"239 562 LINE",
"345 562 LINE SMOOTH",
"460 562 OFFCURVE",
"517 497 OFFCURVE",
"517 365 CURVE SMOOTH",
"517 223 OFFCURVE",
"454 138 OFFCURVE",
"350 138 CURVE SMOOTH",
"239 138 LINE",
"239 0 LINE",
"356 0 LINE SMOOTH",
"552 0 OFFCURVE",
"688 152 OFFCURVE",
"688 372 CURVE SMOOTH",
"688 579 OFFCURVE",
"564 700 OFFCURVE",
"350 700 CURVE SMOOTH",
"239 700 LINE"
);
},
{
closed = 1;
nodes = (
"280 0 LINE",
"280 700 LINE",
"113 700 LINE",
"113 0 LINE"
);
}
);
width = 736;
},
{
anchors = (
{
name = bottom;
position = "{360, 0}";
},
{
name = center;
position = "{360, 350}";
},
{
name = top;
position = "{360, 700}";
}
);
hints = (
{
origin = "{1, 3}";
type = Corner;
name = _corner.leftSerif;
},
{
origin = "{1, 2}";
type = Corner;
name = _corner.rightSerif;
options = 1;
}
);
layerId = "C836F59C-81CC-4411-94AE-B4087123016A";
paths = (
{
closed = 1;
nodes = (
"160 645 LINE",
"307 645 LINE SMOOTH",
"495 645 OFFCURVE",
"585 553 OFFCURVE",
"585 362 CURVE SMOOTH",
"585 164 OFFCURVE",
"482 55 OFFCURVE",
"297 55 CURVE SMOOTH",
"160 55 LINE",
"160 0 LINE",
"307 0 LINE SMOOTH",
"515 0 OFFCURVE",
"645 140 OFFCURVE",
"645 363 CURVE SMOOTH",
"645 581 OFFCURVE",
"528 700 OFFCURVE",
"313 700 CURVE SMOOTH",
"160 700 LINE"
);
},
{
closed = 1;
nodes = (
"183 0 LINE",
"183 700 LINE",
"124 700 LINE",
"124 0 LINE"
);
}
);
width = 720;
}
);
leftKerningGroup = H;
rightKerningGroup = O;
unicode = 0044;
},
{
color = 1;
glyphname = E;
layers = (
{
anchors = (
{
name = bottom;
position = "{333, 0}";
},
{
name = ogonek;
position = "{608, 10}";
},
{
name = top;
position = "{325, 700}";
},
{
name = topleft;
position = "{8, 700}";
}
);
hints = (
{
origin = "{0, 2}";
type = Corner;
name = _corner.rightSerif;
options = 1;
},
{
origin = "{0, 3}";
type = Corner;
name = _corner.leftSerif;
}
);
layerId = "120615CE-BBBA-4703-9D0A-81094A4EB7C9";
paths = (
{
closed = 1;
nodes = (
"280 0 LINE",
"280 700 LINE",
"113 700 LINE",
"113 0 LINE"
);
},
{
closed = 1;
nodes = (
"540 0 LINE SMOOTH",
"575 0 OFFCURVE",
"601 25 OFFCURVE",
"601 59 CURVE SMOOTH",
"601 202 LINE SMOOTH",
"601 229 OFFCURVE",
"589 251 OFFCURVE",
"555 251 CURVE SMOOTH",
"509 251 LINE SMOOTH",
"475 251 OFFCURVE",
"463 229 OFFCURVE",
"463 202 CURVE SMOOTH",
"463 63 LINE",
"538 138 LINE",
"258 138 LINE",
"258 0 LINE"
);
},
{
closed = 1;
nodes = (
"419 293 LINE SMOOTH",
"448 293 OFFCURVE",
"470 315 OFFCURVE",
"470 344 CURVE SMOOTH",
"470 380 LINE SMOOTH",
"470 409 OFFCURVE",
"448 431 OFFCURVE",
"419 431 CURVE SMOOTH",
"155 431 LINE",
"155 293 LINE"
);
},
{
closed = 1;
nodes = (
"532 562 LINE",
"457 637 LINE",
"457 514 LINE SMOOTH",
"457 487 OFFCURVE",
"469 465 OFFCURVE",
"503 465 CURVE SMOOTH",
"549 465 LINE SMOOTH",
"583 465 OFFCURVE",
"595 487 OFFCURVE",
"595 514 CURVE SMOOTH",
"595 639 LINE SMOOTH",
"595 674 OFFCURVE",
"569 700 OFFCURVE",
"534 700 CURVE SMOOTH",
"252 700 LINE",
"252 562 LINE"
);
}
);
width = 664;
},
{
anchors = (
{
name = bottom;
position = "{322, 0}";
},
{
name = ogonek;
position = "{600, 10}";
},
{
name = top;
position = "{322, 700}";
},
{
name = topleft;
position = "{-5, 700}";
}
);
hints = (
{
origin = "{0, 3}";
type = Corner;
name = _corner.leftSerif;
},
{
origin = "{0, 2}";
type = Corner;
name = _corner.rightSerif;
options = 1;
}
);
layerId = "C836F59C-81CC-4411-94AE-B4087123016A";
paths = (
{
closed = 1;
nodes = (
"183 0 LINE",
"183 700 LINE",
"124 700 LINE",
"124 0 LINE"
);
},
{
closed = 1;
nodes = (
"540 0 LINE SMOOTH",
"557 0 OFFCURVE",
"571 14 OFFCURVE",
"571 31 CURVE SMOOTH",
"571 132 LINE SMOOTH",
"571 150 OFFCURVE",
"563 158 OFFCURVE",
"552 158 CURVE SMOOTH",
"535 158 LINE SMOOTH",
"524 158 OFFCURVE",
"516 150 OFFCURVE",
"516 132 CURVE SMOOTH",
"516 28 LINE",
"543 55 LINE",
"160 55 LINE",
"160 0 LINE"
);
},
{
closed = 1;
nodes = (
"436 335 LINE SMOOTH",
"447 335 OFFCURVE",
"456 344 OFFCURVE",
"456 355 CURVE SMOOTH",
"456 370 LINE SMOOTH",
"456 381 OFFCURVE",
"447 390 OFFCURVE",
"436 390 CURVE SMOOTH",
"160 390 LINE",
"160 335 LINE"
);
},
{
closed = 1;
nodes = (
"538 645 LINE",
"511 672 LINE",
"511 588 LINE SMOOTH",
"511 570 OFFCURVE",
"519 562 OFFCURVE",
"530 562 CURVE SMOOTH",
"547 562 LINE SMOOTH",
"558 562 OFFCURVE",
"566 570 OFFCURVE",
"566 588 CURVE SMOOTH",
"566 669 LINE SMOOTH",
"566 686 OFFCURVE",
"552 700 OFFCURVE",
"535 700 CURVE SMOOTH",
"160 700 LINE",
"160 645 LINE"
);
}
);
width = 644;
}
);
leftKerningGroup = H;
rightKerningGroup = E;
unicode = 0045;
},
{
color = 1;
glyphname = F;
layers = (
{
hints = (
{
origin = "{0, 11}";
type = Corner;
name = _corner.rightSerif;
options = 1;
},
{
origin = "{0, 12}";
type = Corner;
name = _corner.leftSerif;
}
);
layerId = "120615CE-BBBA-4703-9D0A-81094A4EB7C9";
paths = (
{
closed = 1;
nodes = (
"327 0 LINE SMOOTH",
"354 0 OFFCURVE",
"376 12 OFFCURVE",
"376 46 CURVE SMOOTH",
"376 92 LINE SMOOTH",
"376 126 OFFCURVE",
"354 138 OFFCURVE",
"327 138 CURVE SMOOTH",
"205 138 LINE",
"280 63 LINE",
"280 700 LINE",
"113 700 LINE",
"113 0 LINE"
);
},
{
closed = 1;
nodes = (
"419 283 LINE SMOOTH",
"448 283 OFFCURVE",
"470 305 OFFCURVE",
"470 334 CURVE SMOOTH",
"470 370 LINE SMOOTH",
"470 399 OFFCURVE",
"448 421 OFFCURVE",
"419 421 CURVE SMOOTH",
"155 421 LINE",
"155 283 LINE"
);
},
{
closed = 1;
nodes = (
"549 465 LINE SMOOTH",
"583 465 OFFCURVE",
"595 487 OFFCURVE",
"595 514 CURVE SMOOTH",
"595 639 LINE SMOOTH",
"595 674 OFFCURVE",
"569 700 OFFCURVE",
"534 700 CURVE SMOOTH",
"252 700 LINE",
"252 562 LINE",
"532 562 LINE",
"457 637 LINE",
"457 514 LINE SMOOTH",
"457 487 OFFCURVE",
"469 465 OFFCURVE",
"503 465 CURVE SMOOTH"
);
}
);
width = 633;
},
{
hints = (
{
origin = "{0, 12}";
type = Corner;
name = _corner.leftSerif;
},
{
origin = "{0, 11}";
type = Corner;
name = _corner.rightSerif;
options = 1;
}
);
layerId = "C836F59C-81CC-4411-94AE-B4087123016A";
paths = (
{
closed = 1;
nodes = (
"276 0 LINE SMOOTH",
"294 0 OFFCURVE",
"302 8 OFFCURVE",
"302 19 CURVE SMOOTH",
"302 36 LINE SMOOTH",
"302 47 OFFCURVE",
"294 55 OFFCURVE",
"276 55 CURVE SMOOTH",
"156 55 LINE",
"183 28 LINE",
"183 700 LINE",
"124 700 LINE",
"124 0 LINE"
);
},
{
closed = 1;
nodes = (
"436 322 LINE SMOOTH",
"447 322 OFFCURVE",
"456 331 OFFCURVE",
"456 342 CURVE SMOOTH",
"456 357 LINE SMOOTH",
"456 368 OFFCURVE",
"447 377 OFFCURVE",
"436 377 CURVE SMOOTH",
"160 377 LINE",
"160 322 LINE"
);
},
{
closed = 1;
nodes = (
"547 562 LINE SMOOTH",
"558 562 OFFCURVE",
"566 570 OFFCURVE",
"566 588 CURVE SMOOTH",
"566 669 LINE SMOOTH",
"566 686 OFFCURVE",
"552 700 OFFCURVE",
"535 700 CURVE SMOOTH",
"160 700 LINE",
"160 645 LINE",
"538 645 LINE",
"511 672 LINE",
"511 588 LINE SMOOTH",
"511 570 OFFCURVE",
"519 562 OFFCURVE",
"530 562 CURVE SMOOTH"
);
}
);
width = 621;
}
);
leftKerningGroup = H;
rightKerningGroup = F;
unicode = 0046;
},
